<svg xmlns="http://www.w3.org/2000/svg" width="68.901" height="207.004" viewBox="0 0 68.901 207.004">
  <g id="Grupo_55" data-name="Grupo 55" transform="translate(-1357.373 -140.063)">
    <path id="Trazado_200" data-name="Trazado 200" d="M1513.791,384.6a93.677,93.677,0,0,1-1.6,14.508l.1-.077a.551.551,0,0,1,.566-.016l.1.113a92.139,92.139,0,0,0,1.617-14.528Z" transform="translate(-128.469 -202.913)" fill="#fff"/>
    <path id="Trazado_201" data-name="Trazado 201" d="M1538.2,499.623l8.632,11.37,1.329-.324Z" transform="translate(-150.049 -298.361)" fill="#eeeef3"/>
    <path id="Trazado_202" data-name="Trazado 202" d="M1540.2,569.529a.318.318,0,0,1-.051.049l-10.135,7.693c.087.034.178.069.27.109l10.5-7.993Z" transform="translate(-143.258 -356.25)" fill="#eeeef3"/>
    <path id="Trazado_203" data-name="Trazado 203" d="M1429.388,484.56c.239.226.472.456.693.676l.1.1c.546.545,1.081,1.076,1.6,1.583l2.32-1.759.016-.013,11.613-8.807.009-.005-2.019-2.66Z" transform="translate(-59.758 -276.832)" fill="#9e9ea3"/>
    <path id="Trazado_204" data-name="Trazado 204" d="M1432.659,1331.772c-2.324,0-3.205-.854-3.435-1.141-.076-.1-.216-.27-.2-1.338a4.493,4.493,0,0,0-.206.583,1.355,1.355,0,0,0-.062.683,1.382,1.382,0,0,0,.584.663c1.414.994,3.47,1.31,6.113.938a15.58,15.58,0,0,0,5.847-1.96,3.838,3.838,0,0,0,1.854-1.782c.023-.065.047-.137.072-.218-2.673,2.657-7.533,3.352-9.674,3.532C1433.233,1331.76,1432.936,1331.772,1432.659,1331.772Z" transform="translate(-59.214 -985.909)" fill="#eeeef3"/>
    <path id="Trazado_205" data-name="Trazado 205" d="M1496.631,1241.658l.674,2.092a15.885,15.885,0,0,0,2.945-2.349,4.677,4.677,0,0,0,.574-2.449,20.631,20.631,0,0,1-.4-3.53,20.217,20.217,0,0,1-8.586.088,6.441,6.441,0,0,1-.159.877l-.008.032a.5.5,0,0,0,.174.621,1.564,1.564,0,0,1,.343.6,1.544,1.544,0,0,1-.306,1.161c-.057.1-.11.186-.152.273a1.961,1.961,0,0,0-.179.819l3.332.351A2.058,2.058,0,0,1,1496.631,1241.658Zm-2.564-4.418a.235.235,0,0,1,.305-.132l4.153,1.647a.235.235,0,0,1-.087.453.238.238,0,0,1-.087-.017l-4.153-1.647A.235.235,0,0,1,1494.067,1237.24Zm-1.088,1.858a.235.235,0,0,1,.282-.175,23.712,23.712,0,0,0,3.635.555.235.235,0,0,1-.017.469h-.018a24.2,24.2,0,0,1-3.707-.566A.235.235,0,0,1,1492.979,1239.1Z" transform="translate(-111.344 -908.921)" fill="#fff"/>
    <path id="Trazado_206" data-name="Trazado 206" d="M1458.707,395.19c.032,2,.091,5.488.161,9.2l8.12-6.165a90.034,90.034,0,0,0,1.758-15.253c-.931-.073-1.8-.141-2.351-.189A114.789,114.789,0,0,1,1458.707,395.19Z" transform="translate(-84.086 -201.405)" fill="#fff"/>
    <path id="Trazado_207" data-name="Trazado 207" d="M1523.047,1305.759h0a3.378,3.378,0,0,0-.363.606c.21.049.438.118.627.18v-.8c-.084.005-.169.009-.251.012Z" transform="translate(-137.171 -967.276)" fill="#9e9ea3"/>
    <path id="Trazado_208" data-name="Trazado 208" d="M1675.655,306.592c.023-.155.046-.309.069-.457.019-.123.048-.247.075-.367.111-.48.141-.723-.056-.879l-.657-.519a.333.333,0,0,1,.412-.522l.657.519a1.39,1.39,0,0,1,.292,1.55c-.026.114-.051.221-.067.32-.02.126-.04.256-.059.388a.331.331,0,0,1-.034.238c-.033.236-.063.476-.086.717-.017.16-.03.32-.039.48a6.038,6.038,0,0,0,.38,2.794l.011.022a3.529,3.529,0,0,0,.266.5c.085.132.18.26.281.395a6,6,0,0,1,.393.572l.011.02.022.039a.379.379,0,0,1,.019.035c.013.024.026.049.038.074s.025.048.036.071.015.028.021.043a7.089,7.089,0,0,1,.447,1.486l.276,1.242a.327.327,0,0,1-.011.178,19.207,19.207,0,0,0,5.2-.535q-.043-.392-.084-.784h0c-.007-.069-.015-.138-.022-.207a10.226,10.226,0,0,1-.086-1.5,37.681,37.681,0,0,1,1.186-7.11c.251-1.076.511-2.189.72-3.29a2.723,2.723,0,0,0,.054-1.092c-.155-.665-.776-1.086-1.376-1.492l-.164-.111-.136-.093a27.4,27.4,0,0,0-2.691-1.695,2.418,2.418,0,0,0-.775-.3.724.724,0,0,0-.591.144,1.816,1.816,0,0,0-.458,1.185,21.619,21.619,0,0,1,3.166,1.255c.175.081.355.164.434.2a.332.332,0,0,1,.227.144.338.338,0,0,1-.023.4c-.167.2-.38.1-.535.033-.092-.041-.222-.1-.381-.174a17.642,17.642,0,0,0-3.368-1.282,3.446,3.446,0,0,0-1.5,0c-.454.137-.594.284-.62.656a.342.342,0,0,1-.012.067.33.33,0,0,1,.286-.119,9.6,9.6,0,0,1,3.98,1.993.333.333,0,1,1-.443.5,9.048,9.048,0,0,0-3.6-1.826.333.333,0,0,1-.3-.361.043.043,0,1,0-.049,0,.334.334,0,0,1-.276.054,1.621,1.621,0,0,0-1.208.511,1.135,1.135,0,0,0-.225,1.044.332.332,0,0,1-.244.4l-.028.006a5.04,5.04,0,0,0-.486.581,1.941,1.941,0,0,0,0,1.1c.116.54,1.122,2.671,1.676,2.782A.065.065,0,0,0,1675.655,306.592Zm-.816-4.579a.333.333,0,0,1,.395-.257,8.388,8.388,0,0,1,3.217,1.444.333.333,0,1,1-.4.536,7.716,7.716,0,0,0-2.96-1.328A.333.333,0,0,1,1674.839,302.013Z" transform="translate(-262.601 -130.487)" fill="#fff"/>
    <path id="Trazado_209" data-name="Trazado 209" d="M1504.688,172.83l.005,0a4.55,4.55,0,0,0,.556.127c.077.011.157.02.24.027l.027,0c.092.007.187.011.288.013s.182-.005.268-.011c.056,0,.111-.009.165-.014l.123-.016a4.749,4.749,0,0,0,.525-.119l.037-.01a9.193,9.193,0,0,0,2.338-1.1c.078-.05.155-.1.232-.155a.332.332,0,0,1,.106-.07,11.687,11.687,0,0,0,1.066-.831,7.111,7.111,0,0,0,1.807-2.405,15.885,15.885,0,0,0,.787-2.186l.472-2.679a.333.333,0,0,1,.656.115l-.259,1.469.116-.05a3.481,3.481,0,0,0,1.211-.892l.31-.443a2.627,2.627,0,0,0,.142-.29,2.933,2.933,0,0,0,.193-1.435v-.009c0-.011,0-.022,0-.033a2.733,2.733,0,0,0-.748-1.644.723.723,0,0,0-.588-.216q-.158.456-.353.895a.333.333,0,0,1-.608-.271,12.268,12.268,0,0,0,.69-7.367.333.333,0,1,1,.653-.127,13.459,13.459,0,0,1-.175,6.208,1.416,1.416,0,0,1,.841.4,3.035,3.035,0,0,1,.691,1.043,14.847,14.847,0,0,0,1.008-4.763,12.4,12.4,0,0,0-2.157-7.1,11.466,11.466,0,0,0-6.3-4.612,5.317,5.317,0,0,0-2.378-.261,3,3,0,0,0-.7.2h0a.329.329,0,0,1-.212.013.337.337,0,0,1-.042-.013h0a2.987,2.987,0,0,0-.7-.2,5.316,5.316,0,0,0-2.379.261,11.466,11.466,0,0,0-6.3,4.612,12.4,12.4,0,0,0-2.157,7.1,14.969,14.969,0,0,0,.978,4.682,2.191,2.191,0,0,1,1.454-1.312,13.444,13.444,0,0,1-.189-6.256.333.333,0,0,1,.653.127,12.266,12.266,0,0,0,.689,7.367.333.333,0,1,1-.608.271q-.189-.424-.343-.865c-.552.067-1.163.727-1.3,1.826a2.951,2.951,0,0,0,.186,1.48,2.735,2.735,0,0,0,.143.292l.309.442a3.484,3.484,0,0,0,1.211.893c.039.018.078.034.116.05l-.259-1.469a.333.333,0,0,1,.655-.115l.472,2.68a16.043,16.043,0,0,0,.787,2.185,7.107,7.107,0,0,0,1.807,2.4,11.671,11.671,0,0,0,1.27.968A9.457,9.457,0,0,0,1504.688,172.83Zm4.8-10.9a.789.789,0,1,1,.606-.768A.7.7,0,0,1,1509.484,161.926Zm2.784-3.916a.235.235,0,0,1-.332,0c-.981-.958-3.326-.531-3.753-.231a.235.235,0,1,1-.27-.385c.589-.414,3.167-.877,4.351.279A.235.235,0,0,1,1512.268,158.01Zm-5.652-9.615a.332.332,0,0,1,.415-.221c3.1.95,6.418,4.457,6.418,11.451a.333.333,0,0,1-.666,0c0-6.631-3.072-9.935-5.947-10.815A.333.333,0,0,1,1506.616,148.395Zm-.51,16.715a.274.274,0,0,1-.274.274h0a.274.274,0,0,1-.274-.274l0-1.462a.274.274,0,0,1,.274-.274h0a.274.274,0,0,1,.274.274Zm-.618-20.194a.274.274,0,1,1,.548,0v2.667a.274.274,0,1,1-.548,0Zm2.77,21.734h.006a.817.817,0,0,1,.645.3.646.646,0,0,1,.12.561,3.285,3.285,0,0,1-6.422.042.646.646,0,0,1,.113-.563.818.818,0,0,1,.647-.309Zm-9.477-7.024a.333.333,0,0,1-.666,0c0-6.994,3.315-10.5,6.418-11.451a.333.333,0,0,1,.195.636C1501.853,149.691,1498.78,152.994,1498.78,159.625Zm.894-1.611a.235.235,0,0,1-.328-.336c1.184-1.156,3.762-.693,4.351-.279a.235.235,0,1,1-.27.385C1503,157.483,1500.655,157.056,1499.674,158.014Zm1.846,3.144a.623.623,0,1,1,.606.768A.7.7,0,0,1,1501.52,161.158Z" transform="translate(-113.516 -3.246)" fill="#fff"/>
    <path id="Trazado_210" data-name="Trazado 210" d="M1522.182,322.851a1.067,1.067,0,0,0,.332.054h.13a1.067,1.067,0,0,0,.332-.054c3.18-1.041,6.7-4.581,7.727-5.668-1.388-.742-4.014-2.473-4.137-2.554a.331.331,0,0,1-.145-.223,21.494,21.494,0,0,1-.209-3.54,9.65,9.65,0,0,1-2.26,1.027h0l-.012,0h0a3.682,3.682,0,0,1-.621.143l-.021,0-.016,0a3.449,3.449,0,0,1-.55.048h-.188a3.405,3.405,0,0,1-.541-.047l-.018,0-.024,0a3.635,3.635,0,0,1-.624-.144h0a9.718,9.718,0,0,1-2.387-1.1,21.733,21.733,0,0,1-.208,3.609.333.333,0,0,1-.145.223c-.123.081-2.749,1.812-4.137,2.554C1515.482,318.27,1519,321.811,1522.182,322.851Z" transform="translate(-130.345 -141.674)" fill="#fff"/>
    <path id="Trazado_211" data-name="Trazado 211" d="M1372.057,404.815a.333.333,0,1,1,.479-.462l1.661,1.721a.58.58,0,0,0,.176.019,2.779,2.779,0,0,0,1.02-.277l.02-.01a.324.324,0,0,1,.071-.027l-.222-.269-.252-.3c-.041.162-.059.256-.06.262a.333.333,0,0,1-.328.276.326.326,0,0,1-.057,0,.333.333,0,0,1-.271-.384,8.982,8.982,0,0,1,4.624-6.072.332.332,0,0,1,.416.494,3.037,3.037,0,0,0,.543.023.976.976,0,0,0,.057-.378c-.113-.1-.5-.417-1.859-1.447a.333.333,0,0,1-.063-.466.325.325,0,0,1,.119-.1,4.1,4.1,0,0,0-1.557-2.309l-.2-.191c-.458-.44-.919-.89-1.373-1.335-.58-.568-1.188-1.17-1.807-1.789l-.1-.1c-.3-.3-.632-.625-.963-.928a7.847,7.847,0,0,0-2.887-1.846,5.223,5.223,0,0,0-5.848,2.184.333.333,0,0,1-.569-.345,5.87,5.87,0,0,1,6.621-2.473,8.337,8.337,0,0,1,2.927,1.8l1.4-1.06a2.7,2.7,0,0,0-.095-.539l-.017-.058a1.373,1.373,0,0,1-.078-.514,1.4,1.4,0,0,1,.182-.532q1.271-2.454,2.54-4.909l.852-1.647a.328.328,0,0,1,.11-.121c-.058-3.361-.1-5.8-.1-5.834a.333.333,0,0,1,.328-.338h.005a.333.333,0,0,1,.333.328c0,.014.005.354.015.945a114.465,114.465,0,0,0,7.2-11.667c-2.611-.367-4.167-2.973-4.582-3.763-.976.4-1.7.756-2.252,1.027-.427.211-.764.378-1.061.487-.1.036-.292.119-.465.193-.141.06-.274.117-.358.15-2.574,1.012-4.067,3.8-5.375,6.561s-3.954,9.413-5.888,14.272c-.964,2.423-1.726,4.336-2.046,5.076-.16.37-.341.75-.516,1.118-.808,1.7-1.644,3.461-.992,5.171.838,2.194,2.781,4.1,4.5,5.788l.438.432c.85.841,1.742,1.615,2.657,2.4.209.18.417.38.619.573a5.187,5.187,0,0,0,1.728,1.266,1.923,1.923,0,0,0,.778.1Z" transform="translate(-3.239 -182.811)" fill="#fff"/>
    <path id="Trazado_212" data-name="Trazado 212" d="M1433.418,630.517l.043-.157a2.839,2.839,0,0,1-.754-.208,3.594,3.594,0,0,1-.9-.671l-.3-.274a33.521,33.521,0,0,1-2.694-2.676.331.331,0,0,1-.147.158l-.064.031a3.479,3.479,0,0,1-1.279.333h-.019a.884.884,0,0,1-.584-.163l-.024-.022-.98-1.016a2.232,2.232,0,0,1-.64.1l5.246,6.911Z" transform="translate(-56.18 -403.105)" fill="#eeeef3"/>
    <path id="Trazado_213" data-name="Trazado 213" d="M1460.15,492.417l-11.6,8.8-.016.013-2.257,1.712c.363.355.728.711,1.092,1.061l.2.188c.813.773,1.82,1.732,1.772,3.072a14.938,14.938,0,0,1,1.682,1.341.346.346,0,0,1,.035.056.974.974,0,0,1,.063.589,3.524,3.524,0,0,0,.479-.183c.227-.105.466-.228.719-.358a6.756,6.756,0,0,1,1.709-.709,13.844,13.844,0,0,1,2.907.183l.244.03a4.27,4.27,0,0,0,.724-.019c.719-.054,1.533-.116,1.958.4a1.137,1.137,0,0,1,.262.868,1.506,1.506,0,0,1-.6,1,2.64,2.64,0,0,1-1.664.481c-.181,0-.358-.014-.53-.026-.135-.009-.262-.018-.39-.022a4.716,4.716,0,0,0-1.618.243,20.586,20.586,0,0,0,2.578,1.236c.283.112.575.22.857.325.352.13.712.264,1.069.41L1470,505.374l-9.841-12.964Z" transform="translate(-73.775 -292.375)" fill="#eeeef3"/>
    <path id="Trazado_214" data-name="Trazado 214" d="M1451.582,592.184a56.246,56.246,0,0,0,5.517,2.069,1.733,1.733,0,0,0,.8.133,1,1,0,0,0,.588-.488.491.491,0,0,0,.063-.393.589.589,0,0,0-.272-.255l-.01-.005a3.646,3.646,0,0,0-.436-.188c-.1-.037-.19-.073-.278-.112-.472-.211-.971-.4-1.453-.574-.286-.106-.581-.215-.871-.33a21.25,21.25,0,0,1-3.24-1.618l-.025-.015-.186-.114a.333.333,0,0,1,.353-.564l.039.024a5.4,5.4,0,0,1,2.363-.476c.141,0,.281.014.416.023.169.012.329.023.489.024a2.064,2.064,0,0,0,1.255-.344.855.855,0,0,0,.348-.545.474.474,0,0,0-.115-.369c-.205-.25-.864-.2-1.393-.161a4.617,4.617,0,0,1-.855.016l-.245-.03a14.131,14.131,0,0,0-2.718-.186,6.447,6.447,0,0,0-1.512.644c-.248.128-.5.26-.744.37a3.907,3.907,0,0,1-1.027.322.331.331,0,0,1-.335.057.344.344,0,0,1-.031-.016,4.121,4.121,0,0,1-1.432-.186,8.391,8.391,0,0,0-3.271,4.175c.179.212.356.426.528.635l.355.43a30.15,30.15,0,0,0,2.884,2.905l.3.275a3.057,3.057,0,0,0,.731.555,3.093,3.093,0,0,0,.833.192c.113.016.23.032.344.052l2.732.484a2.919,2.919,0,0,0,1.9-.074,1.338,1.338,0,0,0,.126-.081,46.1,46.1,0,0,1-4.926-1.756.333.333,0,1,1,.334-.575,53.747,53.747,0,0,0,5.312,1.86l.006,0,.247.076a1.732,1.732,0,0,0,.8.114.739.739,0,0,0,.563-.7.332.332,0,0,1,.141-.275,3.639,3.639,0,0,1-.924-.2c-1.844-.586-3.232-1.109-5.15-1.869a.333.333,0,0,1,.245-.619c1.9.754,3.281,1.273,5.106,1.853a1.88,1.88,0,0,0,1.091.126.89.89,0,0,0,.478-.479.829.829,0,0,0-.059-.721.331.331,0,0,1-.013-.276,4.427,4.427,0,0,1-.46-.131,54.584,54.584,0,0,1-5.655-2.133.333.333,0,0,1,.348-.567Z" transform="translate(-71.355 -371.431)" fill="#fff"/>
    <path id="Trazado_215" data-name="Trazado 215" d="M1464.985,653.776l-2.458,1.866.536-.068,1.061-.808h0l1.809-1.377-.355-.063-.593.45Z" transform="translate(-87.256 -425.901)" fill="#eeeef3"/>
    <path id="Trazado_216" data-name="Trazado 216" d="M1472.978,712.5h-.662c-14.641.059-17.673-1.913-17.99-2.155-.081-.051-.158-.1-.233-.156v.763c1.014.443,6.417,2.517,18.672,2.517,12.188,0,17.385-1.814,18.4-2.22V709.7a4.461,4.461,0,0,1-.809.645C1490.04,710.579,1487.088,712.5,1472.978,712.5Z" transform="translate(-80.258 -472.677)" fill="#fff"/>
    <path id="Trazado_217" data-name="Trazado 217" d="M1587.917,1238.792a1.544,1.544,0,0,1-.306-1.161,1.565,1.565,0,0,1,.344-.6.5.5,0,0,0,.174-.621l-.009-.033a6.459,6.459,0,0,1-.158-.874,21.029,21.029,0,0,1-4.309.418,15.865,15.865,0,0,1-4.277-.508,20.621,20.621,0,0,1-.4,3.531,4.678,4.678,0,0,0,.574,2.449,15.886,15.886,0,0,0,2.945,2.349l.674-2.092a2.059,2.059,0,0,1,1.743-1.415l3.332-.351a1.954,1.954,0,0,0-.179-.819C1588.027,1238.979,1587.974,1238.888,1587.917,1238.792Zm-6.464.393a.238.238,0,0,1-.086.017.235.235,0,0,1-.087-.453l4.153-1.647a.235.235,0,0,1,.173.437Zm5.2.188a24.172,24.172,0,0,1-3.707.566h-.018a.235.235,0,0,1-.017-.469,23.7,23.7,0,0,0,3.635-.555.235.235,0,1,1,.107.457Z" transform="translate(-183.889 -908.914)" fill="#fff"/>
    <path id="Trazado_218" data-name="Trazado 218" d="M1635.3,388.179c-.527-2.719-1.29-9.877-1.794-14.614-.134-1.263-.251-2.353-.33-3.046-.112-.985.768-1.343,1.35-1.581l0,0-.091-1.235c-.052-.718.726-1.059,1.255-1.225l-.065-.295a6.575,6.575,0,0,0-.4-1.353l0-.006-.013-.026c-.008-.017-.016-.033-.024-.05l-.012-.023a.4.4,0,0,0-.02-.038.27.27,0,0,1-.013-.024l0-.009-.021-.037-.009-.017a5.463,5.463,0,0,0-.348-.5c-.1-.138-.209-.281-.307-.433a4.239,4.239,0,0,1-.309-.573l-.008-.016h0a5.022,5.022,0,0,1-.315-.986,4.006,4.006,0,0,0-.655-.351c-1.737-.591-3.445-1.209-5.085-1.84-.343.673-1.915,3.462-4.624,3.844a114.614,114.614,0,0,0,6.9,11.245c.005-.32.008-.5.008-.524a.333.333,0,0,1,.333-.328h.005a.333.333,0,0,1,.328.338c-.005.318-.046,2.978-.107,6.5.954,2.027,2.47,4.974,3.43,6.75l0,.009a3.041,3.041,0,0,1,.246.54,3.112,3.112,0,0,1,.1.514c.007.048.014.1.021.145a4.183,4.183,0,0,0,1.619,2.582,10,10,0,0,1-1.042-3.31Z" transform="translate(-220.796 -182.418)" fill="#fff"/>
    <path id="Trazado_219" data-name="Trazado 219" d="M1484.121,369.892c.157-1.569.368-12.3.495-19.523a.33.33,0,0,1,0-.176c.038-2.154.068-3.98.086-5.136a114.986,114.986,0,0,1-7.392-11.994c-.564.048-1.458.119-2.412.193.062,1.924.613,15.666,3.7,20.517a.333.333,0,0,1-.281.511h-1.455a.332.332,0,0,1-.281-.154c-3.153-4.954-3.721-18.26-3.8-20.712l-2.189.165h-.025a.333.333,0,0,1-.024-.664l2.424-.183a.332.332,0,0,1,.136-.03h.258c1.612-.123,3.453-.266,4.177-.332,2.4-.218,3.912-2.766,4.278-3.456-.619-.844-3.518-4.717-5.225-5.649-1.129-.616-3-.408-4.846-.167.027.364.065.724.116,1.065.568.372,2.963,1.931,4.108,2.519a2.862,2.862,0,0,0,.653-1.653.333.333,0,1,1,.662.069,3.905,3.905,0,0,1-1.391,2.659c-1.172,1.235-4.639,4.666-7.9,5.735a1.726,1.726,0,0,1-.539.087h-.13a1.728,1.728,0,0,1-.539-.087c-3.266-1.07-6.734-4.5-7.905-5.737a3.9,3.9,0,0,1-1.389-2.658.333.333,0,1,1,.662-.069,2.862,2.862,0,0,0,.653,1.653c1.145-.588,3.54-2.147,4.108-2.519.051-.34.089-.7.116-1.065-1.849-.241-3.718-.449-4.847.166-1.708.932-4.606,4.8-5.225,5.649.365.689,1.873,3.237,4.278,3.456.724.066,2.563.209,4.174.332h.2a.333.333,0,0,1,.125.025l2.5.188a.333.333,0,0,1-.025.664h-.025l-2.25-.17a90.823,90.823,0,0,1-1.736,15.092l13.94,15.459a.331.331,0,0,1,.031.04.342.342,0,0,1,.062.061.333.333,0,0,1-.063.466l-11.393,8.675a1.018,1.018,0,0,1,.193.3,1.111,1.111,0,0,1-.093.969,1.635,1.635,0,0,1-1.057.824l-.032,0a1.467,1.467,0,0,1,.055,1.219,1.551,1.551,0,0,1-.889.86,1.488,1.488,0,0,1-.223.053.33.33,0,0,1,.173.286,1.4,1.4,0,0,1-1.1,1.356,1.48,1.48,0,0,1-.291.028,2.872,2.872,0,0,1-.837-.159l-.041-.012a2.256,2.256,0,0,1-.538.431,2.35,2.35,0,0,1-1.178.279,6.731,6.731,0,0,1-1.16-.129l-1.029-.182-2.214,1.685a26.2,26.2,0,0,1-1.589,3.85.333.333,0,0,1-.3.18.329.329,0,0,1-.153-.037.333.333,0,0,1-.142-.448,24.1,24.1,0,0,0,1.224-2.816l-.261.2a.332.332,0,0,1-.16.066l-1.859.236-.041,0h0a.309.309,0,0,1-.044,0l-.007,0a.326.326,0,0,1-.039-.009l-.022-.006a.346.346,0,0,1-.041-.019l-.016-.008a.317.317,0,0,1-.05-.036l-.007-.008a.315.315,0,0,1-.036-.038l0,0-.327-.43c-.036.149-.074.3-.113.454-.607,2.429-1.3,5.181,1.062,6.655a.376.376,0,0,1,.042.031,8.751,8.751,0,0,0,3.192,1.034,72.419,72.419,0,0,0,13.751.98.326.326,0,0,1,.054,0h1.212a.331.331,0,0,1,.054,0,72.415,72.415,0,0,0,13.752-.98,8.7,8.7,0,0,0,3.2-1.038.248.248,0,0,1,.037-.027c2.358-1.473,1.669-4.226,1.062-6.654-.086-.345-.168-.67-.241-.991a18.9,18.9,0,0,1-.369-6.785c.225-1.691-1.161-4.256-1.175-4.282A.333.333,0,0,1,1484.121,369.892ZM1484,385.011a.333.333,0,0,1-.449-.142c-3.39-6.537-3.792-16.168-3.8-16.264a.333.333,0,0,1,.665-.025c0,.095.4,9.58,3.721,15.983A.333.333,0,0,1,1484,385.011Z" transform="translate(-75.156 -151.689)" fill="#fff"/>
    <path id="Trazado_220" data-name="Trazado 220" d="M1602.081,404.846c-2.908-5.335-3.429-17.993-3.5-20.247h-.788c.079,2.28.653,15.357,3.6,20.247Z" transform="translate(-199.499 -202.914)" fill="#fff"/>
    <path id="Trazado_221" data-name="Trazado 221" d="M1546.835,280.539a.094.094,0,0,0-.021.087,2.738,2.738,0,0,0,5.363-.035.094.094,0,0,0-.022-.087.27.27,0,0,0-.213-.089s0,0,0,0l-4.891.032A.269.269,0,0,0,1546.835,280.539Z" transform="translate(-157.194 -116.463)" fill="#fff"/>
    <path id="Trazado_222" data-name="Trazado 222" d="M1530.276,1302.009l2.856-.821.182-.907a10.187,10.187,0,0,1-3.038.871Z" transform="translate(-143.474 -962.741)" fill="#eeeef3"/>
    <path id="Trazado_223" data-name="Trazado 223" d="M1695.321,401.668c0-.029-.005-.059-.007-.088a.821.821,0,0,0-.035-.228.549.549,0,0,0-.178-.2,1.98,1.98,0,0,0-.453-.254.579.579,0,0,0-.12-.02c-.043,0-.091-.01-.143-.02h-.007a.333.333,0,0,1-.331-.306c-.093-1.161-.271-1.569-.4-1.707a1.177,1.177,0,0,0-.689-.286c.01.095.02.189.031.284l.189-.049a.333.333,0,0,1,.175.642,21.546,21.546,0,0,1-5.505.788,12.694,12.694,0,0,1-1.75-.113.333.333,0,1,1,.092-.659c.1.014.2.026.307.037l-.061-.276c-.614.2-.745.392-.736.522l.129,1.76a.333.333,0,0,1-.308.356h-.025a.331.331,0,0,1-.278-.152c-.512.217-.832.415-.785.825.079.7.2,1.787.33,3.051.472,4.438,1.264,11.866,1.785,14.557l0,.021c.312,1.606.634,3.267,1.95,4.131a5.428,5.428,0,0,0,1.441.665,7.544,7.544,0,0,0,1.126.149.333.333,0,0,1,.181.064l.119,0h.061c2.991,0,5.249-1.758,5.5-4.293.279-2.8-.4-8.591-1-13.7C1695.688,405.135,1695.463,403.214,1695.321,401.668Z" transform="translate(-271.384 -214.496)" fill="#fff"/>
    <path id="Trazado_224" data-name="Trazado 224" d="M1449.257,1268.777a.333.333,0,0,1-.5-.179l-.807-2.507a1.393,1.393,0,0,0-1.179-.958l-3.483-.366-.07,0h-.041a1.166,1.166,0,0,0-.952.552l-.023.037a6.942,6.942,0,0,0-.644,1.5,7,7,0,0,1-.754,1.7,9.039,9.039,0,0,1-1.949,1.891c-.33.262-.643.511-.927.769-.247.224-.506.452-.78.694a20.906,20.906,0,0,0-3.425,3.528l-.016.023a5.2,5.2,0,0,0,.032,2.069c.419.524,1.682,1.076,3.852.894,1.786-.15,7.713-.892,10.035-4.2l.022-.1c.09-.4.184-.855.257-1.238a4.143,4.143,0,0,1,1.726-2.619.333.333,0,1,1,.386.542c-.042.03-.083.062-.123.094a.333.333,0,0,1,.141.11,9.6,9.6,0,0,0,3.256-1.014l.009-.017a7.349,7.349,0,0,0,.669-1.918,6.721,6.721,0,0,0-.662-3.448,3.554,3.554,0,0,1-.569,1.408A18.948,18.948,0,0,1,1449.257,1268.777Z" transform="translate(-63.301 -933.15)" fill="#fdd534"/>
    <path id="Trazado_225" data-name="Trazado 225" d="M1577.043,1301.187l2.856.821v-.858a10.188,10.188,0,0,1-3.038-.871Z" transform="translate(-182.13 -962.74)" fill="#eeeef3"/>
    <path id="Trazado_226" data-name="Trazado 226" d="M1620.774,1331.732c-2.141-.179-7-.875-9.674-3.532.025.08.049.153.072.218a3.837,3.837,0,0,0,1.854,1.782,15.58,15.58,0,0,0,5.848,1.96c2.643.371,4.7.055,6.113-.939a1.383,1.383,0,0,0,.584-.662,1.352,1.352,0,0,0-.061-.683,4.463,4.463,0,0,0-.206-.584c.015,1.068-.124,1.243-.2,1.338-.23.287-1.112,1.141-3.435,1.141C1621.39,1331.771,1621.093,1331.759,1620.774,1331.732Z" transform="translate(-210.541 -985.908)" fill="#eeeef3"/>
    <path id="Trazado_227" data-name="Trazado 227" d="M1577.719,1266.091l-.807,2.507a.333.333,0,0,1-.5.179,18.949,18.949,0,0,1-3.482-2.748,3.559,3.559,0,0,1-.569-1.408,6.716,6.716,0,0,0-.662,3.448,7.336,7.336,0,0,0,.669,1.918s0,.01.007.016a9.615,9.615,0,0,0,3.257,1.014.331.331,0,0,1,.141-.11c-.041-.031-.081-.063-.123-.094a.333.333,0,1,1,.386-.542,4.142,4.142,0,0,1,1.726,2.619c.073.383.167.834.257,1.238l.022.1c2.323,3.312,8.249,4.054,10.035,4.2,2.169.18,3.432-.371,3.855-.9a5.313,5.313,0,0,0,.029-2.065l-.015-.023a20.914,20.914,0,0,0-3.425-3.528c-.274-.242-.534-.47-.781-.694-.285-.258-.6-.506-.927-.769a9.032,9.032,0,0,1-1.949-1.891,7,7,0,0,1-.754-1.7,6.93,6.93,0,0,0-.644-1.5l-.023-.037a1.164,1.164,0,0,0-.951-.552h-.028c-.028,0-.056,0-.084,0l-3.483.366A1.393,1.393,0,0,0,1577.719,1266.091Z" transform="translate(-177.8 -933.15)" fill="#fdd534"/>
    <path id="Trazado_228" data-name="Trazado 228" d="M1598.882,1305.759h-.009c-.083,0-.167-.007-.251-.012v.8c.189-.062.417-.131.627-.18a3.385,3.385,0,0,0-.363-.606Z" transform="translate(-200.187 -967.276)" fill="#9e9ea3"/>
    <path id="Trazado_229" data-name="Trazado 229" d="M1528.3,221.029a.235.235,0,1,0,.27-.384c-.589-.414-3.167-.877-4.351.279a.235.235,0,0,0,.328.336C1525.526,220.3,1527.871,220.729,1528.3,221.029Z" transform="translate(-138.387 -66.492)" fill="#000004"/>
    <path id="Trazado_230" data-name="Trazado 230" d="M1561.321,257.947h0a.274.274,0,0,0-.274.274v1.462a.274.274,0,0,0,.274.274h0a.274.274,0,0,0,.274-.274v-1.462A.274.274,0,0,0,1561.321,257.947Z" transform="translate(-169.007 -97.819)" fill="#000004"/>
    <path id="Trazado_231" data-name="Trazado 231" d="M1538.548,241.188a.623.623,0,1,0-.606.768A.7.7,0,0,0,1538.548,241.188Z" transform="translate(-149.332 -83.275)" fill="#000004"/>
    <path id="Trazado_232" data-name="Trazado 232" d="M1574.407,220.644a.235.235,0,1,0,.27.384c.428-.3,2.772-.727,3.753.231a.235.235,0,0,0,.328-.336C1577.574,219.767,1575,220.231,1574.407,220.644Z" transform="translate(-180.011 -66.492)" fill="#000004"/>
    <path id="Trazado_233" data-name="Trazado 233" d="M1581.169,240.42a.789.789,0,1,0,.606.768A.7.7,0,0,0,1581.169,240.42Z" transform="translate(-185.202 -83.275)" fill="#000004"/>
    <path id="Trazado_234" data-name="Trazado 234" d="M1543.727,277.536a.645.645,0,0,0-.113.563,3.285,3.285,0,0,0,6.422-.042.646.646,0,0,0-.12-.561.817.817,0,0,0-.645-.3h-.006l-4.89.032A.817.817,0,0,0,1543.727,277.536Zm5.541.207s0,0,0,0a.269.269,0,0,1,.213.089.094.094,0,0,1,.022.087,2.738,2.738,0,0,1-5.363.035.094.094,0,0,1,.021-.087.27.27,0,0,1,.214-.092Z" transform="translate(-154.523 -113.791)" fill="#000004"/>
    <path id="Trazado_235" data-name="Trazado 235" d="M1523.943,169.213a.333.333,0,0,0-.195-.636c-3.1.95-6.418,4.457-6.418,11.451a.333.333,0,1,0,.665,0C1518,173.4,1521.068,170.093,1523.943,169.213Z" transform="translate(-132.731 -23.648)" fill="#000004"/>
    <path id="Trazado_236" data-name="Trazado 236" d="M1567.423,169.212c2.875.88,5.948,4.184,5.948,10.815a.333.333,0,1,0,.665,0c0-6.994-3.316-10.5-6.418-11.451a.333.333,0,1,0-.195.636Z" transform="translate(-174.103 -23.648)" fill="#000004"/>
    <path id="Trazado_237" data-name="Trazado 237" d="M1560.922,151.11a.274.274,0,0,0,.274-.274v-2.667a.274.274,0,0,0-.548,0v2.667A.274.274,0,0,0,1560.922,151.11Z" transform="translate(-168.676 -6.499)" fill="#000004"/>
    <path id="Trazado_238" data-name="Trazado 238" d="M1424.6,187.11c0-.025,0-.051-.006-.076a1.327,1.327,0,0,0-.086-.439,1.181,1.181,0,0,0-.385-.469,2.628,2.628,0,0,0-.6-.341.877.877,0,0,0-.217-.056,3.182,3.182,0,0,0-.562-1.844,1.921,1.921,0,0,0-1.242-.5,9.363,9.363,0,0,1-.076-1.338,37.216,37.216,0,0,1,1.169-6.984c.253-1.083.515-2.2.726-3.318a3.307,3.307,0,0,0,.048-1.366,3.349,3.349,0,0,0-1.652-1.893l-.161-.109-.136-.093a27.844,27.844,0,0,0-2.757-1.735,3.013,3.013,0,0,0-1-.366,1.371,1.371,0,0,0-1.107.3,2.389,2.389,0,0,0-.685,1.57,3.561,3.561,0,0,0-1.52.058,1.34,1.34,0,0,0-1.037.917,2.5,2.5,0,0,0-1.5.736,1.756,1.756,0,0,0-.428,1.385,3.328,3.328,0,0,0-.3.314,3.154,3.154,0,0,0-.383.524,2.547,2.547,0,0,0-.034,1.5c.044.2,1.074,3.07,2.2,3.295a.806.806,0,0,0,.1.012c-.009.08-.018.161-.026.242-.018.167-.032.338-.041.508a9.237,9.237,0,0,0,.008,1.3c-.1-.047-.192-.093-.29-.133l-.021-.008c-1.885-.64-3.735-1.314-5.5-2-.813-1.1-3.574-4.733-5.338-5.7-1.3-.711-3.265-.5-5.2-.248-.032-.755-.027-1.476-.015-2a12.318,12.318,0,0,0,1.049-.823,7.766,7.766,0,0,0,1.975-2.63,16.581,16.581,0,0,0,.824-2.287l0-.007h0c.048-.165.1-.339.147-.528a3.8,3.8,0,0,0,.468-.179,4.142,4.142,0,0,0,1.454-1.081l.018-.023.327-.467.016-.025a3.311,3.311,0,0,0,.187-.379,3.573,3.573,0,0,0,.247-1.672,16.479,16.479,0,0,0,1.4-5.884,13.037,13.037,0,0,0-2.259-7.476,12.15,12.15,0,0,0-6.67-4.894,5.944,5.944,0,0,0-2.673-.281,1.455,1.455,0,0,1-1.454,0,5.947,5.947,0,0,0-2.674.281,12.15,12.15,0,0,0-6.67,4.895,13.035,13.035,0,0,0-2.259,7.476,16.5,16.5,0,0,0,1.342,5.733v0a3.625,3.625,0,0,0,.233,1.817,3.369,3.369,0,0,0,.186.378l.017.026.327.467.018.024a4.156,4.156,0,0,0,1.455,1.081,3.852,3.852,0,0,0,.468.178c.051.189.1.363.147.528l0,.007a16.667,16.667,0,0,0,.824,2.287,7.767,7.767,0,0,0,1.974,2.629c.3.262.613.51.935.742.014.527.021,1.284-.013,2.079-1.939-.252-3.9-.462-5.2.248-1.842,1-4.77,4.918-5.433,5.825-1.153.454-1.988.866-2.6,1.168-.409.2-.732.362-1,.459-.113.042-.308.125-.5.206-.136.058-.264.113-.339.143-2.8,1.1-4.368,4.01-5.733,6.9-1.314,2.777-3.967,9.443-5.9,14.31-.962,2.418-1.722,4.327-2.038,5.057-.156.359-.326.717-.506,1.1-.828,1.743-1.766,3.718-1.012,5.694.89,2.33,2.888,4.293,4.651,6.025l.437.43c.866.856,1.767,1.639,2.692,2.432.2.167.387.352.591.548a5.812,5.812,0,0,0,1.913,1.394l5.034,6.631v0c-.071.313-.152.635-.237.976-.549,2.193-1.214,4.853.454,6.646a.333.333,0,0,0-.013.089v1.455a.332.332,0,0,0,.179.3c.016.008.062.032.138.067l-.226,4.507a.266.266,0,0,0,0,.034c.05.951.11,2.283.18,3.824.306,6.779.819,18.126,1.727,25.385,1.383,11.05,1.777,22.284,2.157,33.147.217,6.2.442,12.606.847,18.933a1.8,1.8,0,0,0,1.025,1.49,3.9,3.9,0,0,0,.517.211l.133.042a5.8,5.8,0,0,1-.153.883l-.008.031a1.377,1.377,0,0,0-.059.491,1.354,1.354,0,0,0,.359.713,1.05,1.05,0,0,1,.217.342c.047.187-.083.407-.234.662-.061.1-.123.209-.177.319a2.626,2.626,0,0,0-.247,1.129,1.83,1.83,0,0,0-1.184.83l-.02.033a7.54,7.54,0,0,0-.711,1.645,6.411,6.411,0,0,1-.676,1.544,8.565,8.565,0,0,1-1.811,1.74c-.324.258-.659.524-.96.8-.243.221-.5.448-.774.688a21.4,21.4,0,0,0-3.533,3.65,6.213,6.213,0,0,0-.914,1.876,1.63,1.63,0,0,0,.782,2.067,7.65,7.65,0,0,0,4.484,1.21,15.156,15.156,0,0,0,2.1-.157,16.225,16.225,0,0,0,6.089-2.044,4.388,4.388,0,0,0,2.147-2.134,14.847,14.847,0,0,0,.431-1.609l.03-.135a.264.264,0,0,0,.015-.069c.077-.354.154-.728.216-1.054q.014-.073.031-.144a8.532,8.532,0,0,1,1.021.313.334.334,0,0,0,.208.008l3.515-1.011a.333.333,0,0,0,.234-.254l.333-1.655a8.17,8.17,0,0,0,.716-2.06,7.359,7.359,0,0,0-.721-3.909,9.481,9.481,0,0,1-.461-1.408.331.331,0,0,0-.059-.135,19.985,19.985,0,0,1-.331-3.346,2.9,2.9,0,0,0,.7-.459,2.582,2.582,0,0,0,.887-2.023c-.261-6.93-.261-37.643,0-42.679.235-4.53.715-28.3.819-35.952.005-.356.009-.682.013-.974h.257c.076,6.652.584,32.173.831,36.927.261,5.027.261,35.74,0,42.678a2.582,2.582,0,0,0,.887,2.023,2.914,2.914,0,0,0,.692.457,20.015,20.015,0,0,1-.331,3.348.332.332,0,0,0-.059.135,9.493,9.493,0,0,1-.461,1.408,7.358,7.358,0,0,0-.722,3.909,8.189,8.189,0,0,0,.716,2.06l.333,1.655a.333.333,0,0,0,.234.254l3.516,1.011a.334.334,0,0,0,.208-.008,8.546,8.546,0,0,1,1.021-.313c.011.048.021.1.031.144.062.326.139.7.216,1.054a.269.269,0,0,0,.015.069l.03.135a14.883,14.883,0,0,0,.431,1.609,4.388,4.388,0,0,0,2.147,2.135,16.219,16.219,0,0,0,6.089,2.044,15.152,15.152,0,0,0,2.1.157,7.651,7.651,0,0,0,4.484-1.21,1.63,1.63,0,0,0,.781-2.066,6.2,6.2,0,0,0-.914-1.877,21.4,21.4,0,0,0-3.533-3.651c-.272-.24-.53-.467-.774-.688-.3-.273-.636-.539-.96-.8a8.566,8.566,0,0,1-1.811-1.74,6.42,6.42,0,0,1-.677-1.544,7.544,7.544,0,0,0-.711-1.645l-.021-.033a1.829,1.829,0,0,0-1.184-.83,2.622,2.622,0,0,0-.246-1.128c-.054-.111-.117-.217-.177-.319-.15-.255-.28-.475-.234-.662a1.051,1.051,0,0,1,.216-.342,1.352,1.352,0,0,0,.359-.713,1.38,1.38,0,0,0-.059-.491l-.008-.032a5.793,5.793,0,0,1-.153-.88l.137-.044a3.868,3.868,0,0,0,.517-.211,1.8,1.8,0,0,0,1.026-1.49c.405-6.329.63-12.739.847-18.937.381-10.862.774-22.094,2.157-33.143.907-7.247,1.42-18.58,1.726-25.351.07-1.538.13-2.866.18-3.821,0-.008,0-.016,0-.024l-.082-4.247c.083-.036.133-.059.15-.067a.332.332,0,0,0,.187-.3v-2.576a.327.327,0,0,0-.012-.084c.9-1.726.348-3.951-.123-5.832-.085-.341-.166-.663-.237-.977a18.246,18.246,0,0,1-.358-6.55c.231-1.733-.942-4.1-1.2-4.6.15-1.8.34-11.128.466-18.134.922,1.884,2.083,4.127,2.87,5.585l0,.009a2.516,2.516,0,0,1,.2.424,2.558,2.558,0,0,1,.08.407c.008.052.015.1.023.157.393,2.395,2.728,3.965,5.1,4.476a5.882,5.882,0,0,0,1.6.24h.067c3.345,0,5.875-2,6.163-4.893.286-2.87-.4-8.7-1-13.845C1424.965,190.565,1424.74,188.648,1424.6,187.11Zm-13.28-13.771a1.943,1.943,0,0,1,0-1.1,5.071,5.071,0,0,1,.486-.581l.028-.006a.332.332,0,0,0,.244-.4,1.135,1.135,0,0,1,.225-1.044,1.62,1.62,0,0,1,1.208-.511.326.326,0,0,0,.337-.113.332.332,0,0,0,.29.424,9.048,9.048,0,0,1,3.6,1.826.333.333,0,1,0,.443-.5,9.6,9.6,0,0,0-3.981-1.993.33.33,0,0,0-.286.119.342.342,0,0,0,.012-.067c.027-.372.166-.519.62-.656a3.446,3.446,0,0,1,1.5,0,17.642,17.642,0,0,1,3.368,1.282c.159.074.29.134.381.174.155.068.368.162.535-.033a.338.338,0,0,0,.023-.4.332.332,0,0,0-.227-.144c-.079-.033-.259-.116-.434-.2a21.625,21.625,0,0,0-3.166-1.255,1.815,1.815,0,0,1,.458-1.185.725.725,0,0,1,.591-.144,2.416,2.416,0,0,1,.775.3,27.36,27.36,0,0,1,2.691,1.695l.136.093.164.111c.6.407,1.222.827,1.376,1.492a2.721,2.721,0,0,1-.054,1.092c-.208,1.1-.468,2.214-.72,3.29a37.672,37.672,0,0,0-1.186,7.11,10.226,10.226,0,0,0,.086,1.5c.007.069.015.138.022.207h0q.042.392.084.784a19.2,19.2,0,0,1-5.2.535.328.328,0,0,0,.011-.178l-.276-1.242a7.089,7.089,0,0,0-.447-1.486c-.006-.014-.013-.028-.021-.043s-.023-.048-.035-.071-.024-.05-.038-.074-.012-.024-.019-.035l-.021-.039-.012-.02a5.988,5.988,0,0,0-.393-.572c-.1-.135-.2-.263-.281-.395a3.569,3.569,0,0,1-.266-.5.224.224,0,0,0-.01-.022,6.036,6.036,0,0,1-.38-2.794c.009-.16.022-.321.039-.48.023-.241.053-.482.086-.717a.33.33,0,0,0,.034-.238c.019-.131.039-.261.059-.388.016-.1.041-.207.067-.32a1.389,1.389,0,0,0-.292-1.55l-.657-.519a.333.333,0,0,0-.412.522l.657.519c.2.156.166.4.056.879-.028.12-.056.244-.076.367-.023.149-.046.3-.069.457a.065.065,0,0,1-.059.016C1412.442,176.011,1411.436,173.88,1411.32,173.34Zm-23.891-5.911a7.1,7.1,0,0,1-1.807-2.4,16.006,16.006,0,0,1-.787-2.185l-.472-2.68a.333.333,0,0,0-.655.115l.259,1.469-.116-.05a3.488,3.488,0,0,1-1.211-.893l-.309-.442a2.688,2.688,0,0,1-.143-.292,2.949,2.949,0,0,1-.187-1.48c.136-1.1.748-1.759,1.3-1.826q.154.441.342.865a.333.333,0,0,0,.608-.271,12.267,12.267,0,0,1-.69-7.367.333.333,0,1,0-.653-.127,13.444,13.444,0,0,0,.189,6.256,2.19,2.19,0,0,0-1.454,1.312,14.962,14.962,0,0,1-.978-4.682,12.4,12.4,0,0,1,2.157-7.1,11.466,11.466,0,0,1,6.3-4.612,5.316,5.316,0,0,1,2.379-.261,2.993,2.993,0,0,1,.7.2h0a.363.363,0,0,0,.255,0h0a2.991,2.991,0,0,1,.7-.2,5.316,5.316,0,0,1,2.378.261,11.466,11.466,0,0,1,6.3,4.612,12.4,12.4,0,0,1,2.157,7.1,14.844,14.844,0,0,1-1.008,4.763,3.037,3.037,0,0,0-.691-1.043,1.417,1.417,0,0,0-.841-.4,13.466,13.466,0,0,0,.175-6.208.333.333,0,1,0-.653.127,12.267,12.267,0,0,1-.69,7.367.333.333,0,1,0,.608.271q.2-.438.353-.895a.723.723,0,0,1,.588.216,2.733,2.733,0,0,1,.748,1.644c0,.011,0,.022,0,.033v.009a2.931,2.931,0,0,1-.193,1.435,2.6,2.6,0,0,1-.142.29l-.31.443a3.48,3.48,0,0,1-1.211.892l-.116.05.259-1.469a.333.333,0,0,0-.655-.115l-.472,2.679a15.9,15.9,0,0,1-.787,2.186,7.108,7.108,0,0,1-1.807,2.405,11.665,11.665,0,0,1-1.066.831.33.33,0,0,0-.106.07c-.077.052-.154.1-.232.155a9.2,9.2,0,0,1-2.338,1.1l-.037.01a4.751,4.751,0,0,1-.525.119l-.123.016c-.054.006-.109.011-.165.014-.085.006-.174.01-.268.011s-.2-.006-.288-.013l-.027,0c-.083-.007-.163-.015-.24-.027a4.556,4.556,0,0,1-.556-.127l-.005,0a9.461,9.461,0,0,1-2.474-1.187A11.661,11.661,0,0,1,1387.428,167.428Zm.818,5.527a.332.332,0,0,0,.145-.223,21.759,21.759,0,0,0,.208-3.609,9.72,9.72,0,0,0,2.387,1.1h0a3.634,3.634,0,0,0,.624.144l.024,0,.018,0a3.4,3.4,0,0,0,.541.047h.188a3.452,3.452,0,0,0,.55-.048l.016,0,.021,0a3.677,3.677,0,0,0,.621-.143h0l.012,0h0a9.65,9.65,0,0,0,2.26-1.027,21.506,21.506,0,0,0,.209,3.54.332.332,0,0,0,.145.223c.123.081,2.749,1.812,4.137,2.554-1.027,1.087-4.547,4.627-7.727,5.668a1.068,1.068,0,0,1-.332.054h-.13a1.067,1.067,0,0,1-.331-.054c-3.178-1.041-6.7-4.581-7.727-5.668C1385.5,174.767,1388.123,173.037,1388.246,172.955Zm-20.038,49.12a5.186,5.186,0,0,1-1.728-1.266c-.2-.193-.409-.393-.619-.573-.915-.785-1.807-1.56-2.657-2.4l-.438-.432c-1.714-1.685-3.657-3.594-4.5-5.788-.652-1.71.184-3.469.992-5.171.175-.368.355-.748.515-1.118.32-.739,1.082-2.653,2.046-5.076,1.934-4.859,4.583-11.514,5.887-14.272s2.8-5.548,5.375-6.561c.084-.033.217-.09.358-.15.172-.074.368-.158.465-.193.3-.109.634-.276,1.061-.487.548-.271,1.276-.63,2.252-1.027.415.79,1.971,3.4,4.582,3.763a114.463,114.463,0,0,1-7.2,11.667c-.009-.591-.015-.932-.015-.945a.333.333,0,0,0-.333-.328h-.005a.333.333,0,0,0-.328.338c0,.037.038,2.473.1,5.834a.329.329,0,0,0-.11.122l-.852,1.647-2.54,4.909a1.4,1.4,0,0,0-.182.532,1.376,1.376,0,0,0,.078.514l.017.058a2.682,2.682,0,0,1,.094.539l-1.4,1.06a8.336,8.336,0,0,0-2.927-1.8,5.87,5.87,0,0,0-6.621,2.473.333.333,0,1,0,.569.345A5.223,5.223,0,0,1,1366,206.1a7.849,7.849,0,0,1,2.887,1.846c.331.3.658.625.963.928l.1.1c.619.619,1.227,1.221,1.807,1.789.453.445.915.895,1.373,1.335l.2.191a4.094,4.094,0,0,1,1.557,2.309.326.326,0,0,0-.119.1.333.333,0,0,0,.063.466c1.355,1.03,1.746,1.349,1.859,1.447a.979.979,0,0,1-.057.378,3.042,3.042,0,0,1-.543-.023.332.332,0,0,0-.416-.494,8.982,8.982,0,0,0-4.624,6.072.333.333,0,0,0,.271.385.329.329,0,0,0,.057,0,.333.333,0,0,0,.328-.276c0-.006.018-.1.06-.262l.252.3.222.269a.327.327,0,0,0-.072.027l-.02.01a2.78,2.78,0,0,1-1.02.277.579.579,0,0,1-.176-.019l-1.661-1.721a.333.333,0,0,0-.479.462l.167.173A1.922,1.922,0,0,1,1368.208,222.075Zm11.671-.755a54.591,54.591,0,0,0,5.655,2.133,4.412,4.412,0,0,0,.46.131.331.331,0,0,0,.013.276.83.83,0,0,1,.059.721.891.891,0,0,1-.478.479,1.88,1.88,0,0,1-1.092-.126c-1.825-.58-3.2-1.1-5.106-1.853a.333.333,0,0,0-.245.619c1.917.76,3.306,1.283,5.15,1.869a3.638,3.638,0,0,0,.924.2.332.332,0,0,0-.141.275.74.74,0,0,1-.564.7,1.731,1.731,0,0,1-.8-.114l-.247-.076-.006,0a53.761,53.761,0,0,1-5.312-1.86.333.333,0,1,0-.334.575,46.083,46.083,0,0,0,4.926,1.756,1.319,1.319,0,0,1-.126.081,2.919,2.919,0,0,1-1.9.074l-2.732-.484c-.113-.02-.23-.037-.344-.052a3.094,3.094,0,0,1-.833-.192,3.056,3.056,0,0,1-.731-.555l-.3-.275a30.14,30.14,0,0,1-2.884-2.905l-.356-.43c-.172-.209-.35-.423-.528-.635a8.391,8.391,0,0,1,3.271-4.175,4.122,4.122,0,0,0,1.432.186.314.314,0,0,0,.031.016.331.331,0,0,0,.334-.057,3.906,3.906,0,0,0,1.027-.322c.24-.111.5-.243.744-.37a6.447,6.447,0,0,1,1.512-.644,14.131,14.131,0,0,1,2.718.186l.245.03a4.63,4.63,0,0,0,.855-.016c.529-.04,1.188-.09,1.393.161a.474.474,0,0,1,.115.37.855.855,0,0,1-.348.545,2.063,2.063,0,0,1-1.255.344c-.16,0-.32-.012-.489-.024-.135-.01-.275-.019-.416-.023a5.4,5.4,0,0,0-2.363.476l-.039-.024a.333.333,0,0,0-.353.564l.186.114.025.015a21.246,21.246,0,0,0,3.24,1.618c.29.115.585.224.871.33.482.178.98.363,1.453.574.088.039.18.075.278.112a3.638,3.638,0,0,1,.436.188l.01.005a.588.588,0,0,1,.272.255.491.491,0,0,1-.063.393,1,1,0,0,1-.588.488,1.732,1.732,0,0,1-.8-.133,56.279,56.279,0,0,1-5.517-2.069.333.333,0,0,0-.348.567Zm-1.2,6.166-1.809,1.377,0,0-1.061.808-.536.068,2.459-1.866h0l.593-.45Zm8.349-6.356c-.091-.04-.182-.076-.27-.109l10.134-7.693a.323.323,0,0,0,.051-.049l.582-.142Zm9.755-8.5-8.632-11.37,9.961,11.046Zm-.558.366-10.178,7.727c-.357-.146-.717-.28-1.069-.41-.282-.1-.574-.213-.857-.325a20.581,20.581,0,0,1-2.578-1.236,4.714,4.714,0,0,1,1.618-.243c.128,0,.255.013.39.022.172.012.35.024.53.026a2.64,2.64,0,0,0,1.664-.481,1.506,1.506,0,0,0,.6-1,1.138,1.138,0,0,0-.262-.868c-.425-.518-1.239-.457-1.958-.4a4.267,4.267,0,0,1-.724.019l-.244-.03a13.841,13.841,0,0,0-2.906-.183,6.754,6.754,0,0,0-1.709.709c-.253.13-.492.253-.719.358a3.527,3.527,0,0,1-.479.183.974.974,0,0,0-.063-.589.337.337,0,0,0-.035-.055,14.957,14.957,0,0,0-1.682-1.341c.048-1.341-.959-2.3-1.772-3.072l-.2-.188c-.364-.35-.729-.706-1.092-1.061l2.257-1.712.016-.013,11.6-8.8.008-.007Zm-10.251-13.487-11.613,8.807-.016.013-2.32,1.759c-.516-.507-1.052-1.038-1.6-1.583l-.1-.1c-.221-.22-.454-.449-.692-.676l14.333-10.881,2.019,2.66ZM1371,205.153a.874.874,0,0,1,.109-.279q1.271-2.455,2.541-4.91l.394-.761c.024,1.347.05,2.8.079,4.277l-2.99,2.27c-.017-.088-.037-.175-.062-.261l-.018-.063A.868.868,0,0,1,1371,205.153Zm13.389-9.053a.551.551,0,0,0-.566.016l-.1.077a93.677,93.677,0,0,0,1.6-14.508h.789a92.154,92.154,0,0,1-1.617,14.528Zm-1.49.717-8.12,6.165c-.07-3.708-.129-7.2-.161-9.2a114.839,114.839,0,0,0,7.688-12.41c.552.047,1.42.116,2.351.189A90.03,90.03,0,0,1,1382.9,196.817ZM1368.9,222.851a2.237,2.237,0,0,0,.64-.1l.98,1.016.024.022a.885.885,0,0,0,.584.163h.019a3.479,3.479,0,0,0,1.279-.333l.064-.031a.331.331,0,0,0,.147-.158,33.58,33.58,0,0,0,2.694,2.676l.3.274a3.593,3.593,0,0,0,.9.671,2.839,2.839,0,0,0,.754.208l-.043.157-3.1,2.35Zm11.495,107.3c.042-.087.1-.178.152-.273a1.545,1.545,0,0,0,.306-1.161,1.566,1.566,0,0,0-.344-.6.5.5,0,0,1-.174-.621l.008-.032a6.441,6.441,0,0,0,.158-.877,20.217,20.217,0,0,0,8.586-.088,20.632,20.632,0,0,0,.4,3.53,4.676,4.676,0,0,1-.574,2.449,15.878,15.878,0,0,1-2.945,2.349l-.674-2.092a2.058,2.058,0,0,0-1.743-1.415l-3.332-.351A1.959,1.959,0,0,1,1380.391,330.151Zm3.55,12.359a3.839,3.839,0,0,1-1.854,1.782,15.582,15.582,0,0,1-5.847,1.96c-2.643.371-4.7.055-6.113-.939a1.382,1.382,0,0,1-.584-.663,1.353,1.353,0,0,1,.062-.683,4.478,4.478,0,0,1,.206-.583c-.015,1.068.124,1.243.2,1.338.23.288,1.111,1.141,3.435,1.141.277,0,.574-.012.893-.039,2.141-.179,7-.875,9.674-3.532C1383.988,342.373,1383.964,342.445,1383.941,342.51Zm2.2-3.242c-.189-.062-.417-.131-.627-.18a3.379,3.379,0,0,1,.363-.606h.013c.083,0,.167-.007.251-.012Zm3.521-.821-2.856.821v-.858a10.185,10.185,0,0,0,3.038-.871Zm.349-6.977a6.719,6.719,0,0,1,.662,3.448,7.343,7.343,0,0,1-.669,1.918l-.008.017a9.6,9.6,0,0,1-3.256,1.013.334.334,0,0,0-.14-.11c.041-.031.081-.063.123-.093a.333.333,0,1,0-.386-.542,4.142,4.142,0,0,0-1.726,2.619c-.073.383-.167.834-.257,1.238l-.021.1c-2.322,3.312-8.249,4.054-10.035,4.2-2.169.181-3.432-.371-3.852-.894a5.2,5.2,0,0,1-.032-2.069l.016-.023a20.924,20.924,0,0,1,3.425-3.528c.274-.242.534-.47.78-.694.285-.258.6-.506.927-.769a9.038,9.038,0,0,0,1.949-1.89,7,7,0,0,0,.754-1.7,6.935,6.935,0,0,1,.644-1.5l.023-.037a1.166,1.166,0,0,1,.952-.552h.041l.07,0,3.483.366a1.393,1.393,0,0,1,1.179.958l.808,2.507a.333.333,0,0,0,.5.179,18.947,18.947,0,0,0,3.482-2.748A3.554,3.554,0,0,0,1390.006,331.471Zm7.763,7.8-2.856-.821-.183-.907a10.19,10.19,0,0,0,3.038.871Zm.666,0v-.8c.084,0,.168.009.251.012h.013a3.392,3.392,0,0,1,.363.606C1398.852,339.137,1398.624,339.206,1398.435,339.268Zm16.126,5.454c.076-.1.215-.27.2-1.338a4.462,4.462,0,0,1,.207.584,1.353,1.353,0,0,1,.061.683,1.383,1.383,0,0,1-.584.662c-1.414.994-3.47,1.31-6.113.939a15.584,15.584,0,0,1-5.848-1.96,3.838,3.838,0,0,1-1.854-1.782c-.023-.065-.047-.137-.072-.218,2.673,2.657,7.533,3.353,9.674,3.532.319.027.616.039.893.039C1413.45,345.863,1414.331,345.009,1414.561,344.722Zm-9.9-13.107h.027a1.164,1.164,0,0,1,.951.552l.023.037a6.925,6.925,0,0,1,.644,1.5,7,7,0,0,0,.754,1.7,9.033,9.033,0,0,0,1.949,1.89c.33.263.643.511.927.769.247.224.506.452.781.694a20.928,20.928,0,0,1,3.425,3.529l.015.023a5.309,5.309,0,0,1-.029,2.065c-.422.528-1.685,1.079-3.855.9-1.786-.15-7.712-.892-10.035-4.2l-.022-.1c-.09-.4-.184-.855-.257-1.238a4.141,4.141,0,0,0-1.726-2.619.333.333,0,1,0-.386.542c.042.03.083.062.124.093a.334.334,0,0,0-.141.11,9.613,9.613,0,0,1-3.257-1.014c0-.005,0-.011-.007-.016a7.338,7.338,0,0,1-.669-1.919,6.715,6.715,0,0,1,.662-3.448,3.556,3.556,0,0,0,.569,1.408,18.955,18.955,0,0,0,3.482,2.748.333.333,0,0,0,.5-.179l.807-2.507a1.393,1.393,0,0,1,1.179-.958l3.483-.366C1404.609,331.615,1404.637,331.614,1404.665,331.614Zm-.306-.644-3.332.351a2.059,2.059,0,0,0-1.743,1.415l-.674,2.092a15.885,15.885,0,0,1-2.945-2.349,4.677,4.677,0,0,1-.574-2.449,20.622,20.622,0,0,0,.4-3.531,15.866,15.866,0,0,0,4.277.508,21.023,21.023,0,0,0,4.309-.418,6.435,6.435,0,0,0,.158.874l.009.033a.5.5,0,0,1-.174.621,1.563,1.563,0,0,0-.343.6,1.543,1.543,0,0,0,.306,1.161c.057.1.11.186.153.274A1.958,1.958,0,0,1,1404.36,330.97Zm6.543-92.4c-1.01.406-6.208,2.22-18.4,2.22-12.256,0-17.658-2.073-18.672-2.517v-.763q.112.08.233.156c.317.242,3.349,2.214,17.99,2.155h.662c14.11,0,17.062-1.917,17.375-2.156a4.458,4.458,0,0,0,.808-.645Zm-.724-15.888a18.894,18.894,0,0,0,.369,6.785c.073.321.155.647.241.991.608,2.428,1.3,5.18-1.062,6.654a.259.259,0,0,0-.037.027,8.7,8.7,0,0,1-3.2,1.038,72.414,72.414,0,0,1-13.752.98.33.33,0,0,0-.054,0h-1.212a.327.327,0,0,0-.054,0,72.413,72.413,0,0,1-13.751-.98,8.752,8.752,0,0,1-3.192-1.034.352.352,0,0,0-.042-.031c-2.358-1.474-1.67-4.226-1.062-6.655.039-.155.076-.306.113-.454l.326.43,0,0a.311.311,0,0,0,.036.038l.007.008a.341.341,0,0,0,.05.036l.016.008a.371.371,0,0,0,.04.019l.022.006a.329.329,0,0,0,.039.009l.007,0a.311.311,0,0,0,.044,0h0l.041,0,1.859-.236a.332.332,0,0,0,.16-.066l.261-.2a24.115,24.115,0,0,1-1.224,2.816.333.333,0,1,0,.591.306,26.216,26.216,0,0,0,1.589-3.85l2.214-1.685,1.029.182a6.735,6.735,0,0,0,1.16.129,2.351,2.351,0,0,0,1.178-.279,2.263,2.263,0,0,0,.538-.431l.041.012a2.872,2.872,0,0,0,.837.159,1.476,1.476,0,0,0,.291-.028,1.4,1.4,0,0,0,1.1-1.356.33.33,0,0,0-.173-.286,1.483,1.483,0,0,0,.223-.053,1.551,1.551,0,0,0,.889-.86,1.467,1.467,0,0,0-.055-1.219l.032,0a1.636,1.636,0,0,0,1.057-.824,1.111,1.111,0,0,0,.093-.969,1.017,1.017,0,0,0-.193-.3l11.393-8.675a.465.465,0,0,0-.029-.567l-13.939-15.459a90.86,90.86,0,0,0,1.736-15.092l2.25.17h.025a.333.333,0,0,0,.024-.664l-2.5-.188a.332.332,0,0,0-.125-.025h-.2c-1.611-.123-3.45-.266-4.174-.332-2.4-.218-3.913-2.766-4.278-3.456.619-.844,3.518-4.717,5.225-5.649,1.129-.616,3-.408,4.847-.166-.027.364-.065.724-.116,1.065-.568.372-2.963,1.931-4.108,2.519a2.861,2.861,0,0,1-.653-1.653.333.333,0,1,0-.662.069,3.9,3.9,0,0,0,1.389,2.658c1.171,1.233,4.639,4.667,7.905,5.737a1.727,1.727,0,0,0,.539.087h.13a1.727,1.727,0,0,0,.539-.087c3.265-1.069,6.731-4.5,7.9-5.735a3.905,3.905,0,0,0,1.391-2.659.333.333,0,1,0-.662-.069,2.861,2.861,0,0,1-.653,1.653c-1.145-.588-3.54-2.147-4.108-2.519-.051-.34-.089-.7-.116-1.065,1.849-.241,3.718-.449,4.846.167,1.708.931,4.606,4.8,5.225,5.649-.366.69-1.873,3.237-4.278,3.456-.724.066-2.566.209-4.178.332h-.258a.331.331,0,0,0-.136.03l-2.424.183a.333.333,0,0,0,.024.664h.025l2.189-.165c.079,2.452.647,15.758,3.8,20.712a.332.332,0,0,0,.281.154h1.455a.333.333,0,0,0,.281-.511c-3.087-4.851-3.637-18.593-3.7-20.517.954-.074,1.848-.145,2.412-.193a115.028,115.028,0,0,0,7.392,11.994c-.019,1.156-.049,2.983-.086,5.136a.33.33,0,0,0,0,.176c-.127,7.222-.338,17.954-.495,19.523a.331.331,0,0,0,.039.192C1409.018,218.422,1410.4,220.987,1410.179,222.678Zm-11.1-40.993c.071,2.254.593,14.912,3.5,20.247h-.688c-2.948-4.89-3.522-17.967-3.6-20.247Zm14.852,24.826c-.008-.048-.015-.1-.022-.145a3.136,3.136,0,0,0-.1-.514,3.05,3.05,0,0,0-.247-.54l0-.009c-.96-1.777-2.475-4.723-3.429-6.75.061-3.519.1-6.179.107-6.5a.333.333,0,0,0-.328-.338h-.005a.333.333,0,0,0-.333.328c0,.02,0,.2-.008.524a114.64,114.64,0,0,1-6.9-11.245c2.708-.381,4.281-3.17,4.624-3.844,1.64.631,3.347,1.249,5.085,1.84a4.007,4.007,0,0,1,.655.351,5.014,5.014,0,0,0,.315.986h0l.008.016a4.214,4.214,0,0,0,.309.573c.1.152.2.295.307.433a5.519,5.519,0,0,1,.348.5l.009.017.021.037,0,.009.013.024a.351.351,0,0,1,.02.038l.012.023c.009.017.017.033.024.05s.008.017.013.026l0,.006a6.575,6.575,0,0,1,.4,1.353l.065.295c-.529.166-1.306.507-1.255,1.225l.091,1.235,0,0c-.582.237-1.462.6-1.35,1.581.079.693.2,1.784.33,3.046.5,4.737,1.267,11.894,1.794,14.614l0,.021a10,10,0,0,0,1.042,3.31A4.182,4.182,0,0,1,1413.934,206.51Zm11.61-.136c-.253,2.535-2.511,4.293-5.5,4.293h-.061l-.119,0a.333.333,0,0,0-.181-.064,7.546,7.546,0,0,1-1.126-.149,5.432,5.432,0,0,1-1.441-.665c-1.316-.864-1.639-2.525-1.95-4.131l0-.021c-.522-2.691-1.313-10.119-1.785-14.557-.135-1.264-.251-2.356-.33-3.051-.047-.41.274-.607.786-.825a.331.331,0,0,0,.278.152h.025a.333.333,0,0,0,.308-.356l-.129-1.76c-.009-.13.122-.318.736-.522l.061.276c-.1-.011-.207-.023-.307-.037a.333.333,0,1,0-.092.659,12.693,12.693,0,0,0,1.75.113,21.546,21.546,0,0,0,5.505-.788.333.333,0,1,0-.174-.642l-.189.049c-.01-.095-.02-.189-.031-.284a1.178,1.178,0,0,1,.689.286c.133.138.31.546.4,1.707a.333.333,0,0,0,.331.306H1423c.051.01.1.016.143.02a.582.582,0,0,1,.12.02,1.984,1.984,0,0,1,.453.254.547.547,0,0,1,.178.2.812.812,0,0,1,.035.228c0,.029,0,.059.007.088.142,1.546.367,3.468.606,5.5C1425.143,197.784,1425.823,203.577,1425.544,206.375Z" transform="translate(0 0)" fill="#000004"/>
    <path id="Trazado_239" data-name="Trazado 239" d="M1682.9,325.348a.333.333,0,1,0,.395-.536,8.385,8.385,0,0,0-3.217-1.444.333.333,0,1,0-.138.651A7.72,7.72,0,0,1,1682.9,325.348Z" transform="translate(-267.442 -152.1)" fill="#000004"/>
    <path id="Trazado_240" data-name="Trazado 240" d="M1635.5,589.879a.333.333,0,0,0-.665.025c0,.1.406,9.727,3.8,16.264a.333.333,0,1,0,.591-.306C1635.9,599.459,1635.5,589.974,1635.5,589.879Z" transform="translate(-230.237 -372.988)" fill="#000004"/>
    <path id="Trazado_241" data-name="Trazado 241" d="M1506.358,1245.684l4.153,1.647a.235.235,0,1,0,.173-.437l-4.153-1.647a.235.235,0,1,0-.173.437Z" transform="translate(-123.503 -917.06)" fill="#000004"/>
    <path id="Trazado_242" data-name="Trazado 242" d="M1503.784,1256.983a.235.235,0,0,0,.017-.469,23.7,23.7,0,0,1-3.635-.555.235.235,0,1,0-.107.457,24.176,24.176,0,0,0,3.707.566Z" transform="translate(-118.249 -925.957)" fill="#000004"/>
    <path id="Trazado_243" data-name="Trazado 243" d="M1596.224,1245.379a.235.235,0,0,0-.3-.132l-4.153,1.647a.235.235,0,1,0,.173.437l4.153-1.647A.235.235,0,0,0,1596.224,1245.379Z" transform="translate(-194.375 -917.06)" fill="#000004"/>
    <path id="Trazado_244" data-name="Trazado 244" d="M1604.635,1255.958a23.7,23.7,0,0,1-3.635.555.235.235,0,0,0,.017.469h.018a24.176,24.176,0,0,0,3.707-.566.235.235,0,1,0-.107-.457Z" transform="translate(-201.98 -925.957)" fill="#000004"/>
  </g>
</svg>
