<svg xmlns="http://www.w3.org/2000/svg" width="197.321" height="411.208" viewBox="0 0 197.321 411.208">
  <g id="Grupo_41" data-name="Grupo 41" transform="translate(-1743.957 -148.494)">
    <path id="Trazado_32" data-name="Trazado 32" d="M1885.33,491.98l-1.919-4.183a79.818,79.818,0,0,0-5.344-10.3,2.378,2.378,0,0,0-.892-.949,1.157,1.157,0,0,0-.516-.074,3.407,3.407,0,0,0-.511.069c-.121.023-.237.049-.355.074-.252.054-.519.111-.8.145l1.581,2.949a6.065,6.065,0,0,0,.4-.674.666.666,0,1,1,1.191.6A7.623,7.623,0,0,1,1877,481.33c-.012.015-.025.029-.038.044a16.38,16.38,0,0,1-5.67,3.594,15.573,15.573,0,0,1-6.031,1.608,7.4,7.4,0,0,1-1.982-.261.666.666,0,1,1,.355-1.283,5.786,5.786,0,0,0,.9.172q-.549-1.251-1.154-2.58a11.566,11.566,0,0,0-1.052,1.174,1.978,1.978,0,0,0-.47.9,2.243,2.243,0,0,0,.276,1.014c3.392,7.846,7.113,15.678,11.058,23.279a10.533,10.533,0,0,0,2.686,3.7,7.31,7.31,0,0,0,3.262,1.223,17.794,17.794,0,0,0,6.589-.4c.017-.005.034-.006.05-.01-.039-2.561-.115-5.505-.193-8.519C1885.481,500.631,1885.365,496.128,1885.33,491.98Z" transform="translate(-48.528 -216.314)" fill="#fff"/>
    <path id="Trazado_33" data-name="Trazado 33" d="M1824.812,422.072a16.2,16.2,0,0,0,4.894-2.935l-4.869-9.083a29.611,29.611,0,0,1-2.418-5.345c-.245-.81-.421-1.638-.591-2.439-.146-.689-.3-1.4-.49-2.081a17.656,17.656,0,0,0-1.643-3.633,24.026,24.026,0,0,1-1.438-2.952c-.256-.672-.5-1.36-.729-2.025a30.271,30.271,0,0,0-2.14-5.094,8.492,8.492,0,0,0-3.027-3.182.765.765,0,0,0-.846-.058,1.44,1.44,0,0,0-.46,1.349,5.933,5.933,0,0,0,.692,1.8l.073.144a35.489,35.489,0,0,1,2.307,5.491v.006a22.627,22.627,0,0,1,.771,3.289.666.666,0,0,1-1.316.2,21.18,21.18,0,0,0-.671-2.909,63.538,63.538,0,0,0-6.446-4.354l-6.834-4.218c-1.24-.766-2.917-1.346-3.721-.972a.991.991,0,0,0-.539.759,52.522,52.522,0,0,1,5.49,3.135c1.064.727,2.087,1.512,3.075,2.27.758.582,1.542,1.183,2.321,1.739a.666.666,0,0,1-.774,1.083c-.8-.57-1.591-1.178-2.357-1.766-.975-.748-1.983-1.521-3.016-2.228a44.477,44.477,0,0,0-5.538-3.119l-.018-.005-.06-.017a2.076,2.076,0,0,0-1.53.085,1.072,1.072,0,0,0-.534,1.055,2.208,2.208,0,0,0,.477.964l.055.069a3.821,3.821,0,0,1,1.764.131,43.815,43.815,0,0,1,5.9,3.293c1.067.73,2.092,1.516,3.084,2.278.755.579,1.536,1.179,2.312,1.734a.666.666,0,1,1-.774,1.083c-.795-.568-1.584-1.175-2.349-1.761-.978-.75-1.988-1.526-3.025-2.234a44.531,44.531,0,0,0-5.538-3.118,2.316,2.316,0,0,0-1.4-.031h0a1.232,1.232,0,0,0-.207.092,1.073,1.073,0,0,0-.537,1.055,2.212,2.212,0,0,0,.478.964,10.856,10.856,0,0,0,2.062,1.909,2.467,2.467,0,0,1,2.046-.892,4.4,4.4,0,0,1,2.116.742,19.627,19.627,0,0,1,4.157,3.832,22.494,22.494,0,0,0,3.144,3.1.666.666,0,0,1-.8,1.063,23.829,23.829,0,0,1-3.335-3.273,18.334,18.334,0,0,0-3.865-3.587,3.039,3.039,0,0,0-1.462-.543,1.123,1.123,0,0,0-1.013.477,1.2,1.2,0,0,0,.076,1.056,5.034,5.034,0,0,0,.927,1.163l.025.026c1.526,1.584,2.956,3.277,4.34,4.914,3.669,4.342,7.135,8.443,12.335,10.826.187.086.384.172.586.256l.005,0a7.852,7.852,0,0,0,2.23.616,3.619,3.619,0,0,0,2.548-.622.666.666,0,1,1,.815,1.052,4.717,4.717,0,0,1-2.911.923q-.287,0-.581-.028a7.175,7.175,0,0,1-.948-.16c1.936,3.515,3.533,7.018,4.871,10.09A16.421,16.421,0,0,0,1824.812,422.072Zm-6.928-16.737a.548.548,0,0,1-.775.025,10.862,10.862,0,0,1-3.372-8.666.548.548,0,0,1,1.093.082,9.888,9.888,0,0,0,3.029,7.783A.548.548,0,0,1,1817.884,405.334Z" transform="translate(-2.579 -154.639)" fill="#fff"/>
    <path id="Trazado_34" data-name="Trazado 34" d="M1955.351,1269.625a6.805,6.805,0,0,1,5.475,4.178,7.254,7.254,0,0,1,.174,2.918c.693-.506,1.686-1.309,2.5-2.016,2.507-2.182,4.932-4.508,7.208-6.913a12.685,12.685,0,0,0,2.37-3.114,7.5,7.5,0,0,0,.408-1.067,51.045,51.045,0,0,1-10.415,1.045q-2.864,0-5.818-.3a30.963,30.963,0,0,1-3.819,4.712l-.179.186-.288.3A7.679,7.679,0,0,1,1955.351,1269.625Z" transform="translate(-108.617 -735.453)" fill="#fff"/>
    <path id="Trazado_35" data-name="Trazado 35" d="M1940.6,1261.95c-.315.084-.627.161-.937.236a9.225,9.225,0,0,1-.671,1.972,13.759,13.759,0,0,1-2.6,3.454c-2.306,2.436-4.762,4.791-7.3,7-2.753,2.4-3.64,2.832-4.061,2.832a.638.638,0,0,1-.289-.074.724.724,0,0,1-.424-.669c0-.261.026-.579.056-.948a7.251,7.251,0,0,0-.074-2.576,5.5,5.5,0,0,0-4.468-3.34,6.384,6.384,0,0,0-4.346.745.656.656,0,0,1-.287.325l-.451.251a3.334,3.334,0,0,0,4.165.6,2.636,2.636,0,0,1-.408,5.24,2.688,2.688,0,0,1-.411-.032,2.626,2.626,0,0,0-3.653-.575,2.63,2.63,0,0,1-1.784-4.06h0a102.785,102.785,0,0,0-8.939,5.492c-2.941,2.241-4.261,4.238-4.243,5.145a.556.556,0,0,0,.26.489c1.373.925,19.355,2.322,26.71.563a20.762,20.762,0,0,0,6.177-5.364c.737-.923,1.6-2,2.415-2.98,2.58-3.112,3.892-4.343,4.853-4.523.017-.06.034-.12.052-.18.541-1.874,1.359-4.706.97-7.345C1940.822,1263.07,1940.72,1262.506,1940.6,1261.95Z" transform="translate(-73.333 -734.357)" fill="#fdd534"/>
    <path id="Trazado_36" data-name="Trazado 36" d="M2003.911,1297.634c-.513.619-1.047,1.277-1.557,1.91.639.1,1.184.181,1.434.217l3.229-.985a38.7,38.7,0,0,1,.323-4.833A28.557,28.557,0,0,0,2003.911,1297.634Z" transform="translate(-141.189 -755.457)" fill="#fdd534"/>
    <path id="Trazado_37" data-name="Trazado 37" d="M1941.908,1295.5a1.306,1.306,0,0,0,1.343-.657.666.666,0,0,1,1.235.194,1.3,1.3,0,1,0,.139-.883.665.665,0,0,1-1.235-.194,1.308,1.308,0,0,0-1.076-1.038h0a1.3,1.3,0,1,0-.406,2.578Z" transform="translate(-100.596 -754.772)" fill="#fff"/>
    <path id="Trazado_38" data-name="Trazado 38" d="M2085.654,266.773a48.25,48.25,0,0,1-.051,7.007,6.424,6.424,0,0,0,.817-2l0-.018c.012-.048.023-.1.033-.146,0-.019.009-.037.014-.055a5.632,5.632,0,0,0-.4-4.23A3.909,3.909,0,0,0,2085.654,266.773Z" transform="translate(-196.094 -78.009)" fill="#fff"/>
    <path id="Trazado_39" data-name="Trazado 39" d="M2001.7,256.8l.059-.006.106-.012.017,0,.073-.01c.09-.012.166-.022.24-.036a8.683,8.683,0,0,0,1.461-.369,21.125,21.125,0,0,0,8.052-5.959,19.36,19.36,0,0,0,3.9-7.752c.1-1.12.157-2.239.172-3.329.076-5.831-3.1-22.714-5.979-25.982-3.944,5.34-16.163,12.25-21.7,12.9-.09.256-.179.512-.264.768-1.487,4.5-1.461,8.768-1.434,13.289q.006.9.008,1.825v.227c0,.571,0,1.275-.015,2.056a21.048,21.048,0,0,0,2.62,4.928,23.057,23.057,0,0,0,2.095,2.191l.013.013.055.053.058.054a32.4,32.4,0,0,0,3.158,2.661C1997.044,256.241,1999.365,257.031,2001.7,256.8Zm6.278-21.57a1.579,1.579,0,1,1,1.173-1.565A1.4,1.4,0,0,1,2007.973,235.233Zm-3.374-9.287c1.251-.925,5.908-1.511,8.253.667a.47.47,0,1,1-.639.688c-2.041-1.9-6.193-1.238-7.055-.6a.47.47,0,0,1-.559-.756Zm-5.048,15.5.453-2.674a.548.548,0,1,1,1.081.183l-.424,2.508.406.88a.548.548,0,1,1-1,.459l-.477-1.034A.549.549,0,0,1,1999.551,241.443Zm1.522,7.718h0c1.283,0,3.663-1.338,4.472-1.854a.548.548,0,0,1,.59.924c-.13.083-3.2,2.026-5.062,2.026h0c-1.86,0-5.014-1.94-5.148-2.022a.548.548,0,0,1,.577-.932C1997.336,247.819,1999.786,249.159,2001.073,249.16Zm-12.441-21.274a.47.47,0,1,1-.673-.656c2.234-2.291,6.915-1.937,8.21-1.075a.47.47,0,1,1-.521.782C1994.755,226.343,1990.576,225.893,1988.632,227.886Zm4.627,7.712a1.578,1.578,0,1,1,1.175-1.564A1.4,1.4,0,0,1,1993.259,235.6Z" transform="translate(-130.663 -42.773)" fill="#fff"/>
    <path id="Trazado_40" data-name="Trazado 40" d="M2053.336,162.267a9.181,9.181,0,0,1,3.562,1.68,7.614,7.614,0,0,0,3.838-3.286.47.47,0,1,1,.8.494,8.663,8.663,0,0,1-3.807,3.469,15.992,15.992,0,0,1,1.988,2.154,7.626,7.626,0,0,0,2.364-4.391.47.47,0,1,1,.922.177,8.506,8.506,0,0,1-2.727,4.972q.317.448.625.934a5.239,5.239,0,0,0,.831-.661,7.656,7.656,0,0,0,1.674-5.763,3.181,3.181,0,0,0-1.006-1.946l-.023-.018a1.243,1.243,0,0,1-.552-1.095v-.02c-.084-3.111-2.824-4.847-4.451-5.6a9.653,9.653,0,0,0-6.807-.59,7.387,7.387,0,0,0-4.721,3.933,7.026,7.026,0,0,0-.345.906C2048.364,158.406,2052.2,160.522,2053.336,162.267Z" transform="translate(-169.645 -2.579)" fill="#fff"/>
    <path id="Trazado_41" data-name="Trazado 41" d="M2011.664,350.3c.1-.145.19-.276.278-.4a43.524,43.524,0,0,1-10.573-5.969,3.271,3.271,0,0,0,.449,1.023.666.666,0,0,1-1.058.809c-1.256-1.643-1.389-6.626-1.4-8.221a17,17,0,0,1-3.757,1.994,9.971,9.971,0,0,1-1.672.423c-.083.015-.182.029-.28.042-.027,0-.069.01-.111.014h-.006c-.053.006-.105.013-.157.017h-.009a9.042,9.042,0,0,1-.911.046,11.637,11.637,0,0,1-6.23-2.035c.053,2.705-.123,6.665-2.238,7.944a.666.666,0,0,1-.914-.225.657.657,0,0,1-.089-.246l-1.306.568-.036.015c-3.384,1.328-5.888,2.375-8.085,3.3l-.027.041a22.9,22.9,0,0,0,10.665,3.884C1991.094,354.2,2000.325,353.186,2011.664,350.3Z" transform="translate(-122.182 -124.685)" fill="#fff"/>
    <path id="Trazado_42" data-name="Trazado 42" d="M1919.214,398.452a.666.666,0,0,1,1.327.114c-.211,2.458-.356,4.942-.435,7.427a131.422,131.422,0,0,1,7.93-17.025v0c0-1.078.066-8.844,1.9-13.647-2.066.862-4.112,1.691-6.781,2.684h0l-.006,0a9.757,9.757,0,0,0-5.267,5.172c-.51,1.37-2.554,9.4-4.2,15.843-1.221,4.8-2.281,8.959-2.667,10.251a5.96,5.96,0,0,1,.589.789,80.85,80.85,0,0,1,5.437,10.465l.7,1.526c.014-3.574.116-6.227.31-8.058a25.131,25.131,0,0,1,.654-3.5C1918.7,406.483,1918.873,402.432,1919.214,398.452Zm-.356-15.909a.548.548,0,1,1,1.082.173,41.9,41.9,0,0,0-.139,11.726.548.548,0,0,1-.475.612.537.537,0,0,1-.07,0,.548.548,0,0,1-.543-.479A43.012,43.012,0,0,1,1918.858,382.543Z" transform="translate(-80.948 -149.596)" fill="#fff"/>
    <path id="Trazado_43" data-name="Trazado 43" d="M2110.76,1261.589a47.384,47.384,0,0,1-10.661,1.616c.077,3.051.9,8.884,1.448,12.45a7.806,7.806,0,0,1,2.6-3.68c1.827-1.261,6.819-3.046,9.451-1.813a3.493,3.493,0,0,1,.921.716c-.872-2.049-1.81-4.291-2.714-6.565C2111.385,1263.246,2111.04,1262.35,2110.76,1261.589Z" transform="translate(-205.655 -734.119)" fill="#fff"/>
    <path id="Trazado_44" data-name="Trazado 44" d="M1966.131,388.753c1.231,18.057,9.593,35.147,11.942,39.634,1.2-2.456,4.284-8.625,9.272-17.552a100.259,100.259,0,0,1,13.718-19.277c1.617-7.409,3.386-11.784,4.731-14.291a91.888,91.888,0,0,1-21.34,3.049,42.23,42.23,0,0,1-5.329-.315,24.086,24.086,0,0,1-11.111-4.014c-1.414,3.383-1.853,9.412-1.919,12.6A.662.662,0,0,1,1966.131,388.753Z" transform="translate(-117.275 -150.038)" fill="#fff"/>
    <path id="Trazado_45" data-name="Trazado 45" d="M1976.23,184.867a.666.666,0,0,1,1.151.669,79.919,79.919,0,0,0-5.415,10.777c5.676-1.091,17.395-7.936,20.457-12.79a9.362,9.362,0,0,0,.879-2.429.666.666,0,1,1,1.3.271,10.568,10.568,0,0,1-.773,2.3c1.948,1.87,3.534,7.583,4.551,12.241a84.189,84.189,0,0,1,2.057,14.929c-.009.73-.04,1.472-.086,2.217l0,0c.013.017.027.033.038.051a.657.657,0,0,1,.056.118v0a.646.646,0,0,1,.028.107c0,.008,0,.015,0,.022a.665.665,0,0,1,.007.113v.018a.687.687,0,0,1-.017.119v0c-.084.343-.157.625-.229.883a44.367,44.367,0,0,1-1.717,8.846,33.5,33.5,0,0,0,2.866-8.188c.236-1.057.43-2.15.576-3.25a46.342,46.342,0,0,0,.149-10.247c-.132-1.461-.332-2.991-.595-4.549a.666.666,0,0,1,1.313-.221c.247,1.468.438,2.91.573,4.3a5.112,5.112,0,0,1,1.705,1.718,5.771,5.771,0,0,1,.77,2.37,24.945,24.945,0,0,0,.733-19.357,28.286,28.286,0,0,0-2.164-4.52c-.372-.623-.76-1.209-1.154-1.742a14.072,14.072,0,0,0-2.759-2.892,7.786,7.786,0,0,0-3.391-1.557.666.666,0,0,1-.488-.371c-.6-1.261-4.71-3.75-7.758-4.4h0q-.273-.06-.525-.095a23.024,23.024,0,0,0-17.572,4.931,25.828,25.828,0,0,0-9.6,17.778,17.974,17.974,0,0,0,.147,4.458c.119-1.138.313-2.355.592-3.711,1.724-8.384,6.282-14.928,12.505-17.954a.666.666,0,0,1,.582,1.2c-5.849,2.843-10.144,9.049-11.783,17.025a25.839,25.839,0,0,0-.608,7.951,20.8,20.8,0,0,0,.477,2.862c.5,2.093,1.185,4.181,1.852,6.2.614,1.859,1.249,3.781,1.74,5.723a22.467,22.467,0,0,1,.76,6.876,29.433,29.433,0,0,0,.932-7.663c.018-.82.017-1.563.017-2.16v-.227c0-.613,0-1.218-.008-1.817-.028-4.633-.054-9.008,1.5-13.714A72.174,72.174,0,0,1,1976.23,184.867Z" transform="translate(-113.997 -14.266)" fill="#fff"/>
    <path id="Trazado_46" data-name="Trazado 46" d="M2128.257,1303.6h0a1.308,1.308,0,0,0-1.075,1.038.666.666,0,0,1-1.235.194,1.3,1.3,0,0,0-2.428.834,1.3,1.3,0,0,0,1.491,1.086,1.308,1.308,0,0,0,1.076-1.038.666.666,0,0,1,1.235-.194,1.3,1.3,0,1,0,1.907-1.687A1.3,1.3,0,0,0,2128.257,1303.6Z" transform="translate(-221.09 -761.817)" fill="#fff"/>
    <path id="Trazado_47" data-name="Trazado 47" d="M2101.6,594.688a16.653,16.653,0,0,0-8.09-6.061c-1.666,2.343-3.45,4.631-5.315,6.817a8.941,8.941,0,0,1,5.115,2.5.665.665,0,0,1-.949.933c-2.318-2.356-5.732-2.366-9.035-2.374-1.13,0-2.3-.007-3.406-.105h-.009l-.18-.015c-.242-.024-.5-.056-.772-.089a7.35,7.35,0,0,0-3.344.062,7.245,7.245,0,0,0-2.14,1.84c-.178.195-.349.382-.513.552l-6.978,7.245c-.493.512-.94,1.051-.873,1.533.047.338.265.458.828.693a2.075,2.075,0,0,1,1.295,1.052c.291.728-.241,1.644-.8,2.614a6.239,6.239,0,0,0-.488.939,1.632,1.632,0,0,0,.345,1.408.432.432,0,0,0,.436.165.665.665,0,0,1,.8.689.346.346,0,0,0,.113.283,2.235,2.235,0,0,0,1.506.442c3.175-.075,5.042-1.622,7.406-3.581.4-.332.814-.675,1.246-1.019a24.736,24.736,0,0,1,4.586-2.894c.019-.01.037-.02.057-.028.687-.333,1.388-.638,2.106-.908a.934.934,0,0,1,1.078,1.261,27.6,27.6,0,0,1-2.062,2.434l-.013.014c-.418.444-.832.862-1.241,1.276a32.762,32.762,0,0,0-3.2,3.585,7.686,7.686,0,0,0-1.186,1.959,2.1,2.1,0,0,0,.108,1.82c.285.424.5.43.564.433.753.021,1.975-1.568,2.629-2.422.268-.35.5-.652.7-.871a16.738,16.738,0,0,1,2.811-2.389,14.54,14.54,0,0,0,2.7-2.324c4.2-4.792,8.294-9.788,12.176-14.85.657-.854,1.314-1.72,1.955-2.577C2101.581,594.711,2101.593,594.7,2101.6,594.688ZM2066.855,608.5a.665.665,0,0,1,.1-.936,51.943,51.943,0,0,0,5.777-5.5l.051-.057a5.946,5.946,0,0,1,1.713-1.464,5.853,5.853,0,0,1,1.36-.426l5.47-1.216a.665.665,0,1,1,.289,1.3l-5.469,1.216a4.707,4.707,0,0,0-1.058.32,4.8,4.8,0,0,0-1.314,1.161l-.052.057a53.347,53.347,0,0,1-5.926,5.643.665.665,0,0,1-.936-.1Zm16.042-4.181-4.272,1.427a7.209,7.209,0,0,0-4.161,2.56l-.1.111a65.59,65.59,0,0,1-5.759,5.575.666.666,0,0,1-.866-1.012,64.144,64.144,0,0,0,5.642-5.461l.1-.11a8.463,8.463,0,0,1,4.723-2.926l4.272-1.427a.666.666,0,0,1,.422,1.263Z" transform="translate(-182.577 -290.281)" fill="#fff"/>
    <path id="Trazado_48" data-name="Trazado 48" d="M2124.977,417.736a138.729,138.729,0,0,0-9.375-10.54c-2.806-2.941-5.709-5.983-8.529-9.454-.751-.925-1.508-1.882-2.24-2.808-4.211-5.327-8.565-10.835-14.713-13.9-2.459-1.224-5.077-2.268-7.848-3.373q-.957-.381-1.919-.768-.7.191-1.4.373c-1.223,1.838-3.481,6.246-5.5,15.729,2.856,15.338,6.461,23.341,9,27.366a16.335,16.335,0,0,0,3.815,4.451l1.876-15.443q-1.243-.943-2.509-1.866a.665.665,0,1,1,.783-1.076q1.336.972,2.65,1.973a.66.66,0,0,1,.343.263c.634.485,1.263.971,1.881,1.458,2.77,2.185,5.531,4.524,8.207,6.95,1.307,1.185,2.6,2.418,3.859,3.611,1.356,1.289,2.757,2.619,4.171,3.89l.266-.451.656-1.113a.666.666,0,1,1,1.146.677l-.655,1.112c-3.694,6.27-9.878,16.765-14.023,22.119a2.642,2.642,0,0,0-.695,1.32,2.389,2.389,0,0,0,.6,1.36c.446.6.687.894,1.083,1.353q.893-1.166,1.748-2.357a16.638,16.638,0,0,0-1.751-.32.666.666,0,1,1,.171-1.32c5.517.71,9.981,3.739,13.267,9a.666.666,0,1,1-1.129.705q-.151-.243-.306-.478-.567.755-1.143,1.51c.1.028.2.057.3.083a2.407,2.407,0,0,0,1.5.09,2.373,2.373,0,0,0,.782-.774c2.511-3.325,5.784-7.742,8.845-12.438.5-.762,1.076-1.613,1.691-2.514,3.748-5.5,9.414-13.809,7.9-19.594A13.89,13.89,0,0,0,2124.977,417.736ZM2090.313,384.4a5.217,5.217,0,0,0-1.655,2.52,52.981,52.981,0,0,0-3.569,14.952.548.548,0,0,1-.545.5l-.049,0a.548.548,0,0,1-.5-.595,54.028,54.028,0,0,1,3.643-15.262,6.2,6.2,0,0,1,2.064-3.025.548.548,0,1,1,.609.912Zm20.293,36.171a.548.548,0,0,1-.489-.795,13.345,13.345,0,0,1,4.328-4.971.548.548,0,1,1,.623.9,12.248,12.248,0,0,0-3.972,4.562A.548.548,0,0,1,2110.606,420.569Zm12.028-1.25a33.2,33.2,0,0,0-8.8,1.988.556.556,0,0,1-.193.035.548.548,0,0,1-.192-1.062,34.324,34.324,0,0,1,9.093-2.054.548.548,0,1,1,.094,1.093Z" transform="translate(-188.077 -150.639)" fill="#fff"/>
    <path id="Trazado_49" data-name="Trazado 49" d="M1986.516,505.918c-.256.233-.514.484-.775.77-.161.176-.376.456-.624.781-.952,1.246-2.251,2.945-3.673,2.946h-.055a2.02,2.02,0,0,1-1.63-1.022,3.42,3.42,0,0,1-.259-3,8.807,8.807,0,0,1,1.377-2.32,34.356,34.356,0,0,1,3.317-3.723c.333-.337.661-.669.986-1.008q-.058-.267-.118-.533a23.46,23.46,0,0,0-3.6,2.363c-.422.336-.831.676-1.226,1-2.359,1.955-4.587,3.8-8.224,3.887h-.1a3.443,3.443,0,0,1-2.4-.849,1.748,1.748,0,0,1-.379-.586,1.844,1.844,0,0,1-.977-.554,2.958,2.958,0,0,1-.675-2.661,5.9,5.9,0,0,1,.626-1.276,6.013,6.013,0,0,0,.705-1.475,1.934,1.934,0,0,0-.557-.295,2.222,2.222,0,0,1-1.634-1.737,3.353,3.353,0,0,1,1.232-2.64l6.978-7.245c.156-.162.319-.341.488-.526a8.133,8.133,0,0,1,2.616-2.174,8.354,8.354,0,0,1,4.015-.152l.042.005c-.146-1.031-.252-1.963-.32-2.828a.753.753,0,0,1,0-.085c.445-9.007,1.852-23.1,2.136-25.89-2.035-1.034-9.277-6.478-14.254-32.8a101.78,101.78,0,0,0-12.919,18.361c-6.513,11.656-9.767,18.582-9.8,18.651a.666.666,0,0,1-1.182.046,109.021,109.021,0,0,1-5.815-12.61,103.007,103.007,0,0,1-6.725-26.528c-2.117,3.917-6.829,13.067-8.637,20.1h0l0,.007c0,.01,0,.019-.006.028a24.058,24.058,0,0,0-.641,3.391,108.083,108.083,0,0,0-.3,10.961v.015c.034,4.176.151,8.728.264,13.129.2,7.656.367,14.268.027,16.427-1.419,9.927-6.054,44.443-6.054,71.436,0,14.879,1.5,44.585,2.831,70.793.37,7.317.725,14.327,1.032,20.7a198.006,198.006,0,0,0,10.974,47.422.548.548,0,0,1-1.03.377,199.231,199.231,0,0,1-9.383-35.527c.352,8.317.534,14.531.424,17.388-.428,11.166-2.016,24.093-2.363,26.822a58.661,58.661,0,0,0,13.51,3.061,51.852,51.852,0,0,0,17.251-.909c.644-.147,1.307-.316,1.972-.5,1-.279,1.991-.6,2.963-.947l-4.107-133.624a.658.658,0,0,1,.059-.289,349.449,349.449,0,0,1-4.571-40.566.548.548,0,1,1,1.094-.07,348.547,348.547,0,0,0,4.556,40.44.662.662,0,0,1,.191.411c.068.833,6.791,83.477,6.791,96.449,0,11.951,1.128,34.1,1.309,37.575A60.329,60.329,0,0,0,1978.284,707c.291,0,.582-.009.874-.017a46.032,46.032,0,0,0,11.58-1.757,36.214,36.214,0,0,0,9.576-4.354c-.536-5.887-6.758-74.533-6.758-87.934,0-14.937-3.964-87.646-6.661-104.78C1986.783,507.443,1986.656,506.691,1986.516,505.918Z" transform="translate(-85.405 -179.206)" fill="#fdd534"/>
    <path id="Trazado_50" data-name="Trazado 50" d="M2111.131,1283.188c-1.863-.873-6.253.407-8.131,1.7-1.314.907-2.329,2.932-2.857,5.7-.106.556-.427.674-.681.674h-.01a.668.668,0,0,1-.649-.558c-.014-.084-1.026-6.172-1.585-11.2-.075,8.545.242,14.045.917,15.686.706,1.714,3.161,4.046,6.407,6.085,3.045,1.912,6.076,3.13,7.54,3.021,1.094-.078,4.862-1.04,5.316-1.71,2.032-2.99,1.247-9.048.812-10.935a30.3,30.3,0,0,0-2.52-5l.462,1.175a.666.666,0,0,1-1.2.57C2113.864,1286.469,2111.956,1283.575,2111.131,1283.188Zm2.591,5.415a2.636,2.636,0,1,1-1.052-1.721A2.619,2.619,0,0,1,2113.722,1288.6Z" transform="translate(-203.748 -745.94)" fill="#fdd534"/>
    <path id="Trazado_51" data-name="Trazado 51" d="M1933.487,408.164a.539.539,0,0,0,.07,0,.548.548,0,0,0,.475-.612,41.89,41.89,0,0,1,.139-11.726.548.548,0,0,0-1.083-.173,43.026,43.026,0,0,0-.144,12.037A.548.548,0,0,0,1933.487,408.164Z" transform="translate(-95.178 -162.701)" fill="#000004"/>
    <path id="Trazado_52" data-name="Trazado 52" d="M2040.054,249.5c.863-.638,5.015-1.3,7.055.6a.47.47,0,1,0,.639-.688c-2.345-2.178-7-1.592-8.253-.667a.47.47,0,1,0,.558.756Z" transform="translate(-165.56 -65.569)" fill="#000004"/>
    <path id="Trazado_53" data-name="Trazado 53" d="M2025.545,291.155a.548.548,0,0,0,1-.459l-.406-.88.425-2.508a.548.548,0,1,0-1.081-.183l-.453,2.674a.549.549,0,0,0,.043.321Z" transform="translate(-156.136 -91.131)" fill="#000004"/>
    <path id="Trazado_54" data-name="Trazado 54" d="M2047.273,268.611a1.579,1.579,0,1,0,1.25,1.5A1.4,1.4,0,0,0,2047.273,268.611Z" transform="translate(-170.04 -79.221)" fill="#000004"/>
    <path id="Trazado_55" data-name="Trazado 55" d="M1998.422,250.466a.47.47,0,0,0,.521-.782c-1.3-.862-5.976-1.215-8.21,1.075a.47.47,0,1,0,.673.656C1993.35,249.422,1997.53,249.873,1998.422,250.466Z" transform="translate(-133.437 -66.302)" fill="#000004"/>
    <path id="Trazado_56" data-name="Trazado 56" d="M2004.06,269.683a1.578,1.578,0,1,0,1.25,1.5A1.4,1.4,0,0,0,2004.06,269.683Z" transform="translate(-141.539 -79.928)" fill="#000004"/>
    <path id="Trazado_57" data-name="Trazado 57" d="M2013.7,313.095a.548.548,0,0,0,.178.754c.133.082,3.287,2.02,5.148,2.022h0c1.866,0,4.932-1.943,5.062-2.026a.548.548,0,0,0-.59-.924c-.809.516-3.189,1.854-4.472,1.854h0c-1.287,0-3.737-1.342-4.573-1.858A.548.548,0,0,0,2013.7,313.095Z" transform="translate(-148.62 -108.388)" fill="#000004"/>
    <path id="Trazado_58" data-name="Trazado 58" d="M1856.515,422.393a.548.548,0,0,0-1.093-.082,10.861,10.861,0,0,0,3.372,8.666.548.548,0,0,0,.75-.8A9.888,9.888,0,0,1,1856.515,422.393Z" transform="translate(-44.263 -180.256)" fill="#000004"/>
    <path id="Trazado_59" data-name="Trazado 59" d="M1937.949,266.279a139.759,139.759,0,0,0-9.462-10.641c-2.789-2.923-5.672-5.945-8.459-9.375-.745-.918-1.5-1.872-2.229-2.794-4.3-5.442-8.75-11.069-15.164-14.262-2.508-1.249-5.274-2.351-7.948-3.418-.862-.344-1.729-.689-2.594-1.042a.861.861,0,0,0-1.4-.6l-.02.017c-4.241-1.785-8.358-3.82-11.609-6.767a.66.66,0,0,0-.278-.147,33.42,33.42,0,0,1-.278-4.857.659.659,0,0,0-.128-.4,24.2,24.2,0,0,0,3.675-3.491,19.105,19.105,0,0,0,2.008-2.879,29.013,29.013,0,0,1-3.445,9l-.009.013-.283.44a.665.665,0,0,0,1.114.728c.088-.131.175-.266.259-.4,3.428-3.694,5.65-8.216,6.991-14.223.226-1.011.412-2.055.559-3.105a7.315,7.315,0,0,0,2.338-3.877c4.289-6.439,5.164-15.243,2.276-23.011a29.883,29.883,0,0,0-1.928-4.15,6.561,6.561,0,0,0,1.08-.857,8.924,8.924,0,0,0,2.053-6.936,4.5,4.5,0,0,0-1.478-2.755l-.031-.025-.052-.042c0-.016,0-.033,0-.048v-.022c-.076-2.836-1.93-5.242-5.219-6.775a10.979,10.979,0,0,0-7.746-.66,8.7,8.7,0,0,0-5.55,4.646,8.307,8.307,0,0,0-.444,1.189,24.339,24.339,0,0,0-18.572,5.209,27.167,27.167,0,0,0-10.1,18.7,19.512,19.512,0,0,0,1.446,9.319,22.138,22.138,0,0,0,.5,2.94c.509,2.149,1.208,4.264,1.884,6.31.607,1.837,1.234,3.736,1.713,5.632a21.036,21.036,0,0,1,.364,9.6.666.666,0,0,0,1.086.624c1.5-1.272,2.4-4.054,2.733-8.464a21.12,21.12,0,0,0,1.687,2.752l.02.026a24.028,24.028,0,0,0,2.221,2.329l.081.078.048.045a34.938,34.938,0,0,0,3.033,2.58c.057,1.578.118,4.575-.593,6.407a.667.667,0,0,0-.066.021l-2.592,1.125c-.185.081-.335.146-.455.207l0-.006c-2.753,1.08-4.924,1.974-6.821,2.768a.85.85,0,0,0-.111-.159.861.861,0,0,0-1.216-.067,5.447,5.447,0,0,0-.969,1.19l-.16.067-.031.013c-2.487,1.045-4.771,1.991-7.929,3.165l0,0a11.08,11.08,0,0,0-6.057,5.958c-.535,1.436-2.5,9.163-4.238,15.979-1.073,4.216-2.093,8.221-2.544,9.825a2.583,2.583,0,0,0-.833-.085,4.629,4.629,0,0,0-.7.093c-.126.025-.252.052-.38.079a3.362,3.362,0,0,1-1.224.124l-2.33-4.346a28.589,28.589,0,0,1-2.317-5.1c-.229-.756-.4-1.557-.563-2.331-.151-.711-.307-1.446-.511-2.167a18.931,18.931,0,0,0-1.755-3.908,22.713,22.713,0,0,1-1.362-2.788c-.249-.655-.487-1.335-.718-1.991a31.274,31.274,0,0,0-2.242-5.317,9.818,9.818,0,0,0-3.517-3.672,2.07,2.07,0,0,0-2.254-.008,2.741,2.741,0,0,0-1.035,2.635,7,7,0,0,0,.824,2.225l.073.143c.588,1.161,1.07,2.21,1.471,3.2-1.613-1.154-3.295-2.193-4.937-3.207l-6.833-4.217c-.519-.32-3.2-1.876-4.982-1.047a2.318,2.318,0,0,0-1.266,1.64,3.063,3.063,0,0,0-1.775.347,2.4,2.4,0,0,0-1.195,2.4,3.236,3.236,0,0,0,.606,1.4,2.392,2.392,0,0,0-.841,2.152,3.424,3.424,0,0,0,.734,1.579,13.455,13.455,0,0,0,2.691,2.449,2.818,2.818,0,0,0,.3,1.221,6.085,6.085,0,0,0,1.161,1.494l.024.026c1.5,1.553,2.912,3.229,4.282,4.85,3.6,4.263,7.327,8.671,12.8,11.177.131.06.266.12.4.18,1.333,2.314,2.514,4.651,3.566,6.886a13.015,13.015,0,0,0-1.512,1.631,3.1,3.1,0,0,0-.743,1.582,3.309,3.309,0,0,0,.38,1.677c3.4,7.872,7.138,15.732,11.1,23.361a11.556,11.556,0,0,0,3.074,4.157,8.586,8.586,0,0,0,3.845,1.468,15.231,15.231,0,0,0,2.345.162,19.1,19.1,0,0,0,4.523-.508,51.16,51.16,0,0,1-.169,6.3c-1.424,9.958-6.069,44.553-6.069,71.634,0,14.913,1.5,44.636,2.832,70.86.169,3.325.334,6.586.492,9.752a.545.545,0,0,0-.053.259q.125,2.48.313,4.954c.845,17.083,1.443,30.662,1.265,35.279-.477,12.433-2.4,27.073-2.419,27.219a.666.666,0,0,0,.406.7,56.266,56.266,0,0,0,13.275,3.209,31.132,31.132,0,0,1-3.291,3.956l-.18.187c-.65.676-1.323,1.376-2.029,1.98a11.435,11.435,0,0,1-1.271.829,12.091,12.091,0,0,0-1.583,1.055,105.453,105.453,0,0,0-9.223,5.667c-1.131.861-4.814,3.856-4.767,6.231a1.876,1.876,0,0,0,.827,1.553c1.237.865,8.057,1.371,11.892,1.534,1.19.05,3.019.109,5.087.109a51.73,51.73,0,0,0,10.882-.895.668.668,0,0,0,.128-.045,21.222,21.222,0,0,0,6.585-5.621c1.2.2,2.339.361,2.351.362a.636.636,0,0,0,.093.007.668.668,0,0,0,.194-.029l3.841-1.172a.665.665,0,0,0,.471-.638,33.567,33.567,0,0,1,.464-5.893c.069-.266.157-.571.26-.925a19.112,19.112,0,0,0,1.008-7.908c-.091-.62-.2-1.24-.334-1.85.981-.29,1.957-.613,2.907-.968a.665.665,0,0,0,.433-.644l-3.278-106.646c1.986,25.54,4.614,60.876,4.614,68.957,0,12.964,1.322,37.859,1.335,38.109a.666.666,0,0,0,.454.6,59.384,59.384,0,0,0,17.187,2.494c-.172,8.111-.134,18,.95,20.633,1.734,4.211,11.106,9.937,15.018,9.937.088,0,.173,0,.256-.009.389-.028,5.365-.877,6.323-2.29,2.31-3.4,1.51-9.8,1.008-11.982-.271-1.173-1.652-3.6-3.563-6.951-1.509-2.649-3.219-5.65-4.818-8.8-.4-1-.727-1.853-.994-2.577a37.244,37.244,0,0,0,9.592-4.536.665.665,0,0,0,.294-.615c-.068-.742-6.788-74.337-6.788-88.21,0-14.962-3.974-87.812-6.677-104.986-.149-.949-.323-1.956-.518-3,.216-.161.435-.318.656-.477a15.863,15.863,0,0,0,2.921-2.527c4.116-4.7,8.134-9.593,11.95-14.553.278.082.556.161.83.234a5.453,5.453,0,0,0,1.375.225,2.4,2.4,0,0,0,1.013-.21,3.491,3.491,0,0,0,1.3-1.184c2.522-3.341,5.813-7.783,8.9-12.512.489-.75,1.066-1.6,1.676-2.491,3.885-5.7,9.756-14.31,8.085-20.681A14.932,14.932,0,0,0,1937.949,266.279Zm-47.572-72.722c-.005.018-.01.036-.014.055-.01.049-.021.1-.034.146l0,.018a6.421,6.421,0,0,1-.817,2,48.3,48.3,0,0,0,.051-7.007,3.951,3.951,0,0,1,.416.563A5.632,5.632,0,0,1,1890.378,193.557ZM1876.2,154.126a7.388,7.388,0,0,1,4.721-3.933,9.654,9.654,0,0,1,6.807.59c1.626.758,4.366,2.494,4.451,5.6v.02a1.244,1.244,0,0,0,.552,1.095l.023.018a3.18,3.18,0,0,1,1.006,1.946,7.655,7.655,0,0,1-1.674,5.763,5.248,5.248,0,0,1-.831.661q-.308-.485-.625-.934a8.5,8.5,0,0,0,2.726-4.972.47.47,0,1,0-.922-.177,7.621,7.621,0,0,1-2.364,4.391,15.95,15.95,0,0,0-1.988-2.154,8.665,8.665,0,0,0,3.808-3.469.47.47,0,0,0-.8-.494,7.614,7.614,0,0,1-3.838,3.286,9.182,9.182,0,0,0-3.562-1.68c-1.14-1.745-4.972-3.86-7.836-4.656A7.009,7.009,0,0,1,1876.2,154.126Zm-21.793,43.415c0,.6.007,1.2.008,1.817v.227c0,.6,0,1.34-.017,2.16a29.434,29.434,0,0,1-.932,7.663,22.471,22.471,0,0,0-.76-6.876c-.49-1.942-1.125-3.864-1.74-5.723-.667-2.019-1.357-4.107-1.852-6.2a20.8,20.8,0,0,1-.477-2.862,25.838,25.838,0,0,1,.608-7.951c1.64-7.976,5.934-14.181,11.783-17.025a.666.666,0,0,0-.582-1.2c-6.224,3.026-10.781,9.57-12.505,17.954-.278,1.356-.473,2.573-.592,3.711a17.974,17.974,0,0,1-.146-4.458,25.827,25.827,0,0,1,9.6-17.778,23.023,23.023,0,0,1,17.572-4.931q.253.034.525.095h0c3.048.651,7.16,3.139,7.758,4.4a.666.666,0,0,0,.488.371,7.785,7.785,0,0,1,3.39,1.557,14.064,14.064,0,0,1,2.759,2.892c.394.533.782,1.119,1.154,1.742a28.283,28.283,0,0,1,2.164,4.52,24.946,24.946,0,0,1-.733,19.357,5.776,5.776,0,0,0-.77-2.37,5.113,5.113,0,0,0-1.705-1.718c-.134-1.388-.325-2.83-.573-4.3a.666.666,0,0,0-1.312.221c.262,1.558.463,3.089.595,4.549a46.328,46.328,0,0,1-.149,10.247c-.146,1.1-.34,2.193-.576,3.25a33.5,33.5,0,0,1-2.866,8.188,44.359,44.359,0,0,0,1.717-8.846c.072-.258.146-.54.229-.883v0a.653.653,0,0,0,.017-.119v-.018a.665.665,0,0,0-.007-.113c0-.008,0-.015,0-.022a.672.672,0,0,0-.028-.107v0a.684.684,0,0,0-.056-.118c-.011-.018-.026-.034-.038-.051l0,0c.047-.746.077-1.488.086-2.217a84.169,84.169,0,0,0-2.057-14.929c-1.016-4.658-2.6-10.37-4.551-12.241a10.576,10.576,0,0,0,.773-2.3.666.666,0,1,0-1.3-.271,9.363,9.363,0,0,1-.88,2.429c-3.062,4.853-14.781,11.7-20.457,12.79a79.875,79.875,0,0,1,5.415-10.777.666.666,0,0,0-1.151-.669,72.2,72.2,0,0,0-6.326,13.225C1854.353,188.533,1854.379,192.909,1854.407,197.541Zm6.165,11.339-.058-.054-.055-.053-.014-.013a23.058,23.058,0,0,1-2.095-2.191,21.044,21.044,0,0,1-2.62-4.928c.015-.781.015-1.485.015-2.056v-.227q0-.923-.008-1.825c-.027-4.521-.053-8.79,1.434-13.289.085-.257.173-.513.264-.768,5.536-.651,17.755-7.561,21.7-12.9,2.882,3.268,6.054,20.151,5.979,25.982-.014,1.09-.073,2.209-.172,3.329a19.358,19.358,0,0,1-3.9,7.751,21.124,21.124,0,0,1-8.052,5.959,8.7,8.7,0,0,1-1.461.369c-.075.014-.151.025-.241.036-.021,0-.042.006-.073.01l-.017,0-.106.012-.059.006c-2.33.228-4.651-.562-7.3-2.488A32.432,32.432,0,0,1,1860.573,208.881Zm-9.193,15.836c2.2-.923,4.7-1.971,8.085-3.3l.036-.015,1.306-.568a.657.657,0,0,0,.089.247.666.666,0,0,0,.914.225c2.115-1.279,2.292-5.239,2.238-7.944a11.636,11.636,0,0,0,6.23,2.035,9.038,9.038,0,0,0,.911-.046h.01c.052,0,.1-.011.157-.017h.006c.042,0,.084-.01.111-.014.1-.013.2-.027.28-.042a9.984,9.984,0,0,0,1.672-.423,17.007,17.007,0,0,0,3.757-1.994c.009,1.6.142,6.579,1.4,8.221a.666.666,0,0,0,1.057-.809,3.274,3.274,0,0,1-.449-1.023,43.522,43.522,0,0,0,10.573,5.969c-.088.12-.18.252-.278.4-11.339,2.885-20.57,3.9-27.464,3.026a22.905,22.905,0,0,1-10.665-3.884Zm-.641,1.232a24.086,24.086,0,0,0,11.111,4.014,42.23,42.23,0,0,0,5.329.315,91.887,91.887,0,0,0,21.34-3.049c-1.344,2.507-3.114,6.883-4.731,14.291a100.242,100.242,0,0,0-13.718,19.277c-4.988,8.927-8.074,15.1-9.272,17.552-2.349-4.486-10.711-21.577-11.942-39.634a.657.657,0,0,0-.036-.171C1848.886,235.361,1849.325,229.331,1850.739,225.948ZM1812.593,258.8a7.172,7.172,0,0,0,.948.16q.294.029.58.028a4.717,4.717,0,0,0,2.911-.923.666.666,0,0,0-.815-1.052,3.619,3.619,0,0,1-2.548.622,7.846,7.846,0,0,1-2.23-.616l-.005,0c-.2-.084-.4-.171-.586-.256-5.2-2.383-8.666-6.484-12.335-10.826-1.384-1.637-2.814-3.33-4.34-4.914l-.024-.026a5.028,5.028,0,0,1-.927-1.163,1.2,1.2,0,0,1-.076-1.056,1.123,1.123,0,0,1,1.013-.477,3.04,3.04,0,0,1,1.462.543,18.342,18.342,0,0,1,3.865,3.587,23.807,23.807,0,0,0,3.335,3.273.666.666,0,1,0,.8-1.063,22.489,22.489,0,0,1-3.144-3.1,19.627,19.627,0,0,0-4.157-3.832,4.4,4.4,0,0,0-2.116-.742,2.467,2.467,0,0,0-2.046.892,10.84,10.84,0,0,1-2.062-1.909,2.208,2.208,0,0,1-.478-.964,1.073,1.073,0,0,1,.536-1.055,1.216,1.216,0,0,1,.207-.092h0a2.315,2.315,0,0,1,1.4.031,44.546,44.546,0,0,1,5.538,3.118c1.036.709,2.047,1.484,3.025,2.235.764.586,1.554,1.193,2.348,1.761a.666.666,0,0,0,.774-1.083c-.776-.555-1.557-1.154-2.312-1.734-.992-.761-2.017-1.548-3.084-2.278a43.809,43.809,0,0,0-5.9-3.293,3.82,3.82,0,0,0-1.764-.131c-.018-.023-.038-.047-.055-.069a2.211,2.211,0,0,1-.477-.964,1.073,1.073,0,0,1,.534-1.055,2.075,2.075,0,0,1,1.53-.085l.06.017.018.005a44.473,44.473,0,0,1,5.538,3.119c1.033.706,2.041,1.48,3.016,2.228.767.588,1.56,1.2,2.357,1.766a.666.666,0,1,0,.774-1.083c-.779-.556-1.563-1.158-2.321-1.739-.989-.759-2.011-1.543-3.075-2.27a52.508,52.508,0,0,0-5.49-3.135.99.99,0,0,1,.539-.759c.8-.374,2.48.206,3.72.972l6.834,4.218a63.5,63.5,0,0,1,6.445,4.354,21.165,21.165,0,0,1,.672,2.909.666.666,0,1,0,1.316-.2,22.659,22.659,0,0,0-.771-3.289v-.006a35.51,35.51,0,0,0-2.307-5.491l-.073-.144a5.927,5.927,0,0,1-.691-1.8,1.44,1.44,0,0,1,.46-1.349.765.765,0,0,1,.846.058,8.491,8.491,0,0,1,3.027,3.182,30.264,30.264,0,0,1,2.14,5.094c.233.665.474,1.352.729,2.025a24.045,24.045,0,0,0,1.438,2.952,17.647,17.647,0,0,1,1.643,3.633c.192.678.344,1.391.49,2.081.17.8.346,1.63.591,2.439a29.634,29.634,0,0,0,2.418,5.345l4.87,9.083a16.2,16.2,0,0,1-4.894,2.934,16.423,16.423,0,0,1-4.769,1.458C1816.126,265.819,1814.529,262.316,1812.593,258.8Zm24.614,38.4a17.793,17.793,0,0,1-6.59.4,7.309,7.309,0,0,1-3.262-1.223,10.534,10.534,0,0,1-2.686-3.7c-3.946-7.6-7.666-15.432-11.059-23.279a2.241,2.241,0,0,1-.276-1.014,1.974,1.974,0,0,1,.47-.9,11.541,11.541,0,0,1,1.052-1.174q.607,1.327,1.155,2.58a5.789,5.789,0,0,1-.905-.172.666.666,0,1,0-.355,1.283,7.4,7.4,0,0,0,1.982.261,15.575,15.575,0,0,0,6.031-1.608,16.381,16.381,0,0,0,5.67-3.594c.013-.014.026-.028.038-.044a7.617,7.617,0,0,0,1.167-1.694.666.666,0,1,0-1.191-.6,6.093,6.093,0,0,1-.4.674l-1.581-2.949c.277-.034.545-.091.8-.145.117-.025.234-.051.355-.074a3.4,3.4,0,0,1,.511-.069,1.157,1.157,0,0,1,.515.074,2.375,2.375,0,0,1,.892.949,79.856,79.856,0,0,1,5.344,10.3l1.919,4.183c.035,4.149.151,8.652.263,13.009.077,3.014.153,5.958.193,8.519C1837.24,297.2,1837.224,297.2,1837.207,297.2Zm-.1-32.808c-.194,1.831-.3,4.483-.31,8.058l-.7-1.526a80.927,80.927,0,0,0-5.437-10.465,5.967,5.967,0,0,0-.589-.789c.385-1.291,1.446-5.454,2.667-10.251,1.642-6.448,3.685-14.473,4.2-15.843a9.757,9.757,0,0,1,5.267-5.172l.006,0h0c2.669-.993,4.715-1.822,6.781-2.684-1.833,4.8-1.9,12.57-1.9,13.647v0a131.416,131.416,0,0,0-7.93,17.025c.079-2.485.224-4.969.435-7.427a.666.666,0,0,0-1.327-.114c-.341,3.98-.512,8.031-.509,12.04A25.1,25.1,0,0,0,1837.1,264.4Zm7.535,269.408.179-.186a30.962,30.962,0,0,0,3.818-4.712q2.951.3,5.818.3a51.041,51.041,0,0,0,10.415-1.045,7.516,7.516,0,0,1-.408,1.067,12.681,12.681,0,0,1-2.37,3.114c-2.276,2.405-4.7,4.731-7.208,6.913-.811.707-1.8,1.51-2.5,2.016a7.253,7.253,0,0,0-.174-2.918,6.8,6.8,0,0,0-5.475-4.178,7.684,7.684,0,0,0-2.384-.069Zm-4.412,5.429a1.307,1.307,0,0,1,1.492-1.086h0a1.308,1.308,0,0,1,1.076,1.038.666.666,0,0,0,1.235.195,1.3,1.3,0,1,1-.139.882.666.666,0,0,0-1.235-.194,1.3,1.3,0,0,1-2.429-.834Zm25.6,4.085-3.23.985c-.25-.036-.8-.116-1.434-.217.51-.634,1.044-1.292,1.557-1.91a28.587,28.587,0,0,1,3.429-3.691A38.662,38.662,0,0,0,1865.829,543.318Zm.773-6.7c-.018.061-.035.121-.052.181-.96.18-2.273,1.411-4.853,4.523-.814.981-1.677,2.057-2.414,2.98a20.754,20.754,0,0,1-6.177,5.364c-7.355,1.759-25.337.362-26.709-.563a.556.556,0,0,1-.26-.49c-.018-.907,1.3-2.9,4.242-5.145a102.789,102.789,0,0,1,8.939-5.492h0a16.346,16.346,0,0,0,5.437,4.635,2.693,2.693,0,0,0,.411.032,4.114,4.114,0,0,0-3.757-5.844l.45-.251a.655.655,0,0,0,.288-.325,6.385,6.385,0,0,1,4.346-.745,5.5,5.5,0,0,1,4.468,3.34,7.248,7.248,0,0,1,.073,2.576c-.03.368-.056.687-.056.947a.724.724,0,0,0,.424.669.638.638,0,0,0,.289.074c.421,0,1.308-.433,4.061-2.832,2.539-2.21,4.995-4.565,7.3-7a13.76,13.76,0,0,0,2.6-3.454,9.23,9.23,0,0,0,.672-1.972c.31-.075.622-.153.937-.236.118.556.22,1.12.3,1.685C1867.961,531.917,1867.143,534.749,1866.6,536.623Zm45.471,6.112a.665.665,0,0,0,.334-.844l-.462-1.175a30.308,30.308,0,0,1,2.52,5c.435,1.886,1.22,7.945-.812,10.935-.455.67-4.223,1.631-5.316,1.71-1.464.108-4.5-1.109-7.54-3.021-3.246-2.039-5.7-4.371-6.408-6.085-.675-1.641-.992-7.141-.918-15.686.56,5.025,1.572,11.112,1.586,11.2a.668.668,0,0,0,.649.558h.01c.254,0,.574-.119.681-.674.528-2.769,1.543-4.794,2.857-5.7,1.878-1.3,6.267-2.576,8.13-1.7.825.386,2.733,3.281,3.824,5.213A.666.666,0,0,0,1912.073,542.735Zm-3.2-5.976a3.49,3.49,0,0,0-.921-.716c-2.631-1.233-7.624.552-9.451,1.813a7.806,7.806,0,0,0-2.6,3.68c-.546-3.565-1.372-9.4-1.448-12.45a47.387,47.387,0,0,0,10.661-1.616c.279.761.625,1.657,1.05,2.724C1907.059,532.469,1908,534.711,1908.869,536.759Zm-.717-103.025c0,13.4,6.222,82.047,6.758,87.934a36.209,36.209,0,0,1-9.576,4.354,46.027,46.027,0,0,1-11.58,1.757c-.293.008-.584.014-.875.017a60.33,60.33,0,0,1-17.008-2.288c-.181-3.478-1.309-25.624-1.309-37.575,0-12.972-6.723-95.615-6.791-96.448a.661.661,0,0,0-.192-.411,348.569,348.569,0,0,1-4.555-40.44.548.548,0,0,0-1.094.07,349.507,349.507,0,0,0,4.571,40.566.659.659,0,0,0-.059.289l4.108,133.624c-.972.349-1.966.667-2.963.946-.665.187-1.328.356-1.972.5a51.853,51.853,0,0,1-17.251.909,58.665,58.665,0,0,1-13.51-3.061c.347-2.729,1.934-15.655,2.363-26.822.11-2.857-.072-9.07-.424-17.388a199.232,199.232,0,0,0,9.383,35.527.548.548,0,0,0,.515.36.543.543,0,0,0,.188-.033.549.549,0,0,0,.327-.7A198.007,198.007,0,0,1,1836.231,468c-.307-6.375-.662-13.385-1.032-20.7-1.327-26.209-2.831-55.914-2.831-70.793,0-26.993,4.635-61.509,6.055-71.436.34-2.159.17-8.771-.027-16.427-.113-4.4-.23-8.953-.264-13.129V275.5a108.148,108.148,0,0,1,.3-10.961,24.075,24.075,0,0,1,.641-3.391c0-.009,0-.018.006-.028l0-.007h0c1.808-7.035,6.52-16.186,8.637-20.1a103,103,0,0,0,6.725,26.528,108.992,108.992,0,0,0,5.815,12.61.666.666,0,0,0,1.182-.046c.032-.068,3.286-6.994,9.8-18.651a101.789,101.789,0,0,1,12.918-18.361c4.977,26.326,12.219,31.77,14.254,32.8-.284,2.791-1.691,16.883-2.136,25.89a.753.753,0,0,0,0,.085c.068.865.173,1.8.32,2.828l-.042-.005a8.353,8.353,0,0,0-4.015.153,8.133,8.133,0,0,0-2.616,2.174c-.169.186-.332.364-.488.526l-6.978,7.245a3.354,3.354,0,0,0-1.232,2.64,2.222,2.222,0,0,0,1.634,1.737,1.927,1.927,0,0,1,.557.295,5.993,5.993,0,0,1-.7,1.475,5.88,5.88,0,0,0-.626,1.276,2.957,2.957,0,0,0,.674,2.661,1.845,1.845,0,0,0,.977.554,1.751,1.751,0,0,0,.378.586,3.443,3.443,0,0,0,2.4.849h.1c3.637-.086,5.865-1.932,8.224-3.887.4-.328.8-.667,1.227-1a23.453,23.453,0,0,1,3.6-2.363c.039.178.079.355.118.533-.325.339-.653.67-.986,1.008a34.355,34.355,0,0,0-3.317,3.723,8.8,8.8,0,0,0-1.377,2.32,3.42,3.42,0,0,0,.259,3,2.021,2.021,0,0,0,1.63,1.022h.055c1.421,0,2.721-1.7,3.673-2.946.248-.325.463-.605.624-.781.261-.286.519-.538.775-.771.14.774.268,1.526.38,2.243C1904.187,346.088,1908.151,418.8,1908.151,433.734Zm-8.709-158.845,1.848-15.215q.552.428,1.1.857c2.745,2.167,5.483,4.485,8.137,6.891,1.3,1.174,2.587,2.4,3.836,3.59,1.426,1.356,2.9,2.758,4.4,4.1-3.722,6.307-9.215,15.505-12.972,20.357a3.757,3.757,0,0,0-.973,2.071,3.515,3.515,0,0,0,.863,2.217c.531.718.8,1.032,1.305,1.617.005.006.012.01.017.016q-1.446,1.835-2.974,3.59c-1.08-.08-2.179-.084-3.268-.087-.974,0-1.9-.006-2.8-.063-.165-1.115-.281-2.109-.353-3.022.494-9.951,2.161-26.1,2.178-26.265A.658.658,0,0,0,1899.442,274.889Zm17.6,32.132c-3.882,5.062-7.978,10.058-12.176,14.85a14.533,14.533,0,0,1-2.7,2.324,16.744,16.744,0,0,0-2.812,2.389c-.2.219-.431.521-.7.871-.653.855-1.876,2.443-2.628,2.422-.069,0-.28-.009-.565-.433a2.1,2.1,0,0,1-.108-1.82,7.691,7.691,0,0,1,1.185-1.959,32.852,32.852,0,0,1,3.2-3.584c.408-.413.822-.832,1.241-1.276l.013-.014a27.684,27.684,0,0,0,2.063-2.434,1,1,0,0,0-1.078-1.261c-.718.269-1.419.575-2.106.908-.02.009-.039.018-.058.028a24.751,24.751,0,0,0-4.586,2.894c-.431.344-.846.687-1.246,1.019-2.364,1.959-4.231,3.506-7.406,3.581a2.234,2.234,0,0,1-1.506-.442.344.344,0,0,1-.113-.283.665.665,0,0,0-.8-.689.432.432,0,0,1-.437-.165,1.633,1.633,0,0,1-.344-1.408,6.223,6.223,0,0,1,.488-.939c.562-.97,1.093-1.887.8-2.615a2.075,2.075,0,0,0-1.295-1.052c-.563-.235-.78-.355-.827-.693-.067-.481.379-1.021.872-1.533l6.978-7.245c.164-.17.335-.357.513-.552a7.243,7.243,0,0,1,2.14-1.84,7.35,7.35,0,0,1,3.345-.062c.27.033.53.065.773.089l.179.015h.009c1.109.1,2.276.1,3.406.105,3.3.009,6.716.018,9.034,2.374a.665.665,0,1,0,.949-.933,8.941,8.941,0,0,0-5.115-2.5c1.865-2.186,3.649-4.474,5.315-6.817a16.655,16.655,0,0,1,8.09,6.061c-.011.013-.023.023-.033.037C1918.353,305.3,1917.7,306.167,1917.039,307.021Zm14.763-15.516c-.614.9-1.195,1.752-1.691,2.514-3.062,4.7-6.335,9.113-8.845,12.438a2.371,2.371,0,0,1-.783.774,2.4,2.4,0,0,1-1.5-.09c-.1-.026-.2-.055-.3-.083q.575-.755,1.142-1.51.155.235.306.478a.666.666,0,1,0,1.129-.705c-3.286-5.265-7.75-8.294-13.268-9a.666.666,0,1,0-.17,1.32,16.654,16.654,0,0,1,1.75.32q-.854,1.189-1.747,2.357c-.4-.459-.637-.75-1.083-1.353a2.392,2.392,0,0,1-.6-1.36,2.646,2.646,0,0,1,.695-1.32c4.146-5.354,10.329-15.849,14.023-22.119l.656-1.112a.666.666,0,0,0-1.146-.676l-.656,1.113-.266.451c-1.414-1.271-2.815-2.6-4.171-3.89-1.255-1.193-2.552-2.426-3.859-3.611-2.676-2.426-5.437-4.765-8.206-6.95-.618-.488-1.247-.974-1.881-1.458a.663.663,0,0,0-.343-.263q-1.312-1-2.65-1.973a.666.666,0,0,0-.784,1.076q1.264.92,2.509,1.866l-1.875,15.443a16.342,16.342,0,0,1-3.815-4.451c-2.541-4.025-6.146-12.028-9-27.366,2.024-9.483,4.281-13.891,5.5-15.729q.7-.182,1.4-.373.961.388,1.92.768c2.771,1.1,5.389,2.148,7.848,3.373,6.148,3.061,10.5,8.569,14.713,13.9.732.926,1.489,1.883,2.24,2.808,2.82,3.471,5.723,6.513,8.529,9.454a138.677,138.677,0,0,1,9.375,10.54,13.889,13.889,0,0,1,2.8,4.814C1941.216,277.7,1935.551,286.006,1931.8,291.505Z" transform="translate(0)" fill="#000004"/>
    <path id="Trazado_60" data-name="Trazado 60" d="M2087.119,630.944l-4.272,1.427a8.464,8.464,0,0,0-4.723,2.926l-.1.11a64.189,64.189,0,0,1-5.641,5.46.666.666,0,0,0,.865,1.012,65.516,65.516,0,0,0,5.759-5.574l.1-.111a7.209,7.209,0,0,1,4.161-2.56l4.272-1.427a.666.666,0,0,0-.422-1.263Z" transform="translate(-187.22 -318.167)" fill="#000004"/>
    <path id="Trazado_61" data-name="Trazado 61" d="M2076.811,622.82l.051-.057a4.8,4.8,0,0,1,1.314-1.161,4.728,4.728,0,0,1,1.058-.32l5.47-1.216a.666.666,0,0,0-.29-1.3l-5.469,1.216a5.859,5.859,0,0,0-1.36.426,5.945,5.945,0,0,0-1.714,1.464l-.051.057a51.989,51.989,0,0,1-5.777,5.5.666.666,0,1,0,.841,1.032A53.361,53.361,0,0,0,2076.811,622.82Z" transform="translate(-185.671 -310.148)" fill="#000004"/>
    <path id="Trazado_62" data-name="Trazado 62" d="M2110.135,396.073a6.192,6.192,0,0,0-2.064,3.025,54.053,54.053,0,0,0-3.643,15.262.548.548,0,0,0,.5.595l.049,0a.547.547,0,0,0,.545-.5,52.965,52.965,0,0,1,3.569-14.952,5.216,5.216,0,0,1,1.655-2.52.548.548,0,1,0-.609-.912Z" transform="translate(-208.509 -163.224)" fill="#000004"/>
    <path id="Trazado_63" data-name="Trazado 63" d="M2185.987,488.946a.548.548,0,1,0-.623-.9,13.351,13.351,0,0,0-4.328,4.971.548.548,0,1,0,.979.493A12.249,12.249,0,0,1,2185.987,488.946Z" transform="translate(-258.996 -223.88)" fill="#000004"/>
    <path id="Trazado_64" data-name="Trazado 64" d="M2199.333,498.283a34.323,34.323,0,0,0-9.094,2.054.548.548,0,0,0,.385,1.027,33.205,33.205,0,0,1,8.8-1.988.548.548,0,0,0-.094-1.093Z" transform="translate(-264.87 -230.695)" fill="#000004"/>
    <path id="Trazado_65" data-name="Trazado 65" d="M2125.472,1299.707a2.626,2.626,0,0,1-3.654.575,7.336,7.336,0,1,0,3.654-.575Zm1.7,2.4a1.3,1.3,0,0,1-2.428.834.665.665,0,0,0-1.235.194,1.3,1.3,0,0,1-2.047.8,1.3,1.3,0,0,1,.565-2.344,1.268,1.268,0,0,1,.2-.016,1.309,1.309,0,0,1,1.143.673.665.665,0,0,0,1.235-.194,1.308,1.308,0,0,1,1.075-1.038h0a1.3,1.3,0,0,1,1.492,1.086Z" transform="translate(-218.51 -759.238)" fill="#000004"/>
    <g id="avatar" transform="translate(1743.957 178.494)">
      <circle id="Elipse_1" data-name="Elipse 1" cx="22" cy="22" r="22" fill="#fdd534"/>
    </g>
  </g>
</svg>
