<svg id="avatar" xmlns="http://www.w3.org/2000/svg" width="24" height="24" viewBox="0 0 24 24">
  <circle id="Elipse_1" data-name="Elipse 1" cx="12" cy="12" r="12" fill="#fdd835"/>
  <g id="Grupo_40" data-name="Grupo 40" transform="translate(-479.255 -918.648)">
    <path id="Trazado_22" data-name="Trazado 22" d="M500.483,925.585l1.6.768v1.262a.27.27,0,0,0,.368.252,8,8,0,0,1,5.792,0,.27.27,0,0,0,.368-.252v-1.262l1.216-.582v1.7a.27.27,0,1,0,.541,0v-2.06a.268.268,0,0,0,0-.038.229.229,0,0,0,0-.025.27.27,0,0,0-.148-.244l-4.75-2.423a.27.27,0,0,0-.246,0l-4.75,2.423a.27.27,0,0,0,.006.485Zm7.59,1.645a8.538,8.538,0,0,0-5.446,0v-1.409a8,8,0,0,1,5.446,0Zm-2.723-4.009,4.14,2.112-.876.419v-.12a.271.271,0,0,0-.173-.252,8.543,8.543,0,0,0-6.182,0,.27.27,0,0,0-.173.252v.12l-.876-.419Z" transform="translate(-13.989 0)" fill="#000004"/>
    <path id="Trazado_23" data-name="Trazado 23" d="M570.876,961.676a.27.27,0,0,0-.27.27v.078a.27.27,0,0,0,.541,0v-.078A.27.27,0,0,0,570.876,961.676Z" transform="translate(-74.765 -33.752)" fill="#000004"/>
    <path id="Trazado_24" data-name="Trazado 24" d="M539.158,1005.712a.36.36,0,1,0-.36-.36A.36.36,0,0,0,539.158,1005.712Zm0-.541a.181.181,0,1,1-.181.181A.181.181,0,0,1,539.158,1005.171Z" transform="translate(-47.257 -71.213)" fill="#000004"/>
    <path id="Trazado_25" data-name="Trazado 25" d="M532.738,1005.712a.36.36,0,1,0-.36-.36A.361.361,0,0,0,532.738,1005.712Zm0-.541a.181.181,0,1,1-.181.181A.181.181,0,0,1,532.738,1005.171Z" transform="translate(-41.705 -71.213)" fill="#000004"/>
    <path id="Trazado_26" data-name="Trazado 26" d="M535.588,1013.839a.36.36,0,1,0,.36-.36A.361.361,0,0,0,535.588,1013.839Zm.36-.181a.181.181,0,1,1-.181.181A.181.181,0,0,1,535.948,1013.658Z" transform="translate(-44.481 -78.553)" fill="#000004"/>
    <path id="Trazado_27" data-name="Trazado 27" d="M542.181,1013.839a.36.36,0,1,0,.36-.36A.36.36,0,0,0,542.181,1013.839Zm.36-.181a.181.181,0,1,1-.181.181A.181.181,0,0,1,542.541,1013.658Z" transform="translate(-50.183 -78.553)" fill="#000004"/>
    <path id="Trazado_28" data-name="Trazado 28" d="M529.356,1014.2a.36.36,0,1,0-.36-.36A.36.36,0,0,0,529.356,1014.2Zm0-.541a.181.181,0,1,1-.181.181A.181.181,0,0,1,529.356,1013.658Z" transform="translate(-38.78 -78.553)" fill="#000004"/>
    <path id="Trazado_29" data-name="Trazado 29" d="M517.1,972.553a.379.379,0,1,0-.379-.379A.38.38,0,0,0,517.1,972.553Zm0-.541a.162.162,0,1,1-.162.162A.162.162,0,0,1,517.1,972.012Z" transform="translate(-28.16 -42.503)" fill="#000004"/>
    <path id="Trazado_30" data-name="Trazado 30" d="M553.142,972.553a.379.379,0,1,0-.379-.379A.38.38,0,0,0,553.142,972.553Zm0-.541a.162.162,0,1,1-.162.162A.162.162,0,0,1,553.142,972.012Z" transform="translate(-59.334 -42.503)" fill="#000004"/>
    <path id="Trazado_31" data-name="Trazado 31" d="M498.085,965.924h-5.362v-.278a4.566,4.566,0,0,0,1.625-.817.256.256,0,0,0,.219-.07,4.465,4.465,0,0,0,1.37-2.878,5.609,5.609,0,0,0-.085-.985,3.7,3.7,0,0,0-.615-1.452,2.728,2.728,0,0,0,.312-1.266,2.693,2.693,0,0,0-.029-.393.256.256,0,0,0-.009-.037c0-.027,0-.054,0-.081a1.7,1.7,0,0,0-.687-1.366,1.219,1.219,0,0,0,.538-1.01.27.27,0,1,0-.541,0,.679.679,0,0,1-.679.679.264.264,0,0,0-.077.013A1.689,1.689,0,0,0,492.234,957l-.006.011-.868,2.151-.772-1.912a1.69,1.69,0,0,0-1.916-1.271.264.264,0,0,0-.077-.013.679.679,0,0,1-.679-.679.27.27,0,1,0-.541,0,1.219,1.219,0,0,0,.538,1.01,1.7,1.7,0,0,0-.687,1.366s0,0,0,.006a.274.274,0,0,0-.017.058,2.714,2.714,0,0,0,.275,1.713,3.7,3.7,0,0,0-.615,1.453,5.616,5.616,0,0,0-.085.985,4.464,4.464,0,0,0,1.37,2.878.269.269,0,0,0,.185.073l.033,0a4.586,4.586,0,0,0,1.626.816v.279h-5.576a.27.27,0,0,0,0,.541h5.593a.269.269,0,0,0,.507,0H492.2a.269.269,0,0,0,.507,0h5.379a.27.27,0,0,0,0-.541Zm-4.277-9.424a1.167,1.167,0,1,1-1.167,1.167A1.168,1.168,0,0,1,493.808,956.5Zm-4.873,0a1.167,1.167,0,0,1,1.04.64.264.264,0,0,0,.017.076l.084.209a1.167,1.167,0,1,1-1.141-.925Zm-.138,7.971a4.2,4.2,0,0,0,1.1-2.59,4.749,4.749,0,0,0-.412-2.032.27.27,0,1,0-.486.237,4.267,4.267,0,0,1,.357,1.8,3.746,3.746,0,0,1-1.014,2.288,3.732,3.732,0,0,1-1.014-2.288,5.067,5.067,0,0,1,.076-.89,3.193,3.193,0,0,1,.613-1.359.27.27,0,0,0,.021-.307,2.409,2.409,0,0,1-.159-.319,1.7,1.7,0,0,0,2.592-.6l.639,1.583a.27.27,0,0,0,.5,0l.648-1.606a1.7,1.7,0,0,0,2.575.645,2.421,2.421,0,0,1-.15.3.275.275,0,0,0,.02.305,3.194,3.194,0,0,1,.615,1.361,5.077,5.077,0,0,1,.076.89,3.745,3.745,0,0,1-1.014,2.288,3.732,3.732,0,0,1-1.014-2.288,4.372,4.372,0,0,1,.309-1.69.27.27,0,0,0-.5-.215,4.92,4.92,0,0,0-.354,1.905,4.2,4.2,0,0,0,1.1,2.59,4.093,4.093,0,0,1-1.2.607v-.144a.27.27,0,1,0-.541,0v.277a4.563,4.563,0,0,1-.821.075,4.641,4.641,0,0,1-.82-.073v-.279a.27.27,0,1,0-.541,0v.147A4.034,4.034,0,0,1,488.8,964.472Zm1.744,1.292a5.171,5.171,0,0,0,1.642,0v.161h-1.642Z" transform="translate(0 -27.996)" fill="#000004"/>
  </g>
</svg>
