<svg xmlns="http://www.w3.org/2000/svg" width="83.32" height="15.828" viewBox="0 0 83.32 15.828">
  <path id="Trazado_245" data-name="Trazado 245" d="M7.211-2.977Q7.211.242,4.031.25T.859-2.977v-9.375q0-3.219,3.172-3.219t3.18,3.219V-8.6H5v-3.75q0-1.031-.961-1.039H4.023q-.953,0-.953,1.039v9.375q0,1.039.961,1.039T5-2.977V-5.469H7.211Zm7.992,0Q15.2.242,12.023.25T8.852-2.977v-9.375q0-3.219,3.172-3.219t3.18,3.219Zm-2.211-9.375q0-1.031-.961-1.039h-.016q-.953,0-.953,1.039v9.375q0,1.039.961,1.039t.969-1.039Zm8.172,4.891-1.953-3.328V.008H17.078V-15.32H18.82l2.344,3.953,2.344-3.953H25.25V.008H23.117v-10.8Zm6.117-7.867H30.5q2.945.008,2.945,3.227v4.813a2.9,2.9,0,0,1-2.117,3.063,5.073,5.073,0,0,1-1.477.164h-.359V0H27.281Zm2.211,2.18v6.9H30a2.135,2.135,0,0,0,.633-.062.949.949,0,0,0,.6-.977V-12.1q0-1.047-.961-1.047ZM39.07-4.727Q37.2-4.258,37.2-2.789q0,1,.445,1,1.43-.109,1.43-2.125Zm0-2.1v-5.523q0-1.039-.953-1.039H38.1q-.961.008-.961,1.039V-8.6H34.93v-3.75q0-3.219,3.18-3.219t3.172,3.219V0H39.3l-.156-.945A2.168,2.168,0,0,1,37.164.25a1.84,1.84,0,0,1-1.629-.812,3.468,3.468,0,0,1-.551-1.992Q34.984-6.43,39.07-6.828Zm6.3-6.32v6.977h.508a2.134,2.134,0,0,0,.633-.062.949.949,0,0,0,.6-.977V-12.1q0-1.047-.961-1.047Zm2.406,8.688L50.063,0H47.641L45.672-4.062h-.3V0H43.156V-15.328h3.219q2.945.008,2.945,3.227v4.813A2.9,2.9,0,0,1,47.773-4.461Zm8.9-10.867v2.18H54.6V0H52.391V-13.148H50.32v-2.18Zm7.6,12.352q0,3.219-3.18,3.227T57.922-2.977v-9.375q0-3.219,3.172-3.219t3.18,3.219Zm-2.211-9.375q0-1.031-.961-1.039h-.016q-.953,0-.953,1.039v9.375q0,1.039.961,1.039t.969-1.039Zm10.9,6.664,1.547-9.633h2.227L74.93-5.078l1.8,5.086H74.352l-1.391-4.75-1.4,4.75H69.18l1.8-5.086L69.18-15.32h2.227Zm4.867,1.773a4.29,4.29,0,0,1,2.063-3.547q2.07-1.477,2.078-2.508v-2.383q0-1.039-.953-1.039H81q-.961,0-.961,1.039V-10.3H77.828v-2.055q0-3.227,3.172-3.227t3.18,3.227v2.438a4.335,4.335,0,0,1-2.07,3.594q-2.07,1.477-2.07,2.594V-2.18H84.18V0H77.828Z" transform="translate(-0.859 15.578)" fill="#262525"/>
</svg>
