<svg xmlns="http://www.w3.org/2000/svg" width="63.9" height="198.177" viewBox="0 0 63.9 198.177">
  <g id="Grupo_49" data-name="Grupo 49" transform="translate(-131.306 -160.188)">
    <path id="Trazado_171" data-name="Trazado 171" d="M203.406,374.75h0a5.355,5.355,0,0,1,.46.554,4.242,4.242,0,0,1,.747,2.976,8.052,8.052,0,0,1-.211.984,6.853,6.853,0,0,0-.2.976,3.322,3.322,0,0,0,1.217,2.9,5.461,5.461,0,0,0,1.808.859c.06-.975.084-1.96.073-2.935a.324.324,0,0,1,.32-.328h0a.324.324,0,0,1,.324.32c.013,1.127-.021,2.268-.1,3.392v0h0a41.513,41.513,0,0,1-1.2,7.4,1.668,1.668,0,0,0-.085.7,1.367,1.367,0,0,0,.289.529,14.039,14.039,0,0,0,2.557,2.4l.166.131a14,14,0,0,0,2.249,1.539,5.226,5.226,0,0,0,1.144.431,7.15,7.15,0,0,0,2.323.09,1.459,1.459,0,0,1,.758-1.015,1.639,1.639,0,0,1-.1-1.035,1.7,1.7,0,0,1,.4-.654,2.454,2.454,0,0,1,.294-.277,1.4,1.4,0,0,1-.025-.194,1.443,1.443,0,0,1,.42-1.063,1.552,1.552,0,0,1,.88-.477h.015a.825.825,0,0,1,.321-.691,2.234,2.234,0,0,1,1.676-.052l.016,0c.351.076.7.155,1.053.234l1.2-13.741a.324.324,0,0,1,.115-.22.32.32,0,0,1,.237-.075L240.672,380a.324.324,0,0,1,.294.351l-.062.712a8.309,8.309,0,0,0,.226-4.253c-.018-.082-.037-.165-.056-.248a4.288,4.288,0,0,1-.161-1.214,2.757,2.757,0,0,1,.387-1.231,5.007,5.007,0,0,1,.43-.627l.011-.015c.219-.274.455-.53.684-.778l.039-.042a3.469,3.469,0,0,0,1.145-2.113c-.316-.09-.623-.184-.921-.275a9.872,9.872,0,0,0-4.007-.633.32.32,0,0,1-.152-.022l-.179-.073c-.736-.3-1.564-.612-2.531-.959l-.02-.008c-.762-.274-1.623-.575-2.707-.945h0l-1.079-.368c-.919-.313-1.786-.608-2.624-.9l-.627-.222q0,.041,0,.085a2.24,2.24,0,0,1-.334,1.233c-.414.518-3.276,1.522-6.153,1.574l-.04,0h-.2l-.04,0c-2.874-.051-5.738-1.055-6.152-1.574a2.243,2.243,0,0,1-.334-1.234c0-.029,0-.056,0-.084-.316.113-.66.234-1.036.365a12.8,12.8,0,0,0,.8,2.3,3.343,3.343,0,0,0,1.028,1.164.324.324,0,0,1-.177.6.314.314,0,0,1-.05,0h0a.339.339,0,0,1-.049-.012,1.822,1.822,0,0,1-.192.413c-.234.41-.692.864-.72,1.364h0l.125.091.155.11a.324.324,0,0,1-.368.533,8.579,8.579,0,0,1-3.722-5.471c-.954.326-2.036.7-3.076,1.076l-.02.008c-.779.282-1.468.543-2.1.8.021.07.043.14.063.211A41.506,41.506,0,0,1,207.8,379.8a.229.229,0,0,1-.22.237h-.008a.229.229,0,0,1-.228-.22,41.057,41.057,0,0,0-1.625-10.014c-.017-.058-.035-.115-.052-.173a.3.3,0,0,1-.089,0,8.885,8.885,0,0,0-3.95.5.864.864,0,0,0-.342.191.784.784,0,0,0-.106.481,4.187,4.187,0,0,0,.892,2.558,8.72,8.72,0,0,0,.8.85C203.05,374.389,203.233,374.565,203.406,374.75Zm33.629,3.266c.261-2.572.607-5.17,1.028-7.72a.229.229,0,1,1,.451.074c-.419,2.542-.764,5.13-1.024,7.692a.229.229,0,0,1-.227.206h-.023A.229.229,0,0,1,237.035,378.016Z" transform="translate(-58.295 -171.824)" fill="#fdd534"/>
    <path id="Trazado_172" data-name="Trazado 172" d="M251.651,201.984l-.039-.015a.32.32,0,0,1-.038-.021,3.988,3.988,0,0,1-1.244-1.4l-.012-.024a21.6,21.6,0,0,1-1.548-6.981l-.037-.341a.324.324,0,1,1,.644-.07l.037.342a38.23,38.23,0,0,0,.541,3.826c.523-.182.981-.345,1.39-.493a.324.324,0,0,1,.434.315s0,.016,0,.042c1.113-.458,1.766-.96,1.982-1.976a10.916,10.916,0,0,0,.108-2.72c-.009-.214-.018-.433-.024-.652a11.842,11.842,0,0,1-1.262-.855,7.43,7.43,0,0,1-2.031-2.4,15.919,15.919,0,0,1-.917-2.138c-.053-.148-.107-.3-.169-.493-.1-.025-.211-.057-.322-.1V187a1.229,1.229,0,1,1-.648,0v-1.448a3.8,3.8,0,0,1-.932-.708l-.019-.022-.338-.427-.017-.024a3.216,3.216,0,0,1-.2-.351,3.454,3.454,0,0,1-.325-1.72,3.2,3.2,0,0,1,1.372-2.529.322.322,0,0,1,.257-.137c.724-.013,1.246-.835,1.557-1.522a16.82,16.82,0,0,0,1.447-8.094.324.324,0,0,1,.646-.046,17.467,17.467,0,0,1-1.5,8.407,4.069,4.069,0,0,1-1.006,1.452,1.225,1.225,0,0,1,.1.081.324.324,0,1,1-.426.488.634.634,0,0,0-.508-.145c-.763.125-1.25,1.312-1.295,2.084a2.847,2.847,0,0,0,.26,1.4,2.538,2.538,0,0,0,.152.269l.32.4a3.016,3.016,0,0,0,.452.383v-.148a.324.324,0,1,1,.648,0v.5l.1.042.1.037-.327-1.373a.324.324,0,1,1,.63-.15l.6,2.528a15.292,15.292,0,0,0,.873,2.034,6.787,6.787,0,0,0,1.856,2.187,11.22,11.22,0,0,0,1.348.9l.013.007a8.769,8.769,0,0,0,2.325.935,4.335,4.335,0,0,0,.542.091,3.832,3.832,0,0,0,.391.013h.034l.106,0a4.149,4.149,0,0,0,.523-.07,4.684,4.684,0,0,0,.529-.155,9.875,9.875,0,0,0,3.441-2.263,6.786,6.786,0,0,0,1.585-2.391,14.955,14.955,0,0,0,.59-1.97l.444-2.523a.324.324,0,1,1,.638.112l-.2,1.118.028-.014c.085-.045.167-.094.247-.144v-.314a.323.323,0,0,1,.6-.167,2.929,2.929,0,0,0,.253-.291l.27-.439a2.488,2.488,0,0,0,.119-.284,2.844,2.844,0,0,0,.094-1.419,2.593,2.593,0,0,0-.8-1.515,1.36,1.36,0,0,0-.524-.286.324.324,0,0,1-.233-.395.32.32,0,0,1,.056-.115c-.063-.122-.12-.237-.17-.337a34.667,34.667,0,0,1-1.744-4.21,7.306,7.306,0,0,1-1.244,2.793,2.373,2.373,0,0,1,.652.394.229.229,0,0,1-.3.345,2.019,2.019,0,0,0-.648-.368c-.122.141-.25.277-.384.406a2.649,2.649,0,0,1-1.716.856h-.01a.324.324,0,0,1-.01-.648,2.042,2.042,0,0,0,1.286-.675c.033-.031.064-.065.1-.1a3.6,3.6,0,0,0-2.056.352.227.227,0,0,1-.368-.146,5.05,5.05,0,0,1-3.432,1.13.324.324,0,1,1,0-.648,4.2,4.2,0,0,0,3.3-1.264c1.267-1.4,1.715-4.083,1.329-7.979a.324.324,0,0,1,.645-.064c.406,4.109-.072,6.87-1.461,8.439a4.554,4.554,0,0,1,2.4-.228,6.758,6.758,0,0,0,1.4-3.428,10.5,10.5,0,0,0-.508-4.452.324.324,0,1,1,.617-.2,11.717,11.717,0,0,1,.6,3.93,34.021,34.021,0,0,0,2.134,5.469c.094.19.216.434.354.678a2.192,2.192,0,0,1,.356.247,3.247,3.247,0,0,1,1.019,1.894,3.454,3.454,0,0,1-.12,1.747,3.219,3.219,0,0,1-.157.371l-.014.026-.286.464-.016.024a3.755,3.755,0,0,1-.734.734v1.7a1.229,1.229,0,1,1-.648,0v-1.3a3.623,3.623,0,0,1-.378.168c-.04.195-.075.357-.11.511-.012.053-.024.1-.036.156l-.007.041a.324.324,0,0,1-.016.057,15.431,15.431,0,0,1-.6,1.976,7.431,7.431,0,0,1-1.734,2.619,11.868,11.868,0,0,1-1,.882.315.315,0,0,1,.007.071c-.005.252-.015.514-.026.791a13.486,13.486,0,0,0,.111,3.081c.216,1.016.87,1.517,1.982,1.976,0-.026,0-.041,0-.042a.324.324,0,0,1,.434-.315l.644.231c.016-.3.029-.614.04-.976a25.748,25.748,0,0,0-.406-6.039.324.324,0,0,1,.639-.1,26.266,26.266,0,0,1,.414,6.162c-.013.445-.03.826-.052,1.181.763.266,1.553.536,2.386.819l.5.171a32.431,32.431,0,0,1-1.064-6.91.324.324,0,0,1,.647-.029,31.8,31.8,0,0,0,1.158,7.191c.837.286,1.54.531,2.17.756.014-.329.016-.667,0-1.011a30.865,30.865,0,0,0-.738-5.039q-.071-.35-.142-.7a110.332,110.332,0,0,1-1.688-11.7q-.047-.518-.09-1.038a37.9,37.9,0,0,0-.82-5.924c-.6-2.433-1.5-5.18-3.572-7.107-1.021-.95-3.707-3.1-6.6-2.561a5.914,5.914,0,0,1-1.354.037,6.4,6.4,0,0,0-1.088.006,9.787,9.787,0,0,0-2.214.547,9.54,9.54,0,0,0-3.606,2.438c-1.968,2.122-3.035,5.123-3.358,9.443a39.784,39.784,0,0,0,0,4.438,29.042,29.042,0,0,1-1.041,10.274,31.683,31.683,0,0,0-1.066,6.573,8.955,8.955,0,0,0,.079,1.429c.97-.348,1.958-.688,2.832-.987a36.3,36.3,0,0,1,.1-8.225.324.324,0,1,1,.646.052l-.024.3c0,.042-.007.084-.01.127l-.014.17-.018.229c0,.019,0,.039,0,.058-.005.068-.011.136-.016.2l-.007.086c-.005.069-.011.138-.016.207l-.006.077q-.008.111-.017.22l0,.06-.016.218,0,.062c-.005.072-.01.143-.015.214,0,.021,0,.041,0,.062q-.007.106-.014.21c0,.021,0,.042,0,.063q-.007.105-.014.209c0,.02,0,.04,0,.06q-.006.1-.013.206c0,.02,0,.041,0,.061,0,.07-.008.139-.012.208,0,.018,0,.036,0,.055,0,.07-.007.139-.011.208,0,.018,0,.036,0,.054q-.005.1-.01.206c0,.017,0,.034,0,.052q0,.1-.008.2l0,.052q0,.1-.007.2c0,.017,0,.034,0,.051q0,.1-.006.2c0,.015,0,.031,0,.046q0,.1,0,.2c0,.015,0,.03,0,.044q0,.1,0,.2c0,.014,0,.028,0,.042q0,.1,0,.2v.039c0,.068,0,.135,0,.2v.036q0,.1,0,.2v.033q0,.1.005.2v.031q0,.1.007.2v.028c0,.067.006.135.01.2,0,.008,0,.016,0,.024q.005.1.012.2v.021q.007.1.015.2v.017q.008.1.018.2v.014q.01.1.021.205v.01c.008.069.016.138.024.207v.005a8.089,8.089,0,0,0,3.356,5.938h0c.028-.5.486-.954.72-1.364A1.825,1.825,0,0,0,251.651,201.984Zm1.866-19.778a.768.768,0,1,1,.545-.781A.683.683,0,0,1,253.517,182.206Zm7.062-1.916a.768.768,0,1,1-.545.781A.683.683,0,0,1,260.579,180.291Zm-3.408,3.111a.265.265,0,0,1,.286.245l.127,1.648a.267.267,0,0,1-.246.286h-.021a.267.267,0,0,1-.266-.246l-.127-1.647A.267.267,0,0,1,257.171,183.4Zm-1.891,3.55,4.2-.249a.71.71,0,0,1,.577.235.665.665,0,0,1,.162.559c-.159.919-1.177,2.6-2.638,2.69-.039,0-.079,0-.117,0a3.464,3.464,0,0,1-2.82-2.364.665.665,0,0,1,.095-.574A.712.712,0,0,1,255.28,186.952Zm-2.041-9.656a8.146,8.146,0,0,0,1.879-4.321.324.324,0,0,1,.644.073,8.788,8.788,0,0,1-1.728,4.291,2.062,2.062,0,0,1,.741.226.229.229,0,0,1-.24.389,2.132,2.132,0,0,0-.842-.192,8.569,8.569,0,0,1-1.037,1.018.324.324,0,0,1-.413-.5q.282-.233.54-.492a2.681,2.681,0,0,0-1.646.744.229.229,0,0,1-.338-.308A3.467,3.467,0,0,1,253.238,177.3Z" transform="translate(-93.935 -3.262)" fill="#fff"/>
    <path id="Trazado_173" data-name="Trazado 173" d="M270.1,306.55a.581.581,0,1,0,.581-.581A.582.582,0,0,0,270.1,306.55Z" transform="translate(-115.799 -121.627)" fill="#fff"/>
    <path id="Trazado_174" data-name="Trazado 174" d="M291.662,336.972a1.429,1.429,0,0,0,.172.633,13.219,13.219,0,0,0,11.573,0,1.436,1.436,0,0,0,.171-.631,3.534,3.534,0,0,1-2.583-2.527,13.935,13.935,0,0,1-.124-3.241c0-.123.009-.243.013-.36a9.079,9.079,0,0,1-2.025,1.053h0a3.521,3.521,0,0,1-.6.174h-.015a4.751,4.751,0,0,1-.609.082h-.011l-.088.006c-.053,0-.109,0-.165,0a3.537,3.537,0,0,1-.366-.02h-.013a4.987,4.987,0,0,1-.619-.1,8.958,8.958,0,0,1-2.018-.746c0,.088.007.177.011.264a11.4,11.4,0,0,1-.122,2.884A3.534,3.534,0,0,1,291.662,336.972Z" transform="translate(-133.787 -142.381)" fill="#fff"/>
    <path id="Trazado_175" data-name="Trazado 175" d="M373.142,301.327a.581.581,0,1,0,.581-.581A.582.582,0,0,0,373.142,301.327Z" transform="translate(-201.766 -117.269)" fill="#fff"/>
    <path id="Trazado_176" data-name="Trazado 176" d="M147.521,472.3a75.512,75.512,0,0,1,4.67-13.3c.167-2.108.337-4.379.456-6.718a62.728,62.728,0,0,1,1.086-7.776l.087-.479a13.932,13.932,0,0,1-2.517-2.4,1.968,1.968,0,0,1-.409-.8,2.183,2.183,0,0,1,.091-.984,40.881,40.881,0,0,0,1.167-7.035,6.39,6.39,0,0,1-2.163-1.014,3.984,3.984,0,0,1-1.459-3.475,7.424,7.424,0,0,1,.221-1.07,7.431,7.431,0,0,0,.2-.9,3.589,3.589,0,0,0-.619-2.5,46.9,46.9,0,0,0-.594,7.345c-.032,1.114-.062,2.165-.125,3.2l-.892,14.557c0,.009,0,.018,0,.026-.454,3.149-.709,6.805-.979,10.676a123.657,123.657,0,0,1-1.494,14.074.324.324,0,0,1,.058.448,15.523,15.523,0,0,0-.855,1.32,14.865,14.865,0,0,1-.946,1.445c-.312.4-.624.823-.925,1.227-.387.52-.787,1.057-1.2,1.576-1.316,1.663-2.791,3.382-4.643,5.41-.293.321-.58.691-.49,1.006a.525.525,0,0,0,.348.325,2.678,2.678,0,0,1,.395-.589c.058-.071.112-.139.161-.2a21.56,21.56,0,0,1,1.491-1.744c.253-.275.514-.56.765-.848a24.427,24.427,0,0,0,2.136-2.859.324.324,0,0,1,.545.35,25.069,25.069,0,0,1-2.193,2.935c-.256.294-.521.582-.777.861a20.769,20.769,0,0,0-1.447,1.691c-.057.078-.119.154-.178.227a1.3,1.3,0,0,0-.335.56.186.186,0,0,0,.03.1.63.63,0,0,0,.525.269h.017a5.146,5.146,0,0,1,1.669-2.008c.179-.154.333-.287.441-.395a32.591,32.591,0,0,0,3.371-3.786.324.324,0,1,1,.513.4,33.535,33.535,0,0,1-3.429,3.851c-.125.123-.287.263-.474.425-.575.5-1.443,1.245-1.5,1.847a.539.539,0,0,0,.031.25.774.774,0,0,0,.907.338,2.935,2.935,0,0,0,1.132-.75l.387-.35a27.754,27.754,0,0,0,2.293-2.231l.119-.135a15.793,15.793,0,0,1,2.447-2.4c.114-.083.234-.166.361-.251C145.973,478.468,146.846,475.1,147.521,472.3Z" transform="translate(-3.27 -219.98)" fill="#fff"/>
    <path id="Trazado_177" data-name="Trazado 177" d="M365.248,602.452l8.308,2.226.265-.987a63.794,63.794,0,0,1-8.275-1.2Z" transform="translate(-195.18 -368.985)" fill="#fff"/>
    <path id="Trazado_178" data-name="Trazado 178" d="M324.6,457.827l.158.035a3.626,3.626,0,0,1,1.355.631l3.306-12.339a.324.324,0,0,1,.4-.229l13.135,3.52.314-3.592-17.484-1.531Z" transform="translate(-161.267 -237.056)" fill="#fff"/>
    <path id="Trazado_179" data-name="Trazado 179" d="M315.039,416.14a2.129,2.129,0,0,0-.3.946,3.745,3.745,0,0,0,.145,1.032c.02.086.04.171.059.257a9.113,9.113,0,0,1-1.034,6.392l-.115,1.316,2.417.648a.324.324,0,0,1,.229.4l-3.34,12.464c2.284-.289,4.844-.306,6.706,1.889a.324.324,0,0,1-.494.419c-1.729-2.038-4.144-1.94-6.408-1.629a.324.324,0,0,1-.278.159.318.318,0,0,1-.084-.011.322.322,0,0,1-.136-.077l-.383.057c-.5.076-.977.147-1.433.2a46.976,46.976,0,0,1-8.392.1l-.042,0c-.4-.034-.8-.056-1.2-.07a8.976,8.976,0,0,0,.89.65.324.324,0,1,1-.338.553,11.826,11.826,0,0,1-3.082-2.9l-.1-.184c-.775-1.433-1.836-3.4-3.505-3.768l-.661-.148c-.395-.089-.79-.178-1.185-.264l-.017,0c-.235-.051-.95-.207-1.156-.057-.077.056-.075.262,0,.44.229.51.647.635,1.226.809l.1.031a7.345,7.345,0,0,1,2.1,1.174l.034.024a.322.322,0,0,1,.123.178,3.931,3.931,0,0,1,1.278.842.324.324,0,0,1-.474.442,5.71,5.71,0,0,0-2.1-1.1,4.9,4.9,0,0,1-2.414-1.427.322.322,0,0,1-.05-.122,1.732,1.732,0,0,1-.371-.5.327.327,0,0,1-.061.017.915.915,0,0,0-.512.275.812.812,0,0,0-.251.594c.027.545.684,1.133,1.212,1.607.129.116.25.225.359.329a3.074,3.074,0,0,0,.62.5,3.355,3.355,0,0,0,.361.162,2.656,2.656,0,0,1,.646.336.324.324,0,0,1-.394.514,2.142,2.142,0,0,0-.5-.25,3.9,3.9,0,0,1-.431-.2,3.646,3.646,0,0,1-.756-.6c-.1-.1-.218-.2-.342-.313a6.169,6.169,0,0,1-1.141-1.229c-.025.025-.049.051-.074.077a1.1,1.1,0,0,0-.259.4,1.325,1.325,0,0,0,.17.839.32.32,0,0,1,.065.138s0,.008,0,.011a5.8,5.8,0,0,0,.812,1.434,1.833,1.833,0,0,0,1.34.713h.016a.324.324,0,0,1,0,.648h-.018a2.472,2.472,0,0,1-1.833-.941,5.73,5.73,0,0,1-.822-1.391.813.813,0,0,0-.389.6.754.754,0,0,0,0,.1,1.33,1.33,0,0,0,.119.48c.058.14.13.279.212.432a6.668,6.668,0,0,0,.735,1.173,2.049,2.049,0,0,0,1.02.692.324.324,0,0,1-.078.638.328.328,0,0,1-.078-.01,2.648,2.648,0,0,1-1.358-.9,6.794,6.794,0,0,1-.761-1.192,1.728,1.728,0,0,0,.292,1.016c.074.128.153.252.237.384a5.236,5.236,0,0,1,.464.836c.069.17.123.347.174.517a1.727,1.727,0,0,0,.484.932,1.613,1.613,0,0,0,.719.217c.988.135,2.554.357,4.929.7h.011c2.865.412,5.71.827,5.738.832l.021,0a63.094,63.094,0,0,0,8.581,1.214h.026c1.288.092,2.6.144,3.887.156,1.937.015,5.2-.505,6.252-2.017.526-.756-.2-3.079-.686-4.615-.186-.591-.346-1.1-.427-1.475-1.2-5.559-1.912-9.9-2.482-13.387a84.974,84.974,0,0,0-2.059-10.16Z" transform="translate(-131.472 -213.523)" fill="#fff"/>
    <path id="Trazado_180" data-name="Trazado 180" d="M340.331,458.279l-3.3,12.323a12.44,12.44,0,0,1,2.033,3l.1.183a6.686,6.686,0,0,0,1.217,1.368.32.32,0,0,1,.11-.02h0c.624,0,1.258.034,1.884.087l.038,0a46.31,46.31,0,0,0,8.274-.094c.441-.046.908-.117,1.4-.191l.476-.071,3.326-12.415-2.367-.634h0Z" transform="translate(-171.637 -248.7)" fill="#9e9ea3"/>
    <path id="Trazado_181" data-name="Trazado 181" d="M244.408,1214.208a9.352,9.352,0,0,0,6.617.139,1.274,1.274,0,0,0,.621-.375,1.376,1.376,0,0,0,.141-.749c.016-2.29-.172-4.649-.354-6.931-.05-.63-.1-1.281-.149-1.92-.07-.466-.136-.93-.2-1.386a4.918,4.918,0,0,1-2.453.8q-.148.009-.3.008a5.616,5.616,0,0,1-4.186-1.918l-.528,11a1.558,1.558,0,0,0,.124.9A1.393,1.393,0,0,0,244.408,1214.208Z" transform="translate(-93.701 -869.087)" fill="#fff"/>
    <path id="Trazado_182" data-name="Trazado 182" d="M314.194,306.162c1.164-.069,2.015-1.5,2.144-2.249a.131.131,0,0,0-.034-.113.179.179,0,0,0-.135-.058h-.012l-4.2.249a.181.181,0,0,0-.139.075.132.132,0,0,0-.02.116C312.016,304.91,313.029,306.232,314.194,306.162Z" transform="translate(-150.583 -119.77)" fill="#fff"/>
    <path id="Trazado_183" data-name="Trazado 183" d="M321.08,1243.691a.324.324,0,0,1-.424.039,2.962,2.962,0,0,1-.743-.888,18.806,18.806,0,0,1-2.006-4.24.334.334,0,0,1-.011-.055v0a.318.318,0,0,1,0-.06s0,0,0-.005h0v-.005c.08-1,.176-2.029.284-3.067.023-.222.046-.441.068-.66a9.751,9.751,0,0,0-.8,6.211c.1.4.2,1.126.311,1.975a.324.324,0,0,1,.047.06,2.3,2.3,0,0,1,.119.24.323.323,0,0,1,.618.084c.075.565.246,2,.4,3.291l.032.126c2.059,3.637,5.779,3.473,8.5,3.352l.35-.015a3.615,3.615,0,0,0,3.326-2.219.346.346,0,0,1,.022-.048,2.388,2.388,0,0,0,.042-.339,3.773,3.773,0,0,0-.431-1.847c-.526-.887-1.2-1.854-1.887-2.808a.352.352,0,0,1-.031.033.324.324,0,0,1-.448-.006,4.965,4.965,0,0,0-3.252-1.252A5.865,5.865,0,0,0,321.08,1243.691Z" transform="translate(-155.129 -896.513)" fill="#fdd534"/>
    <path id="Trazado_184" data-name="Trazado 184" d="M331.841,1227.805c-.006-.109-.01-.22-.013-.331a3.351,3.351,0,0,1-.326.185,4.571,4.571,0,0,1-2.013.433,6.029,6.029,0,0,1-1.168-.117,5.807,5.807,0,0,1-2.652-1.253c-.029-.025-.056-.051-.084-.077-.064.663-.134,1.359-.208,2.069-.106,1.013-.2,2.021-.279,3a18.254,18.254,0,0,0,1.919,4.032,3.657,3.657,0,0,0,.368.519,6.313,6.313,0,0,1,4.327-2.083,5.205,5.205,0,0,1,2.215.466,8.947,8.947,0,0,1-.684-1.306l-.006-.016c-.083-.2-.154-.384-.214-.544a17.446,17.446,0,0,1-1.182-4.963Z" transform="translate(-161.684 -889.755)" fill="#fff"/>
    <path id="Trazado_185" data-name="Trazado 185" d="M332.705,920.693l.02.261a50.883,50.883,0,0,1,.141,5.8,74.5,74.5,0,0,1-.819,12.671c-.258,2.113-.526,4.3-.693,6.458-.218,2.815-.419,5.679-.613,8.449-.3,4.224-.6,8.59-.978,12.882a3.11,3.11,0,0,0,.4.517,5.012,5.012,0,0,0,2.6,1.338,4.663,4.663,0,0,0,2.461-.132,2.9,2.9,0,0,0,.581-.288c.038-.461.084-.92.132-1.4l.023-.234v-.011q.1-.74.194-1.466c.383-2.915.745-5.668,1.334-8.615.715-3.217,1.325-6.293,1.98-9.978.589-3.371,1.019-6.534,1.474-9.882.186-1.368.379-2.783.582-4.208.151-.972.306-1.936.457-2.869.536-3.323,1.043-6.465,1.319-9.754C341.354,919.358,338.53,918.793,332.705,920.693Z" transform="translate(-165.575 -633.437)" fill="#fff"/>
    <path id="Trazado_186" data-name="Trazado 186" d="M240.659,1209.395a9.923,9.923,0,0,1-3.738-.723,1.939,1.939,0,0,1-.96-.685,2.111,2.111,0,0,1-.228-1.287l.567-11.809q-.107-.183-.2-.373a32.932,32.932,0,0,0-.685,6.016l-.455,9.464a4.948,4.948,0,0,0,1.38,4.312c.094.123.189.247.281.371.187.25.371.509.549.759a11.278,11.278,0,0,0,1.916,2.259,4.649,4.649,0,0,0,4.125.287c.637-.306,1.37-1.931,1.959-4.347a20.387,20.387,0,0,0,.693-4.515c-.216-1.344-.457-2.729-.712-4.191.028.722.043,1.443.038,2.159a1.933,1.933,0,0,1-.257,1.115,1.817,1.817,0,0,1-.932.614A9.891,9.891,0,0,1,240.659,1209.395Z" transform="translate(-86.458 -862.951)" fill="#fdd534"/>
    <path id="Trazado_187" data-name="Trazado 187" d="M206.087,594.337c-2.19-8.717-5.146-20.485-7.236-26.781l-.177.66a.324.324,0,0,1-.313.24.33.33,0,0,1-.084-.011l-13.9-3.725c-2.369-.341-3.933-.562-4.919-.7a2.161,2.161,0,0,1-1.011-.335,2.247,2.247,0,0,1-.723-1.268c-.05-.163-.1-.318-.154-.46a4.682,4.682,0,0,0-.41-.732c-.084-.132-.172-.269-.253-.41a2.249,2.249,0,0,1-.361-1.516,1.371,1.371,0,0,1,.269-.6c-.018-.056-.034-.111-.047-.165-.337.03-.681.052-1.029.052a6.271,6.271,0,0,1-1.471-.16,5.478,5.478,0,0,1-.8-.258l.174,4.645a.324.324,0,0,1-.049.183,79.279,79.279,0,0,0-4.307,8.276,74.92,74.92,0,0,0-4.654,13.242c-.684,2.837-1.571,6.251-2.563,9.874-2.139,7.8-5.611,19.482-7.088,22.223a19.8,19.8,0,0,1,7.071,2.173,22.8,22.8,0,0,0,13.879,2.519.319.319,0,0,1,.075-.007,43.1,43.1,0,0,0,9.744-2.3c.213-.075.438-.152.688-.236,6.414-2.137,9.424-1.409,11.524-.415a20.708,20.708,0,0,1,1.9,1.06,9.106,9.106,0,0,0,5.507,1.759,12.8,12.8,0,0,0,7.035-2.055,7.556,7.556,0,0,0,1.846-1.752,59.678,59.678,0,0,1-6.074-14.8C207.638,600.512,206.919,597.65,206.087,594.337Z" transform="translate(-19.757 -332.042)" fill="#eeeef3"/>
    <path id="Trazado_188" data-name="Trazado 188" d="M326.194,1211.818a5.151,5.151,0,0,0,2.352,1.107,4.47,4.47,0,0,0,2.769-.262,1.831,1.831,0,0,0,1.1-1.375,1.6,1.6,0,0,0,.011-.229,3.485,3.485,0,0,1-.774.394,4.829,4.829,0,0,1-1.651.274,5.976,5.976,0,0,1-1.158-.115,5.587,5.587,0,0,1-2.938-1.524,3.7,3.7,0,0,1-.541-.714l0-.007a1.512,1.512,0,0,0-.133.457A2.363,2.363,0,0,0,326.194,1211.818Z" transform="translate(-161.783 -875.341)" fill="#fdd534"/>
    <path id="Trazado_189" data-name="Trazado 189" d="M322.348,1302.143c.1.948.176,1.81.228,2.363l.008.087.179.1c-.052-.447-.125-1.072-.2-1.737C322.5,1302.731,322.43,1302.449,322.348,1302.143Z" transform="translate(-159.388 -952.744)" fill="#fdd534"/>
    <path id="Trazado_190" data-name="Trazado 190" d="M336.92,1317.983c-.516.023-1.079.048-1.666.048a12,12,0,0,1-3.087-.346,6.7,6.7,0,0,1-3.631-2.334c.066.564.109.945.111.958a.321.321,0,0,1-.013.134c.09.339.228.985.42,1.9.119.565.242,1.149.332,1.536a1.059,1.059,0,0,0,.555.708c3.006,1.522,6.919.734,8.462.325a.728.728,0,0,0,.491-.441c.3-.787.835-2.327,1.231-3.641a4.341,4.341,0,0,1-2.856,1.138Z" transform="translate(-164.551 -963.764)" fill="#fdd534"/>
    <path id="Trazado_191" data-name="Trazado 191" d="M264.27,934.216a50.21,50.21,0,0,0-.139-5.743l-.007-.1-.284.1a44.218,44.218,0,0,1-9.523,2.293c.513,1.436,1.129,3.239,1.623,5.071a.324.324,0,1,1-.625.169c-.12-.445-.247-.886-.377-1.319-1.7,5.309-2.294,10.956-2.865,16.429a89.572,89.572,0,0,1-2.435,15.015c-.055.2-.111.391-.17.586-.342,1.148-.728,2.262-1.147,3.314a4.246,4.246,0,0,0,4.287,3.033,3.643,3.643,0,0,0,2.39-1.043l.015-.073h0v0c.24-1.2.485-2.386.727-3.517.012-.063.027-.131.043-.2a257,257,0,0,1,7.238-26.623,26.658,26.658,0,0,0,1.249-7.383Z" transform="translate(-97.627 -640.907)" fill="#fff"/>
    <path id="Trazado_192" data-name="Trazado 192" d="M250.972,1169.563a4.274,4.274,0,0,1-2.882,1.3c-.088.005-.177.008-.265.008a4.9,4.9,0,0,1-4.714-3.627s0-.007,0-.01v0c-.015-.061-.029-.122-.041-.182v0h0a.33.33,0,0,1-.006-.064c0-.007,0-.015,0-.022v-.008c0-.01,0-.02,0-.029a.323.323,0,0,1,.223-.286c.245-.632.478-1.287.7-1.957-.022.022-.044.043-.065.065a3.982,3.982,0,0,0-1.018,3.257,4.309,4.309,0,0,0,.089.47c.017.07.035.137.055.2a4.5,4.5,0,0,0,.477,1.073h0a4.945,4.945,0,0,0,4.448,2.356,4.215,4.215,0,0,0,2.526-.986c.046-.038.089-.078.132-.117a3.919,3.919,0,0,0,1.25-2.957,4.018,4.018,0,0,1-.854,1.462C251.006,1169.527,250.989,1169.545,250.972,1169.563Z" transform="translate(-93.072 -838.06)" fill="#fdd534"/>
    <path id="Trazado_193" data-name="Trazado 193" d="M285.263,221.476a.229.229,0,0,0,.338.308,2.681,2.681,0,0,1,1.646-.744q-.258.258-.54.492a.324.324,0,0,0,.413.5,8.577,8.577,0,0,0,1.037-1.018,2.132,2.132,0,0,1,.842.192.229.229,0,0,0,.24-.389,2.063,2.063,0,0,0-.741-.226,8.788,8.788,0,0,0,1.728-4.291.324.324,0,0,0-.644-.073,8.146,8.146,0,0,1-1.879,4.321A3.468,3.468,0,0,0,285.263,221.476Z" transform="translate(-128.398 -46.514)" fill="#000004"/>
    <path id="Trazado_194" data-name="Trazado 194" d="M322.923,282.779h.021a.267.267,0,0,0,.246-.286l-.127-1.648a.267.267,0,1,0-.532.041l.127,1.647A.267.267,0,0,0,322.923,282.779Z" transform="translate(-159.541 -100.459)" fill="#000004"/>
    <path id="Trazado_195" data-name="Trazado 195" d="M298.68,264.379a.768.768,0,1,0,.633.711A.683.683,0,0,0,298.68,264.379Z" transform="translate(-139.186 -86.927)" fill="#000004"/>
    <path id="Trazado_196" data-name="Trazado 196" d="M341.921,263.316a.768.768,0,1,0-.633-.711A.683.683,0,0,0,341.921,263.316Z" transform="translate(-175.189 -84.795)" fill="#000004"/>
    <path id="Trazado_197" data-name="Trazado 197" d="M308.7,301.073a.665.665,0,0,0-.095.574,3.464,3.464,0,0,0,2.82,2.364c.039,0,.078,0,.117,0,1.462-.087,2.48-1.771,2.638-2.69a.665.665,0,0,0-.162-.559.71.71,0,0,0-.577-.235l-4.2.249A.712.712,0,0,0,308.7,301.073Zm.437.306a.181.181,0,0,1,.139-.075l4.2-.249h.012a.179.179,0,0,1,.135.058.132.132,0,0,1,.034.113c-.129.748-.98,2.18-2.144,2.249s-2.178-1.252-2.395-1.98A.132.132,0,0,1,309.133,301.379Z" transform="translate(-147.896 -117.082)" fill="#000004"/>
    <path id="Trazado_198" data-name="Trazado 198" d="M417.787,398.25h.023a.229.229,0,0,0,.227-.206c.261-2.563.6-5.151,1.024-7.692a.229.229,0,1,0-.451-.074c-.421,2.551-.767,5.148-1.028,7.721A.229.229,0,0,0,417.787,398.25Z" transform="translate(-238.843 -191.807)" fill="#000004"/>
    <path id="Trazado_199" data-name="Trazado 199" d="M189.049,270.354c-.541-2.047-1.259-4.906-2.091-8.218-2.256-8.981-5.325-21.2-7.432-27.37,1.147.073,2.3.117,3.451.128h.092c1.818,0,5.431-.474,6.7-2.3.707-1.017-.018-3.325-.6-5.179-.181-.576-.337-1.073-.412-1.418-1.2-5.543-1.907-9.874-2.476-13.355a80.852,80.852,0,0,0-2.22-10.72c.175-.209.363-.414.547-.613l.039-.042a3.681,3.681,0,0,0,1.3-2.846.324.324,0,0,0-.236-.27c-.386-.106-.762-.221-1.125-.332a10.5,10.5,0,0,0-4.178-.665l-.108-.044c-.685-.277-1.449-.568-2.326-.885.024-.409.029-.832.014-1.263a31.354,31.354,0,0,0-.75-5.146q-.071-.349-.141-.7a109.685,109.685,0,0,1-1.678-11.631q-.047-.517-.09-1.035a38.4,38.4,0,0,0-.837-6.026c-.628-2.525-1.565-5.382-3.76-7.425-1.092-1.017-3.977-3.316-7.159-2.724a5.385,5.385,0,0,1-1.2.027,6.942,6.942,0,0,0-1.2.011,10.439,10.439,0,0,0-2.361.583,10.194,10.194,0,0,0-3.853,2.6c-2.073,2.236-3.194,5.361-3.529,9.835a40.2,40.2,0,0,0,0,4.511,28.436,28.436,0,0,1-1.024,10.1,32.167,32.167,0,0,0-1.083,6.709,9.389,9.389,0,0,0,.106,1.666c-.757.277-1.431.535-2.052.786l-.108.044a9.525,9.525,0,0,0-4.16.548,1.4,1.4,0,0,0-.609.38,1.344,1.344,0,0,0-.258.9,4.838,4.838,0,0,0,1.031,2.955,9.346,9.346,0,0,0,.863.914c.131.127.266.257.394.389a44.067,44.067,0,0,0-.708,7.953c-.032,1.108-.062,2.155-.124,3.179l-.891,14.544c-.456,3.169-.712,6.832-.982,10.71a114.946,114.946,0,0,1-1.607,14.6c-.209.314-.4.635-.593.95a14.165,14.165,0,0,1-.9,1.382c-.316.409-.629.83-.932,1.237-.384.516-.781,1.05-1.185,1.561-1.306,1.651-2.772,3.359-4.613,5.375a1.766,1.766,0,0,0-.635,1.62,1.212,1.212,0,0,0,.939.813.9.9,0,0,0,.066.143,1.272,1.272,0,0,0,1.067.588h0a1.144,1.144,0,0,0,.047.162,1.32,1.32,0,0,0,1.279.783,1.6,1.6,0,0,0,.394-.049,3.47,3.47,0,0,0,1.406-.9l.386-.348a28.678,28.678,0,0,0,2.345-2.284l.12-.136a17.384,17.384,0,0,1,2.047-2.075c-3.129,11.326-6.178,20.711-7.012,21.552a.324.324,0,0,0,.208.551,19.8,19.8,0,0,1,7.335,2.143,22.171,22.171,0,0,0,11.136,2.765q1.421,0,2.912-.143c.307.857.636,1.8.954,2.79-1.947,5.623-2.574,11.621-3.18,17.422a89.074,89.074,0,0,1-2.414,14.906c-.043.154-.088.307-.134.461a4.591,4.591,0,0,0-2.07,4.521c.02.152.049.3.083.451a29.139,29.139,0,0,0-.955,7.07l-.455,9.464a5.555,5.555,0,0,0,1.513,4.737c.093.121.186.243.277.365.183.244.364.5.54.747a11.935,11.935,0,0,0,2.032,2.383,4.4,4.4,0,0,0,2.713.783,5.068,5.068,0,0,0,2.105-.412c.859-.412,1.635-2.019,2.309-4.778a20.124,20.124,0,0,0,.7-4.771c-.223-1.39-.473-2.821-.737-4.335-.37-2.119-.753-4.309-1.082-6.519-.053-.731-.092-1.341-.122-1.906a4.59,4.59,0,0,0,1.3-3.9,5.1,5.1,0,0,0-.489-1.6c-.03-.145-.068-.289-.113-.431a256.366,256.366,0,0,1,7.2-26.475q.31-.939.545-1.93c-.162,2.334-.446,4.659-.725,6.941-.259,2.12-.527,4.312-.7,6.487-.219,2.817-.419,5.683-.614,8.454-.281,4-.571,8.129-.919,12.2l-.013,0-.033.007-.014,0-.015.007-.031.014-.027.015-.025.018-.026.023-.012.01a2.235,2.235,0,0,0-.6,1.25,2.619,2.619,0,0,0,.51,1.824q-.022.238-.045.475a10.283,10.283,0,0,0-1.58,7.892c.292,1.222.7,5.586.853,7.229l.024.259a.324.324,0,0,0,.17.256c.259.138.569.317.691.4.077.245.286,1.236.441,1.971.12.569.244,1.156.335,1.549a1.707,1.707,0,0,0,.893,1.139,10.1,10.1,0,0,0,4.553.964,17.614,17.614,0,0,0,4.368-.591,1.378,1.378,0,0,0,.929-.834,36.426,36.426,0,0,0,1.781-5.973,4.408,4.408,0,0,0-.521-2.193c-.626-1.056-1.452-2.207-2.251-3.32s-1.605-2.237-2.217-3.267a.318.318,0,0,0-.04-.057,16.618,16.618,0,0,1-.894-4.118c-.014-.274-.02-.555-.019-.854a2.194,2.194,0,0,0,.494-1.127,2.348,2.348,0,0,0-.1-1.02c0-.005,0-.009-.006-.015a.3.3,0,0,0-.014-.032.287.287,0,0,0-.015-.027l-.018-.025a.307.307,0,0,0-.023-.027l-.01-.012-.01-.008-.028-.022-.024-.016-.03-.014-.028-.011-.032-.008-.019,0c.028-.3.058-.6.089-.911l.023-.228q.1-.738.193-1.463c.381-2.9.742-5.646,1.326-8.565.715-3.22,1.327-6.3,1.984-10,.591-3.384,1.022-6.553,1.478-9.907.186-1.367.378-2.781.581-4.2.15-.966.305-1.929.456-2.861.525-3.251,1.021-6.331,1.3-9.554.5.259.964.542,1.419.818a9.763,9.763,0,0,0,5.862,1.852,13.4,13.4,0,0,0,7.42-2.194,7.432,7.432,0,0,0,2.107-2.09.324.324,0,0,0-.007-.337A57.973,57.973,0,0,1,189.049,270.354Zm-3.409-57.6c.57,3.487,1.279,7.828,2.482,13.387.081.374.241.884.427,1.475.483,1.537,1.212,3.859.686,4.615-1.052,1.512-4.315,2.033-6.251,2.017-1.292-.012-2.6-.065-3.887-.156h-.026a63.09,63.09,0,0,1-8.581-1.214l-.021,0c-.028,0-2.873-.419-5.738-.832h-.011c-2.375-.341-3.941-.564-4.929-.7a1.614,1.614,0,0,1-.719-.217,1.727,1.727,0,0,1-.484-.932c-.052-.17-.1-.346-.174-.517a5.24,5.24,0,0,0-.464-.836c-.084-.132-.163-.256-.237-.384a1.728,1.728,0,0,1-.292-1.016,6.794,6.794,0,0,0,.761,1.192,2.649,2.649,0,0,0,1.358.9.324.324,0,1,0,.156-.629,2.05,2.05,0,0,1-1.019-.693,6.661,6.661,0,0,1-.734-1.173c-.082-.153-.154-.292-.212-.432a1.33,1.33,0,0,1-.119-.48.75.75,0,0,1,0-.1.813.813,0,0,1,.389-.6,5.73,5.73,0,0,0,.822,1.391,2.472,2.472,0,0,0,1.833.941h.018a.324.324,0,0,0,0-.648h-.016a1.833,1.833,0,0,1-1.34-.713,5.805,5.805,0,0,1-.812-1.434s0-.007,0-.011a.32.32,0,0,0-.065-.138,1.324,1.324,0,0,1-.17-.839,1.1,1.1,0,0,1,.259-.4c.024-.027.049-.053.074-.077a6.168,6.168,0,0,0,1.141,1.229c.124.112.242.217.342.313a3.645,3.645,0,0,0,.756.6,3.888,3.888,0,0,0,.431.2,2.143,2.143,0,0,1,.5.25.324.324,0,1,0,.394-.514,2.657,2.657,0,0,0-.647-.336,3.343,3.343,0,0,1-.361-.162,3.074,3.074,0,0,1-.62-.5c-.109-.1-.23-.213-.359-.329-.528-.473-1.185-1.062-1.212-1.607a.812.812,0,0,1,.251-.594.914.914,0,0,1,.512-.275.328.328,0,0,0,.061-.017,1.731,1.731,0,0,0,.371.5.322.322,0,0,0,.05.122,4.9,4.9,0,0,0,2.414,1.427,5.709,5.709,0,0,1,2.1,1.1.324.324,0,0,0,.474-.442,3.931,3.931,0,0,0-1.278-.842.322.322,0,0,0-.123-.178l-.034-.024a7.346,7.346,0,0,0-2.1-1.174l-.1-.031c-.579-.173-1-.3-1.226-.809-.08-.178-.082-.383,0-.44.206-.15.921.006,1.156.057l.017,0c.4.086.79.175,1.185.264l.661.148c1.67.373,2.731,2.335,3.506,3.768l.1.184a11.825,11.825,0,0,0,3.082,2.9.324.324,0,1,0,.338-.553,8.973,8.973,0,0,1-.89-.65c.4.014.8.037,1.2.07l.042,0a46.972,46.972,0,0,0,8.392-.1c.455-.048.93-.119,1.433-.2l.383-.057a.32.32,0,0,0,.5-.071c2.264-.311,4.679-.409,6.408,1.629a.324.324,0,0,0,.494-.419c-1.862-2.195-4.423-2.178-6.706-1.889l3.34-12.464a.324.324,0,0,0-.229-.4l-2.417-.648.115-1.316a9.113,9.113,0,0,0,1.034-6.391c-.019-.086-.039-.171-.059-.257a3.746,3.746,0,0,1-.145-1.032,2.13,2.13,0,0,1,.3-.946l.014-.024A84.967,84.967,0,0,1,185.64,212.752Zm-7,21.953-.265.988-8.308-2.226.3.044A63.8,63.8,0,0,0,178.64,234.706Zm3.044-22.317-13.135-3.52a.324.324,0,0,0-.4.229l-3.306,12.339a3.625,3.625,0,0,0-1.356-.631l-.158-.035,1.182-13.5L182,208.8Zm2.572,1.36-3.326,12.415-.476.071c-.5.075-.963.145-1.4.191a46.31,46.31,0,0,1-8.274.094l-.038,0c-.626-.053-1.259-.082-1.884-.087h0a.321.321,0,0,0-.11.02,6.686,6.686,0,0,1-1.217-1.368l-.1-.183a12.442,12.442,0,0,0-2.033-3l3.3-12.323,13.194,3.536h0Zm-40.481-12.2a4.187,4.187,0,0,1-.892-2.558.785.785,0,0,1,.106-.481.864.864,0,0,1,.342-.191,8.885,8.885,0,0,1,3.95-.5.308.308,0,0,0,.089,0c.017.057.035.115.052.172A41.058,41.058,0,0,1,149.046,208a.229.229,0,0,0,.228.22h.008a.229.229,0,0,0,.22-.237,41.505,41.505,0,0,0-1.643-10.125c-.02-.07-.042-.14-.063-.211.633-.253,1.322-.514,2.1-.8l.02-.008c1.04-.377,2.122-.75,3.076-1.076a8.579,8.579,0,0,0,3.722,5.471.324.324,0,0,0,.369-.533l-.155-.11-.125-.091h0a8.088,8.088,0,0,1-3.356-5.938v-.005q-.013-.1-.024-.207v-.01q-.011-.1-.021-.205v-.014q-.01-.1-.018-.2V193.9q-.008-.1-.015-.2v-.021q-.007-.1-.012-.2c0-.008,0-.016,0-.024q-.005-.1-.01-.2v-.028q0-.1-.007-.2v-.031q0-.1-.005-.2v-.033q0-.1,0-.2v-.036q0-.1,0-.2v-.039q0-.1,0-.2c0-.014,0-.028,0-.042q0-.1,0-.2c0-.015,0-.029,0-.044q0-.1,0-.2c0-.015,0-.03,0-.046q0-.1.006-.2v-.051q0-.1.007-.2l0-.052q0-.1.008-.2c0-.017,0-.034,0-.052q0-.1.01-.206c0-.018,0-.036,0-.054,0-.069.007-.138.011-.208,0-.018,0-.036,0-.055,0-.069.008-.138.012-.208,0-.02,0-.041,0-.061q.006-.1.013-.206c0-.02,0-.04,0-.06q.007-.1.014-.209l0-.063q.007-.1.014-.21c0-.021,0-.041,0-.062,0-.071.01-.142.015-.214l0-.062.016-.218,0-.06q.008-.11.017-.22l.006-.077c.005-.069.011-.138.016-.207l.007-.086c.005-.068.011-.136.016-.2,0-.019,0-.039,0-.058l.018-.228c0-.056.009-.113.014-.17l.01-.127.024-.3a.324.324,0,0,0-.646-.052,36.3,36.3,0,0,0-.1,8.225c-.874.3-1.862.639-2.832.987a8.956,8.956,0,0,1-.079-1.429,31.68,31.68,0,0,1,1.066-6.573,29.042,29.042,0,0,0,1.041-10.274,39.773,39.773,0,0,1,0-4.438c.323-4.32,1.39-7.32,3.358-9.443a9.54,9.54,0,0,1,3.606-2.438,9.787,9.787,0,0,1,2.214-.547,6.4,6.4,0,0,1,1.088-.006,5.915,5.915,0,0,0,1.354-.037c2.893-.538,5.579,1.611,6.6,2.561,2.07,1.927,2.968,4.674,3.572,7.107a37.914,37.914,0,0,1,.82,5.924q.044.519.09,1.038a110.345,110.345,0,0,0,1.688,11.7q.07.35.142.7a30.869,30.869,0,0,1,.738,5.039c.012.344.01.682,0,1.011-.63-.224-1.333-.469-2.17-.756a31.8,31.8,0,0,1-1.158-7.191.324.324,0,0,0-.647.029,32.436,32.436,0,0,0,1.064,6.91l-.5-.171c-.833-.284-1.623-.553-2.386-.819.022-.354.038-.736.052-1.181a26.267,26.267,0,0,0-.414-6.162.324.324,0,0,0-.639.1,25.746,25.746,0,0,1,.406,6.039c-.011.362-.024.68-.04.976l-.644-.231a.324.324,0,0,0-.434.315s0,.016,0,.042c-1.113-.458-1.766-.96-1.982-1.976a13.491,13.491,0,0,1-.111-3.081c.01-.277.02-.539.026-.791a.314.314,0,0,0-.007-.071,11.875,11.875,0,0,0,1-.882,7.43,7.43,0,0,0,1.734-2.619,15.428,15.428,0,0,0,.6-1.976.331.331,0,0,0,.016-.057l.007-.041c.012-.052.024-.1.036-.156.035-.154.07-.316.11-.511a3.614,3.614,0,0,0,.378-.168v1.3a1.229,1.229,0,1,0,.648,0v-1.7a3.757,3.757,0,0,0,.734-.734l.016-.024.285-.464.014-.026a3.218,3.218,0,0,0,.157-.371,3.454,3.454,0,0,0,.12-1.747,3.248,3.248,0,0,0-1.019-1.894,2.191,2.191,0,0,0-.356-.247c-.137-.245-.26-.488-.354-.678a34.021,34.021,0,0,1-2.134-5.469,11.719,11.719,0,0,0-.6-3.93.324.324,0,1,0-.617.2,10.5,10.5,0,0,1,.508,4.452,6.758,6.758,0,0,1-1.4,3.428,4.554,4.554,0,0,0-2.4.228c1.389-1.569,1.867-4.33,1.461-8.439a.324.324,0,0,0-.645.064c.385,3.9-.062,6.58-1.329,7.979a4.2,4.2,0,0,1-3.3,1.264.324.324,0,1,0,0,.648,5.051,5.051,0,0,0,3.432-1.13.227.227,0,0,0,.367.146,3.6,3.6,0,0,1,2.056-.352c-.032.032-.063.065-.1.1a2.042,2.042,0,0,1-1.286.675.324.324,0,0,0,.01.648h.01a2.649,2.649,0,0,0,1.716-.856q.2-.193.384-.406a2.018,2.018,0,0,1,.648.368.229.229,0,0,0,.3-.345,2.374,2.374,0,0,0-.652-.394,7.307,7.307,0,0,0,1.244-2.793,34.661,34.661,0,0,0,1.744,4.21c.049.1.107.215.17.337a.32.32,0,0,0-.056.115.324.324,0,0,0,.233.395,1.36,1.36,0,0,1,.524.286,2.593,2.593,0,0,1,.8,1.515,2.845,2.845,0,0,1-.094,1.419,2.513,2.513,0,0,1-.119.284l-.27.439a2.927,2.927,0,0,1-.253.291.323.323,0,0,0-.6.167v.314c-.08.051-.162.1-.247.144l-.027.014.2-1.118a.324.324,0,1,0-.638-.112l-.444,2.523a14.959,14.959,0,0,1-.59,1.97,6.787,6.787,0,0,1-1.585,2.391,9.875,9.875,0,0,1-3.441,2.263,4.676,4.676,0,0,1-.529.155,4.142,4.142,0,0,1-.523.07l-.106,0h-.034a3.846,3.846,0,0,1-.391-.013,4.336,4.336,0,0,1-.542-.091,8.767,8.767,0,0,1-2.325-.935l-.013-.007a11.219,11.219,0,0,1-1.348-.9A6.786,6.786,0,0,1,157.189,185a15.285,15.285,0,0,1-.873-2.034l-.6-2.528a.324.324,0,1,0-.63.15l.327,1.373-.1-.037-.1-.042v-.5a.324.324,0,1,0-.648,0v.148a3.014,3.014,0,0,1-.452-.383l-.32-.4a2.54,2.54,0,0,1-.152-.269,2.847,2.847,0,0,1-.26-1.4c.045-.772.532-1.959,1.295-2.084a.634.634,0,0,1,.508.145.324.324,0,0,0,.426-.488,1.217,1.217,0,0,0-.1-.081,4.07,4.07,0,0,0,1.006-1.452,17.467,17.467,0,0,0,1.5-8.407.324.324,0,0,0-.646.046,16.82,16.82,0,0,1-1.447,8.094c-.311.687-.833,1.509-1.557,1.522a.322.322,0,0,0-.257.137,3.2,3.2,0,0,0-1.372,2.529,3.455,3.455,0,0,0,.325,1.72,3.219,3.219,0,0,0,.2.351l.017.024.338.427.019.022a3.8,3.8,0,0,0,.932.708v1.448a1.229,1.229,0,1,0,.648,0V182.58c.111.038.218.07.322.1.063.189.116.346.169.493a15.916,15.916,0,0,0,.917,2.138,7.43,7.43,0,0,0,2.031,2.4,11.839,11.839,0,0,0,1.262.855c.006.219.015.438.024.652a10.917,10.917,0,0,1-.108,2.72c-.216,1.016-.87,1.517-1.982,1.976v-.042a.324.324,0,0,0-.434-.315c-.409.148-.867.311-1.39.493a38.214,38.214,0,0,1-.541-3.826l-.037-.342a.324.324,0,1,0-.644.07l.037.341a21.6,21.6,0,0,0,1.548,6.981l.012.024a3.987,3.987,0,0,0,1.244,1.4.342.342,0,0,0,.038.021l.039.015a.341.341,0,0,0,.049.012h0a.316.316,0,0,0,.05,0,.324.324,0,0,0,.177-.6,3.342,3.342,0,0,1-1.028-1.164,12.8,12.8,0,0,1-.8-2.3c.377-.131.72-.252,1.036-.365,0,.028,0,.055,0,.084a2.243,2.243,0,0,0,.334,1.234c.415.519,3.279,1.523,6.152,1.574l.04,0h.2l.04,0c2.877-.052,5.738-1.056,6.153-1.574a2.24,2.24,0,0,0,.334-1.233c0-.029,0-.057,0-.085l.627.222c.837.294,1.7.59,2.624.9l1.079.368h0c1.084.37,1.945.671,2.707.945l.02.008c.967.347,1.795.661,2.531.959l.179.073a.32.32,0,0,0,.152.022,9.872,9.872,0,0,1,4.007.633c.3.091.6.185.921.275a3.469,3.469,0,0,1-1.145,2.113l-.039.042c-.229.248-.466.5-.684.778l-.011.015a5,5,0,0,0-.43.627,2.757,2.757,0,0,0-.387,1.231,4.287,4.287,0,0,0,.161,1.214c.019.083.038.165.057.248a8.308,8.308,0,0,1-.226,4.253l.062-.712a.324.324,0,0,0-.294-.351l-18.129-1.587a.32.32,0,0,0-.237.075.324.324,0,0,0-.115.22l-1.2,13.741c-.351-.079-.7-.158-1.053-.234l-.016,0a2.234,2.234,0,0,0-1.676.052.825.825,0,0,0-.321.691h-.015a1.552,1.552,0,0,0-.88.477,1.443,1.443,0,0,0-.42,1.063,1.4,1.4,0,0,0,.025.193,2.457,2.457,0,0,0-.294.277,1.7,1.7,0,0,0-.4.654,1.639,1.639,0,0,0,.1,1.035,1.459,1.459,0,0,0-.758,1.015,7.146,7.146,0,0,1-2.323-.089,5.224,5.224,0,0,1-1.144-.431,14.006,14.006,0,0,1-2.249-1.539l-.166-.131a14.041,14.041,0,0,1-2.557-2.4,1.367,1.367,0,0,1-.289-.529,1.668,1.668,0,0,1,.085-.7,41.513,41.513,0,0,0,1.2-7.4h0v0c.08-1.123.114-2.265.1-3.392a.324.324,0,0,0-.324-.32h0a.324.324,0,0,0-.32.328c.011.975-.013,1.96-.073,2.935a5.46,5.46,0,0,1-1.808-.859,3.322,3.322,0,0,1-1.216-2.9,6.853,6.853,0,0,1,.2-.976,8.054,8.054,0,0,0,.211-.984,4.243,4.243,0,0,0-.747-2.976,5.351,5.351,0,0,0-.46-.554h0c-.173-.184-.355-.361-.532-.532A8.715,8.715,0,0,1,143.775,201.544Zm16.805-12.363c0-.087-.007-.175-.011-.264a8.956,8.956,0,0,0,2.018.746,4.983,4.983,0,0,0,.619.1h.013a3.545,3.545,0,0,0,.366.02c.056,0,.112,0,.165,0l.088-.006h.011a4.755,4.755,0,0,0,.609-.083h.015a3.533,3.533,0,0,0,.6-.174h0a9.08,9.08,0,0,0,2.025-1.053c0,.117-.008.237-.013.36a13.933,13.933,0,0,0,.124,3.241,3.534,3.534,0,0,0,2.583,2.527,1.436,1.436,0,0,1-.171.631,13.218,13.218,0,0,1-11.573,0,1.429,1.429,0,0,1-.172-.633,3.534,3.534,0,0,0,2.583-2.526A11.4,11.4,0,0,0,160.58,189.181Zm11.376-5.7a.581.581,0,1,1-.581.581A.582.582,0,0,1,171.957,183.477Zm-16.492,1.447a.581.581,0,1,1-.581-.581A.582.582,0,0,1,155.465,184.924ZM153.239,230.7c-.294.483-1.788,2.976-3.538,6.641.121-1.607.236-3.288.324-5.008a62.292,62.292,0,0,1,1.076-7.693l.026-.142a13.89,13.89,0,0,0,1.93,1.315Zm-11.876,31.611a15.791,15.791,0,0,0-2.447,2.4l-.119.135a27.724,27.724,0,0,1-2.293,2.231l-.387.35a2.934,2.934,0,0,1-1.132.75.774.774,0,0,1-.907-.338.539.539,0,0,1-.031-.25c.058-.6.926-1.351,1.5-1.847.188-.162.35-.3.474-.425a33.541,33.541,0,0,0,3.429-3.851.324.324,0,1,0-.513-.4,32.586,32.586,0,0,1-3.371,3.786c-.109.108-.263.241-.441.395a5.146,5.146,0,0,0-1.669,2.008h-.017a.63.63,0,0,1-.525-.269.185.185,0,0,1-.03-.1,1.3,1.3,0,0,1,.335-.561c.059-.073.121-.149.178-.227a20.775,20.775,0,0,1,1.447-1.691c.256-.278.52-.566.777-.861a25.064,25.064,0,0,0,2.193-2.935.324.324,0,1,0-.545-.35,24.429,24.429,0,0,1-2.136,2.859c-.251.288-.512.573-.765.848a21.553,21.553,0,0,0-1.491,1.744c-.049.066-.1.134-.161.2a2.675,2.675,0,0,0-.395.589.525.525,0,0,1-.348-.325c-.09-.316.2-.686.49-1.006,1.852-2.028,3.327-3.747,4.643-5.41.41-.519.81-1.056,1.2-1.576.3-.4.613-.823.925-1.227a14.856,14.856,0,0,0,.946-1.445,15.509,15.509,0,0,1,.855-1.321.324.324,0,0,0-.058-.448,123.647,123.647,0,0,0,1.494-14.074c.27-3.871.525-7.528.979-10.676,0-.009,0-.018,0-.026l.892-14.557c.063-1.035.093-2.087.125-3.2a46.907,46.907,0,0,1,.594-7.345,3.588,3.588,0,0,1,.619,2.5,7.434,7.434,0,0,1-.2.9,7.423,7.423,0,0,0-.221,1.07,3.984,3.984,0,0,0,1.459,3.475,6.391,6.391,0,0,0,2.163,1.014,40.885,40.885,0,0,1-1.167,7.035,2.183,2.183,0,0,0-.091.984,1.968,1.968,0,0,0,.409.8,13.936,13.936,0,0,0,2.517,2.4l-.087.479a62.736,62.736,0,0,0-1.086,7.776c-.119,2.339-.289,4.61-.456,6.718a75.512,75.512,0,0,0-4.67,13.3c-.675,2.8-1.548,6.164-2.526,9.737C141.6,262.145,141.477,262.228,141.363,262.312Zm17.113,82.943a1.933,1.933,0,0,0,.257-1.114c0-.716-.01-1.437-.038-2.159.255,1.462.5,2.847.712,4.191a20.386,20.386,0,0,1-.693,4.515c-.59,2.417-1.322,4.042-1.959,4.347a4.65,4.65,0,0,1-4.125-.287,11.282,11.282,0,0,1-1.916-2.259c-.178-.25-.362-.509-.549-.759-.093-.124-.187-.247-.281-.371a4.948,4.948,0,0,1-1.38-4.312l.455-9.464a32.937,32.937,0,0,1,.685-6.016q.091.19.2.373l-.567,11.809a2.11,2.11,0,0,0,.228,1.287,1.939,1.939,0,0,0,.96.685,10.007,10.007,0,0,0,7.08.148A1.817,1.817,0,0,0,158.476,345.255Zm-8.553-1.474.528-11a5.616,5.616,0,0,0,4.186,1.918q.148,0,.3-.008a4.917,4.917,0,0,0,2.453-.8c.063.456.129.92.2,1.386.047.64.1,1.291.149,1.92.182,2.282.37,4.642.354,6.932a1.376,1.376,0,0,1-.141.749,1.275,1.275,0,0,1-.621.375,9.353,9.353,0,0,1-6.617-.139,1.392,1.392,0,0,1-.661-.438A1.558,1.558,0,0,1,149.923,343.78Zm7.631-10.837c-.043.04-.086.079-.132.118a4.218,4.218,0,0,1-2.526.986,4.946,4.946,0,0,1-4.448-2.356h0a4.5,4.5,0,0,1-.477-1.073c-.02-.065-.038-.132-.055-.2a4.3,4.3,0,0,1-.089-.47,3.982,3.982,0,0,1,1.018-3.257c.021-.022.044-.043.065-.065-.218.67-.451,1.324-.7,1.957a.323.323,0,0,0-.223.286c0,.009,0,.019,0,.029v.008c0,.007,0,.015,0,.022a.332.332,0,0,0,.006.064h0v0c.012.06.026.121.041.182v0s0,.007,0,.01a4.9,4.9,0,0,0,4.714,3.627c.088,0,.176,0,.265-.007a4.275,4.275,0,0,0,2.882-1.3c.018-.018.034-.035.05-.054a4.019,4.019,0,0,0,.854-1.462A3.919,3.919,0,0,1,157.553,332.944Zm7.841-32.244a257.006,257.006,0,0,0-7.238,26.624c-.015.067-.03.135-.043.2-.243,1.131-.487,2.314-.727,3.517v0h0l-.015.073a3.642,3.642,0,0,1-2.39,1.043,4.246,4.246,0,0,1-4.287-3.033c.419-1.052.805-2.166,1.147-3.314.058-.195.115-.39.17-.586a89.575,89.575,0,0,0,2.435-15.015c.571-5.472,1.162-11.12,2.865-16.429q.2.65.377,1.319a.324.324,0,0,0,.625-.169c-.495-1.832-1.111-3.635-1.623-5.071a44.216,44.216,0,0,0,9.523-2.293l.284-.1.007.1a50.194,50.194,0,0,1,.139,5.743v.008A26.655,26.655,0,0,1,165.394,300.7Zm-1.947,33.785a1.512,1.512,0,0,1,.133-.457l0,.007a3.694,3.694,0,0,0,.541.714,5.59,5.59,0,0,0,2.938,1.524,5.985,5.985,0,0,0,1.158.115,4.83,4.83,0,0,0,1.651-.274,3.487,3.487,0,0,0,.774-.394,1.592,1.592,0,0,1-.011.229,1.83,1.83,0,0,1-1.1,1.374,4.47,4.47,0,0,1-2.769.262,5.153,5.153,0,0,1-2.352-1.107A2.363,2.363,0,0,1,163.447,334.484Zm-.252,17.365-.008-.086c-.052-.554-.132-1.415-.228-2.363.083.306.156.588.212.813.078.665.151,1.29.2,1.737Zm11.147,4.858a.728.728,0,0,1-.491.441c-1.543.409-5.456,1.2-8.462-.325a1.06,1.06,0,0,1-.555-.707c-.09-.386-.213-.971-.332-1.536-.193-.915-.33-1.56-.42-1.9a.321.321,0,0,0,.013-.134c0-.013-.045-.394-.111-.958a6.7,6.7,0,0,0,3.631,2.334,12,12,0,0,0,3.087.346c.587,0,1.15-.025,1.666-.048l.349-.015a4.341,4.341,0,0,0,2.856-1.138C175.177,354.38,174.645,355.92,174.342,356.706Zm-.611-10.378a.344.344,0,0,0,.031-.033c.683.954,1.361,1.921,1.887,2.808a3.773,3.773,0,0,1,.431,1.847,2.4,2.4,0,0,1-.042.34.335.335,0,0,0-.022.047,3.615,3.615,0,0,1-3.326,2.219l-.35.015c-2.719.12-6.44.285-8.5-3.352l-.031-.126c-.152-1.294-.322-2.727-.4-3.291a.323.323,0,0,0-.618-.084,2.279,2.279,0,0,0-.119-.24.327.327,0,0,0-.047-.06c-.107-.85-.214-1.571-.311-1.975a9.751,9.751,0,0,1,.8-6.211q-.034.328-.068.66c-.108,1.037-.2,2.069-.285,3.067v.005h0s0,0,0,.005a.312.312,0,0,0,0,.06v0a.34.34,0,0,0,.011.055,18.812,18.812,0,0,0,2.006,4.24,2.961,2.961,0,0,0,.743.888.324.324,0,0,0,.424-.039,5.865,5.865,0,0,1,4.08-2.107,4.963,4.963,0,0,1,3.252,1.252A.324.324,0,0,0,173.731,346.329Zm-2.391-3.307c.06.16.131.34.214.544l.006.017a8.95,8.95,0,0,0,.684,1.306,5.206,5.206,0,0,0-2.215-.466,6.312,6.312,0,0,0-4.327,2.083,3.66,3.66,0,0,1-.368-.519,18.259,18.259,0,0,1-1.919-4.032c.079-.976.173-1.983.279-3,.074-.711.144-1.406.208-2.069.028.026.055.052.084.077a5.81,5.81,0,0,0,2.652,1.253,6.027,6.027,0,0,0,1.168.117,4.571,4.571,0,0,0,2.013-.433,3.337,3.337,0,0,0,.326-.185c0,.111.007.222.013.331v.01A17.447,17.447,0,0,0,171.34,343.022Zm5.07-46.47c-.15.932-.306,1.9-.457,2.869-.2,1.424-.4,2.839-.582,4.208-.455,3.348-.885,6.51-1.474,9.882-.655,3.685-1.265,6.76-1.98,9.978-.589,2.947-.951,5.7-1.334,8.615q-.1.727-.194,1.467v.011l-.023.234c-.048.483-.094.942-.132,1.4a2.894,2.894,0,0,1-.581.288,4.662,4.662,0,0,1-2.461.132,5.01,5.01,0,0,1-2.6-1.338,3.1,3.1,0,0,1-.4-.517c.375-4.292.682-8.658.978-12.881.194-2.77.4-5.634.613-8.449.168-2.16.435-4.345.693-6.458a74.505,74.505,0,0,0,.819-12.67,50.9,50.9,0,0,0-.141-5.8l-.02-.261c5.824-1.9,8.649-1.335,10.6-.459C177.453,290.086,176.946,293.229,176.41,296.552Zm16.241-9.482a12.794,12.794,0,0,1-7.035,2.055,9.106,9.106,0,0,1-5.507-1.759,20.73,20.73,0,0,0-1.9-1.06c-2.1-.994-5.11-1.721-11.524.416-.25.083-.474.161-.688.236a43.094,43.094,0,0,1-9.744,2.3.324.324,0,0,0-.075.007,22.8,22.8,0,0,1-13.879-2.518,19.8,19.8,0,0,0-7.071-2.173c1.477-2.742,4.949-14.423,7.088-22.223.993-3.623,1.879-7.037,2.563-9.874a74.918,74.918,0,0,1,4.654-13.241,79.284,79.284,0,0,1,4.307-8.276.324.324,0,0,0,.049-.183l-.174-4.644a5.5,5.5,0,0,0,.8.258,6.274,6.274,0,0,0,1.471.16c.348,0,.692-.022,1.029-.052q.02.081.047.165a1.372,1.372,0,0,0-.269.6,2.249,2.249,0,0,0,.361,1.516c.081.141.169.278.253.41a4.68,4.68,0,0,1,.41.732c.058.142.1.3.154.46a2.247,2.247,0,0,0,.723,1.268,2.161,2.161,0,0,0,1.011.335c.986.135,2.549.357,4.919.7l13.9,3.725a.328.328,0,0,0,.084.011.324.324,0,0,0,.313-.24l.177-.66c2.09,6.3,5.046,18.065,7.236,26.781.832,3.313,1.551,6.175,2.093,8.225a59.681,59.681,0,0,0,6.074,14.8A7.555,7.555,0,0,1,192.651,287.069Z" fill="#000004"/>
  </g>
</svg>
