<svg xmlns="http://www.w3.org/2000/svg" width="188.863" height="165.606" viewBox="0 0 188.863 165.606">
  <g id="Grupo_43" data-name="Grupo 43" transform="translate(-289.409 -97.14)">
    <path id="Trazado_94" data-name="Trazado 94" d="M309.649,228.387a1.773,1.773,0,0,1-.145-.323.377.377,0,0,0-.364-.321c.039.147.074.294.124.443A3.007,3.007,0,0,0,309.649,228.387Z" fill="#fdd534"/>
    <path id="Trazado_95" data-name="Trazado 95" d="M311.747,233.754a6.864,6.864,0,0,1-.477-.989q-.156-.429-.307-.86l-.124-.282c-.419-.961-1.161-2.205-1.575-3.437-.4-.264-.3-.44-.124-.443a3.738,3.738,0,0,1-.108-1.781,2.275,2.275,0,0,1,2.768-1.571c1.705.5,2.225,2.821,2.768,4.27.252.674.492,1.352.731,2.031.106.219.208.437.3.654.035.081.063.167.1.249.1.1.174.3.278.422a9.019,9.019,0,0,0,.869.9,2.255,2.255,0,0,0,1.772.772,2.944,2.944,0,0,0,2.086-1.562,1.237,1.237,0,0,0,.1-1.207q-1.49-4.13-3.18-8.177c-.8-1.908-1.385-4.6-3.044-5.949-1.707-1.394-3.465-.211-4.342,1.548a8.208,8.208,0,0,0-.538,1.774c.018-.156-.026.469-.019.663.071,1.837-2.609,3.132-3.841,1.591a2.287,2.287,0,0,0-4.14.874c-.031.106-.116.5-.147.621-.006.066-.014.132-.017.2a2.285,2.285,0,0,1-3.385,1.943c.947.4.023.011-.164-.061-.334-.128-.665-.261-1-.381a5.378,5.378,0,0,0-1.04-.339c-.063-.008-.1-.015-.136-.022a.754.754,0,0,1-.223.086c-1.388.4-1.483.969-1.646,2.416-.216,1.926.947,3.649,1.647,5.362.473,1.158.939,2.319,1.408,3.478.726,1.795,2.789,5.4,5.077,2.828.962-1.08.247-2.678-.149-3.849-.548-1.614-1.181-3.2-1.83-4.776-.974-2.364,3.069-4.025,4.112-1.733a83.592,83.592,0,0,0,3.947,7.533c-.038-.065.044.033.123.131.069.02.455.3.568.35a2.079,2.079,0,0,0,1.7.112c-.232.111.962-.988.823-.845.209-.216.325-.178.49-.507a2.3,2.3,0,0,0,.1-1.177C311.938,234.433,311.82,234.084,311.747,233.754Z" fill="#fff"/>
    <path id="Trazado_96" data-name="Trazado 96" d="M401.523,188.937a2.034,2.034,0,0,0-.246.039C401.392,188.975,401.5,188.966,401.523,188.937Z" fill="#fdd534"/>
    <path id="Trazado_97" data-name="Trazado 97" d="M396.15,186.131c.126.224.243.455.389.667.033.048.068.1.1.143.131.123.241.279.366.41q.218.227.453.435c.041.036.2.155.263.209l.146.1c.13.085.263.165.4.242.153.087.311.163.468.244l.015.008c.283.092.559.194.849.264.146.036.3.06.443.09l.091.015c.3.016.589.031.886.019.03,0,.133,0,.237,0l.042-.01c.061-.014.125-.022.186-.034a7.029,7.029,0,0,0,.915-.239c.079-.027.158-.062.238-.085l.055-.015c.062-.037.125-.076.159-.094.267-.139.515-.3.766-.464l.031-.019.027-.026c.114-.1.23-.2.34-.309.127-.124.245-.256.367-.386.024-.026.048-.055.071-.083.173-.276.366-.536.521-.825.045-.083.086-.169.127-.256Z" fill="#fff"/>
    <path id="Trazado_98" data-name="Trazado 98" d="M381.32,224.1c-.184.678-.39,1.382-.617,2.1a2.215,2.215,0,0,1,1.928.049c5.812,2.837,13.17,2.981,19.493,2.761,6.224-.216,13.465-.9,18.845-4.361-.067-.617-.113-1.236-.142-1.856-.029-.069-.064-.13-.088-.205-1.027-3.271-1.812-6.635-2.516-9.988a76.137,76.137,0,0,1-1.35-7.7,30.232,30.232,0,0,1-21,4.8,31.862,31.862,0,0,1-14.074-5.944c.261.954.5,1.914.7,2.884C383.7,212.387,382.837,218.506,381.32,224.1Z" fill="#fff"/>
    <path id="Trazado_99" data-name="Trazado 99" d="M407.578,115.241a2.161,2.161,0,0,1,.456,1.922C404.206,134.639,389.652,150.6,372,154.649a2.409,2.409,0,0,1-.207.794c-4.071,8.861-1.423,18.609,1.86,27.258,1.23,3.242,2.645,6.452,4.009,9.683a2.053,2.053,0,0,1,.944.959c3.589,7.032,12.233,11.683,19.964,12.16,8.309.514,16.033-3.23,21.579-9.275a34.878,34.878,0,0,0,6.724-10.82,36.678,36.678,0,0,0,1.956-8.213,16.013,16.013,0,0,1,.5-2.825,2.6,2.6,0,0,1,.547-.921,7.128,7.128,0,0,1,.728-1.089,6.254,6.254,0,0,1,4.193-2.14,15.747,15.747,0,0,0,3.093-4.516,10.272,10.272,0,0,0,.188-7.827,4.329,4.329,0,0,0-2.691-2.615,4.2,4.2,0,0,0-2.2.266,5.413,5.413,0,0,1-.568.223.7.7,0,0,0-.282.126c-.275.365-.235.166,0,0,.07-.093.153-.21.266-.389-1.125,1.778-4.335,1.2-4.193-1.136.792-12.991-3.707-29.607-15.959-36.218a1.97,1.97,0,0,1-1.018-2.391C410.34,114.984,409,115.1,407.578,115.241Zm-6.714,56.375c2.9,0,2.895,4.5,0,4.5S397.968,171.616,400.864,171.616Zm-13.218-13.081c-2.9,0-2.9-4.5,0-4.5S390.542,158.535,387.646,158.535Zm19.963,31.891a9.328,9.328,0,0,1-9.577,2.663,10.633,10.633,0,0,1-7.165-8.61c-.006-.033,0-.064,0-.1a2.448,2.448,0,0,1-.078-.5,2.1,2.1,0,0,1,.762-1.661,1.927,1.927,0,0,1,.191-.155,2.4,2.4,0,0,1,.6-.305c.036-.012.059-.038.1-.049s.075-.01.112-.018c.066-.015.132-.022.2-.031s.1-.014.151-.016.091-.015.137-.015h14.88a2.273,2.273,0,0,1,2.25,2.25A11.045,11.045,0,0,1,407.609,190.426Zm6.083-31.891c-2.9,0-2.895-4.5,0-4.5S416.588,158.535,413.692,158.535Zm6.982-12.8a2.307,2.307,0,0,1,.807,3.078,2.261,2.261,0,0,1-3.078.807,14.219,14.219,0,0,0-1.259-.784q-.326-.179-.66-.339c-.043-.021-.376-.165-.455-.2l-.377-.141q-.351-.124-.706-.23-.668-.2-1.352-.33a5.152,5.152,0,0,0-.64-.109c.6.041-.217-.016-.324-.025a13.845,13.845,0,0,0-1.483-.041,6.9,6.9,0,0,0-1.294.093c.58-.129-.211.041-.319.062-.243.046-.484.1-.725.158a2.3,2.3,0,0,1-2.767-1.571,2.271,2.271,0,0,1,1.571-2.768A16.386,16.386,0,0,1,420.674,145.733Z" fill="#fff"/>
    <path id="Trazado_100" data-name="Trazado 100" d="M353.568,233.223a57.959,57.959,0,0,0-12.912,5.113c-.485,4.7-1.7,9.131-4.977,12.774q.515,4.848,1.03,9.7H473.591c-1.055-1.93-1.935-3.973-2.93-5.929a59.711,59.711,0,0,0-5.407-9.062,28.757,28.757,0,0,0-7.9-6.738,84.642,84.642,0,0,0-10.46-5.624,2.174,2.174,0,0,1-1.052-2.383,16.44,16.44,0,0,1-3.078-2.161,10.994,10.994,0,0,0,.794,4.676c1.6,3.777,5.6,5.5,9.443,6.011a2.306,2.306,0,0,1,2.25,2.25c-.012,1.1-1.035,2.409-2.25,2.25a26.68,26.68,0,0,1-3.424-.678,3.909,3.909,0,0,1-3.569,1.17,2.082,2.082,0,0,1-2.16,2.351,22.744,22.744,0,0,1-13.227-4.3,24.608,24.608,0,0,1-8.743-13.323c-5.856,3.206-13.278,3.973-19.756,4.2-7.19.251-15.189-.166-21.765-3.375a2.129,2.129,0,0,1-.8-.656c-3.615,9.423-10.6,20.021-21.288,18.72a2.332,2.332,0,0,1-1.864-1.331c-2.248-.013-4.536-.214-5.735-2.632a8.605,8.605,0,0,1-4.78-1.829,2.3,2.3,0,0,1-.807-3.078,2.263,2.263,0,0,1,3.078-.807c2.62,2.019,5.279,1.368,7.594-.827,2.339-2.217,2.342-4.978,1.782-7.99-.053-.281-.113-.567-.168-.85-.572.71-1.886.432-2.9.554a2.476,2.476,0,0,1,.669,1.041A2.282,2.282,0,0,1,353.568,233.223Z" fill="#fdd534"/>
    <path id="Trazado_101" data-name="Trazado 101" d="M331.1,250.349c.069-1.426,1.42-2.244,2.176-3.337a18.9,18.9,0,0,0,2.863-8.74c.709-6.48.1-13.071,1.5-19.48A25.659,25.659,0,0,1,339.192,214c.524-1.2,1.487-2.433,1.556-3.777.072-1.41-1.281-3.054-2.679-2.964s-2.178,1.627-2.762,2.7c-.863,1.582-1.656,3.2-2.4,4.848a71.651,71.651,0,0,0-3.646,10.272c-.774,2.791-5.114,1.6-4.34-1.2.333-1.2.7-2.382,1.091-3.561-2.119-6.21-4.2-12.431-6.415-18.61q-1.52-4.247-3.121-8.463c-.625-1.645-1.22-3.315-1.908-4.935-.4-.945-1.017-2.713-2.013-3.233-1.523-.794-3.272,1.517-3.273,2.907,0,1.936,1.157,4.215,1.76,6.038,2.2,6.657,4.535,13.272,6.926,19.862a18.418,18.418,0,0,1,3.142,5.652c1.42,3.367,2.785,6.749,4.026,10.186a2.294,2.294,0,0,1,.128.592,6.9,6.9,0,0,1-9.322,7.3,5.749,5.749,0,0,1-.486.882,5.037,5.037,0,0,1-1.017,1.109c-.331.286-.463.384-.434.331a4.066,4.066,0,0,1-.434.509,5.094,5.094,0,0,1-2.935,1.292,7.425,7.425,0,0,1-4.237-.861,5.818,5.818,0,0,1-.566.962,7.407,7.407,0,0,1-5.69,2.891c-.162,0-.317-.012-.474-.022a23.415,23.415,0,0,0,4.3,7.841,20.161,20.161,0,0,0,3.029,2.685c.879.636,1.929,1.106,2.3,2.206s.64,2.238.925,3.367h21.976l-.99-9.319A7.669,7.669,0,0,1,331.1,250.349Z" fill="#fff"/>
    <path id="Trazado_102" data-name="Trazado 102" d="M309.264,228.186c-.05-.149-.085-.3-.124-.443C308.959,227.746,308.86,227.922,309.264,228.186Z" fill="#000004"/>
    <path id="Trazado_103" data-name="Trazado 103" d="M335.679,251.11c3.273-3.643,4.492-8.078,4.977-12.774a57.959,57.959,0,0,1,12.912-5.113,2.251,2.251,0,1,0-1.2-4.339,74.408,74.408,0,0,0-11.394,4.2c.14-4.472.106-8.985,1-13.094A22.076,22.076,0,0,1,343.193,216a35.82,35.82,0,0,0,1.721-3.73,7.259,7.259,0,0,0-.922-6.24,6.834,6.834,0,0,0-10.653-1.1c-2.265,2.3-3.574,5.846-4.828,8.776-1.531-4.5-3.068-9.007-4.674-13.485q-1.878-5.238-3.882-10.43c-1.1-2.847-2.073-6.2-4.563-8.173s-5.5-1.226-7.83.638a7.3,7.3,0,0,0-2.653,6.943,46.3,46.3,0,0,0,2.269,7.432q1.329,3.971,2.714,7.921c.822,2.355,1.666,4.7,2.506,7.051-2.906.292-5.393,2.737-6.542,5.586a7.3,7.3,0,0,0-4.736.319,6.618,6.618,0,0,0-3.4,3.54,9.067,9.067,0,0,0-1.063-.275,6.6,6.6,0,0,0-5.553,2.04,8.421,8.421,0,0,0-1.692,5.3c-.051,2.23.963,4.2,1.836,6.147.906,2.023,1.551,4.079,2.612,5.97a32.391,32.391,0,0,0,3.078,9.417,23.223,23.223,0,0,0,4.9,7.124,28.124,28.124,0,0,0,3.338,2.63q.189.7.379,1.4h4.677c-.285-1.129-.555-2.27-.925-3.367s-1.421-1.57-2.3-2.206a20.161,20.161,0,0,1-3.029-2.685,23.415,23.415,0,0,1-4.3-7.841c.157.01.312.026.474.022a7.407,7.407,0,0,0,5.69-2.891,5.818,5.818,0,0,0,.566-.962,7.425,7.425,0,0,0,4.237.861,5.094,5.094,0,0,0,2.935-1.292,4.066,4.066,0,0,0,.434-.509c-.029.053.1-.045.434-.331a5.037,5.037,0,0,0,1.017-1.109,5.749,5.749,0,0,0,.486-.882,6.9,6.9,0,0,0,9.322-7.3,2.294,2.294,0,0,0-.128-.592c-1.241-3.437-2.606-6.819-4.026-10.186a18.418,18.418,0,0,0-3.142-5.652c-2.391-6.59-4.725-13.205-6.926-19.862-.6-1.823-1.76-4.1-1.76-6.038,0-1.39,1.75-3.7,3.273-2.907,1,.52,1.611,2.288,2.013,3.233.688,1.62,1.283,3.29,1.908,4.935q1.6,4.217,3.121,8.463c2.211,6.179,4.3,12.4,6.415,18.61-.388,1.179-.758,2.363-1.091,3.561-.774,2.795,3.566,3.988,4.34,1.2a71.651,71.651,0,0,1,3.646-10.272c.739-1.644,1.532-3.266,2.4-4.848.584-1.069,1.365-2.606,2.762-2.7s2.751,1.554,2.679,2.964c-.069,1.344-1.032,2.576-1.556,3.777a25.659,25.659,0,0,0-1.555,4.789c-1.4,6.409-.791,13-1.5,19.48a18.9,18.9,0,0,1-2.863,8.74c-.756,1.093-2.107,1.911-2.176,3.337a7.669,7.669,0,0,0,.121,1.138l.99,9.319h4.5Q336.193,255.958,335.679,251.11Zm-21.1-34.315c1.659,1.354,2.246,4.041,3.044,5.949q1.692,4.05,3.18,8.177a1.237,1.237,0,0,1-.1,1.207,2.944,2.944,0,0,1-2.086,1.562,2.255,2.255,0,0,1-1.772-.772,9.019,9.019,0,0,1-.869-.9c-.1-.12-.183-.326-.278-.422-.034-.082-.062-.168-.1-.249-.1-.217-.2-.435-.3-.654-.239-.679-.479-1.357-.731-2.031-.543-1.449-1.063-3.771-2.768-4.27a2.275,2.275,0,0,0-2.768,1.571,3.738,3.738,0,0,0,.108,1.781.377.377,0,0,1,.364.321,1.773,1.773,0,0,0,.145.323,3.007,3.007,0,0,1-.385-.2c.414,1.232,1.156,2.476,1.575,3.437l.124.282q.151.431.307.86a6.864,6.864,0,0,0,.477.989c.073.33.191.679.21.858a2.3,2.3,0,0,1-.1,1.177c-.165.329-.281.291-.49.507.139-.143-1.055.956-.823.845a2.079,2.079,0,0,1-1.7-.112c-.113-.047-.5-.33-.568-.35-.079-.1-.161-.2-.123-.131a83.592,83.592,0,0,1-3.947-7.533c-1.043-2.292-5.086-.631-4.112,1.733.649,1.576,1.282,3.162,1.83,4.776.4,1.171,1.111,2.769.149,3.849-2.288,2.568-4.351-1.033-5.077-2.828-.469-1.159-.935-2.32-1.408-3.478-.7-1.713-1.863-3.436-1.647-5.362.163-1.447.258-2.019,1.646-2.416a.754.754,0,0,0,.223-.086c.035.007.073.014.136.022a5.378,5.378,0,0,1,1.04.339c.336.12.667.253,1,.381.187.072,1.111.463.164.061a2.285,2.285,0,0,0,3.385-1.943c0-.065.011-.131.017-.2.031-.119.116-.515.147-.621a2.287,2.287,0,0,1,4.14-.874c1.232,1.541,3.912.246,3.841-1.591-.007-.194.037-.819.019-.663a8.208,8.208,0,0,1,.538-1.774C311.113,216.584,312.871,215.4,314.578,216.795Z" fill="#000004"/>
    <path id="Trazado_104" data-name="Trazado 104" d="M453,239.6c-3.846-.506-7.841-2.234-9.442-6.011-1.621-3.824-.558-8.379,1.025-12.026,1.968-4.537,4.793-8.754,7.071-13.143a33.646,33.646,0,0,0,4.291-15.708c.027-6.281-1.473-12.492-3.107-18.516-1.844-6.8-3.738-13.585-5.608-20.377-1.842-6.691-3.653-13.391-5.532-20.072a97.858,97.858,0,0,0-6.254-17.3,46.521,46.521,0,0,0-10.9-14.556,19.362,19.362,0,0,0-15.01-4.62,2.327,2.327,0,0,0-2,1.614,11.07,11.07,0,0,0-3.616.53,2.341,2.341,0,0,0-.489-.311c-4.72-2.214-10.1-1.836-15.046-.6a32.3,32.3,0,0,0-13.317,6.5c-8.453,7.284-11.944,19.012-15.349,29.216-4.387,13.145-8.495,26.381-12.871,39.53-2.043,6.14-3.837,12.627-3.456,19.162.384,6.594,3.264,12.312,6.564,17.9a71.807,71.807,0,0,1,5.074,9.476,49.752,49.752,0,0,1,2.5,9.43c.56,3.012.557,5.773-1.782,7.99-2.315,2.2-4.974,2.846-7.594.827a2.263,2.263,0,0,0-3.078.807,2.3,2.3,0,0,0,.807,3.078,8.608,8.608,0,0,0,4.78,1.829c1.2,2.418,3.487,2.618,5.735,2.632h0a2.331,2.331,0,0,0,1.864,1.332c10.687,1.3,17.673-9.3,21.288-18.72a2.129,2.129,0,0,0,.8.656c6.576,3.209,14.575,3.626,21.765,3.375,6.478-.225,13.9-.992,19.756-4.2a24.608,24.608,0,0,0,8.743,13.323,22.751,22.751,0,0,0,13.227,4.3,2.082,2.082,0,0,0,2.16-2.35,3.915,3.915,0,0,0,3.565-1.166A27.062,27.062,0,0,0,453,244.1c1.216.159,2.239-1.149,2.25-2.25A2.3,2.3,0,0,0,453,239.6Zm-7.564,3.545c-.031-.035-.067-.064-.1-.1C445.371,243.077,445.408,243.106,445.438,243.141Zm-11.759-67.349c.041-.075.079-.151.123-.225.027-.045.056-.088.085-.132-.026.024-.034.037-.067.066.027-.024.051-.054.077-.081l.049-.077c.072-.115.143-.15.109-.09.043-.048.085-.1.131-.138.017-.016.05-.043.084-.071.066-.048.155-.114.25-.175l.034-.011c.1-.033.206-.071.311-.1.044-.013.15-.034.243-.052.119-.008.27-.019.321-.018s.12,0,.18.008c.167.041.33.087.493.138.077.04.155.078.229.122.055.033.11.068.164.1.112.111.223.222.334.335.038.057.077.113.113.172s.08.146.119.22c.048.154.09.307.13.463,0-.056-.006-.1-.005-.177,0,.066.006.132.011.2.006.023.014.045.019.069a.359.359,0,0,1,.008.069c0,.027-.008.053-.009.081l-.009-.043c0,.026,0,.052.005.078,0,.114-.011.227-.014.341v.016c-.032.1-.07.2-.088.255-.005.019-.014.05-.02.076-.089.157-.179.309-.275.46-.034.04-.069.078-.1.115-.16.164-.642.445-.025.069-.152.093-.291.2-.447.292-.045.025-.092.049-.138.073-.144.043-.287.087-.434.121.053,0,.084,0,.159,0a1.939,1.939,0,0,0-.2.014l-.015.005c-.126.026-.213.013-.162,0-.118,0-.236,0-.354-.01-.076-.017-.153-.033-.23-.054-.058-.016-.114-.037-.172-.056.036.021.056.029.1.058-.036-.024-.076-.042-.115-.063l-.123-.04c-.117-.038-.15-.091-.054-.057a2.015,2.015,0,0,1-.178-.1c-.026-.016-.052-.034-.077-.052-.071-.07-.142-.142-.212-.217.079.1.016.093-.056-.017l-.081-.124c-.026-.026-.05-.055-.076-.078.033.029.044.044.07.069-.029-.045-.06-.089-.088-.136s-.069-.119-.1-.18c.015.048.023.07.043.14-.016-.055-.034-.109-.053-.163-.054-.108-.077-.211-.06-.186a1.655,1.655,0,0,1-.055-.169c-.012-.049-.022-.1-.033-.147a4.225,4.225,0,0,1,0-.464c-.01.042-.018.08-.031.134.013-.056.022-.115.033-.172.013-.158.075-.341.037-.142C433.608,176.02,433.643,175.9,433.679,175.792Zm.889-.95a.45.45,0,0,1,.224-.086C434.8,174.756,434.67,174.8,434.568,174.842Zm6.07-5.014c-.4.622-.831,1.228-1.287,1.823.179.148.35.3.513.467-.163-.164-.334-.319-.513-.467C439.807,171.056,440.24,170.45,440.638,169.828Zm-7.064,12.751a7.165,7.165,0,0,1-1-.375c-.039-.018-.075-.046-.115-.065-.211.963-.45,1.917-.737,2.872.287-.955.526-1.909.737-2.872.04.019.076.047.115.065A7.165,7.165,0,0,0,433.574,182.579Zm9.469-18.924q-.08.574-.206,1.125.126-.551.206-1.125a16.473,16.473,0,0,0,.144-3.013A16.473,16.473,0,0,1,443.043,163.655Zm0-4.532a11.651,11.651,0,0,0-1.466-4.259A11.651,11.651,0,0,1,443.039,159.123Zm-14.5-29.189a40.959,40.959,0,0,0-2.533-4.754A40.959,40.959,0,0,1,428.538,129.934ZM414.2,114.041c-.056-.015-.11-.02-.165-.031C414.094,114.021,414.148,114.026,414.2,114.041Zm-.509-.074c-.059,0-.117,0-.176.006C413.578,113.969,413.635,113.966,413.7,113.967Zm-.493.049c-.051.011-.1.023-.151.038C413.1,114.038,413.151,114.027,413.2,114.016Zm-.484.17c-.03.015-.062.028-.091.044C412.656,114.213,412.688,114.2,412.718,114.186Zm-6.13.353h0Zm-.581-.156-.007,0Zm-.578-.015-.067.011Zm-.517.123c-.036.014-.072.025-.108.04C404.84,114.516,404.876,114.5,404.912,114.491Zm-.553.314c-.021.017-.038.041-.058.06C404.321,114.846,404.338,114.822,404.359,114.805Zm-.358.426c-.028.044-.055.089-.081.138C403.946,115.32,403.973,115.276,404,115.231Zm-.306.736h0a46.941,46.941,0,0,1-12.008,22.147A46.95,46.95,0,0,0,403.7,115.967Zm-23.4,30.805a44.8,44.8,0,0,0,10.261-7.52,44.827,44.827,0,0,1-10.261,7.52,40.214,40.214,0,0,1-4.326,1.975A40.214,40.214,0,0,0,380.3,146.772Zm-12.116,5.964a2.109,2.109,0,0,0-.275.436A2.109,2.109,0,0,1,368.181,152.736Zm-10.513,90.977c-.054.008-.105.021-.156.032C357.564,243.733,357.614,243.721,357.668,243.713Zm-.523.158c-.041.02-.084.036-.122.059C357.062,243.907,357.1,243.891,357.145,243.871Zm-.5.354c-.01.01-.016.023-.026.034C356.633,244.248,356.639,244.235,356.649,244.225Zm-.271.4c-.018.035-.034.072-.05.108C356.344,244.7,356.36,244.662,356.378,244.626Zm-.183.511c-.006.024-.013.047-.018.071C356.182,245.184,356.189,245.161,356.2,245.137Zm.007,1.146.018.073C356.213,246.331,356.208,246.308,356.2,246.283Zm21.909-28.614A46.91,46.91,0,0,1,371.849,235a27.375,27.375,0,0,1-3.24,4.285,27.375,27.375,0,0,0,3.24-4.285,46.91,46.91,0,0,0,6.262-17.327,35.786,35.786,0,0,0,.411-3.907A35.786,35.786,0,0,1,378.111,217.669ZM375.836,200.1a44.569,44.569,0,0,1,2.474,8.489A44.569,44.569,0,0,0,375.836,200.1Zm2.769-6.759a2.053,2.053,0,0,0-.944-.959c-1.364-3.231-2.779-6.441-4.009-9.683-3.283-8.649-5.931-18.4-1.86-27.258a2.409,2.409,0,0,0,.207-.794c17.653-4.048,32.207-20.01,36.035-37.486a2.161,2.161,0,0,0-.456-1.922h0c1.419-.145,2.762-.257,3.86.5a1.97,1.97,0,0,0,1.018,2.391c12.252,6.611,16.751,23.227,15.959,36.218-.142,2.336,3.067,2.914,4.193,1.136-.113.179-.2.3-.266.389a.718.718,0,0,1,.282-.127,4.817,4.817,0,0,0,.568-.223,4.21,4.21,0,0,1,2.2-.265,4.329,4.329,0,0,1,2.691,2.615,10.272,10.272,0,0,1-.188,7.827,15.747,15.747,0,0,1-3.093,4.516,6.254,6.254,0,0,0-4.193,2.14,7.128,7.128,0,0,0-.728,1.089,2.588,2.588,0,0,0-.547.921,16.013,16.013,0,0,0-.5,2.825,36.678,36.678,0,0,1-1.956,8.213,34.862,34.862,0,0,1-6.725,10.82c-5.545,6.045-13.269,9.789-21.578,9.275C390.838,205.026,382.2,200.375,378.605,193.343Zm23.519,35.672c-6.323.22-13.681.076-19.493-2.761a2.215,2.215,0,0,0-1.928-.049c.227-.72.433-1.424.617-2.1,1.516-5.6,2.376-11.716,1.182-17.457-.2-.97-.442-1.93-.7-2.884a31.862,31.862,0,0,0,14.074,5.944,30.232,30.232,0,0,0,21-4.8,76.137,76.137,0,0,0,1.35,7.7c.7,3.353,1.49,6.717,2.516,9.988.024.075.059.136.087.205.03.62.076,1.239.143,1.856C415.589,228.113,408.348,228.8,402.124,229.015Zm19.92-20.082c.164.82.341,1.646.519,2.484h0C422.385,210.579,422.208,209.753,422.044,208.933Zm4.736-6.274c.839-1.4,1.73-2.786,2.648-4.146s1.864-2.7,2.811-4.025a2.266,2.266,0,0,1,1.982-.985,2.267,2.267,0,0,0-1.982.985c-.947,1.324-1.893,2.665-2.811,4.025s-1.809,2.741-2.648,4.146-1.626,2.834-2.337,4.292C425.154,205.493,425.941,204.064,426.78,202.659Zm2.225,31.666a21.882,21.882,0,0,1-3.169-7.529,23.692,23.692,0,0,1-.347-8.261,23.692,23.692,0,0,0,.347,8.261,21.882,21.882,0,0,0,3.169,7.529,18.933,18.933,0,0,0,3.077,3.548A18.933,18.933,0,0,1,429.005,234.325Zm15.343,8.175a2.522,2.522,0,0,0-.5-.061A2.513,2.513,0,0,1,444.348,242.5Zm.793.365c-.052-.039-.113-.07-.17-.105C445.028,242.795,445.089,242.826,445.141,242.865Zm-.363-.218a2.087,2.087,0,0,0-.263-.092A2.26,2.26,0,0,1,444.778,242.647Zm1.177,1.539v0Zm-.331-.795c.015.024.033.045.047.069C445.657,243.436,445.639,243.415,445.624,243.391Zm.2.388c.005.012.011.023.015.034C445.839,243.8,445.833,243.791,445.828,243.779Z" fill="#000004"/>
    <path id="Trazado_105" data-name="Trazado 105" d="M432.342,155.877c-.235.166-.275.365,0,0Z" fill="#000004"/>
    <path id="Trazado_106" data-name="Trazado 106" d="M416.484,148.495q.334.161.66.339a14.219,14.219,0,0,1,1.259.784,2.261,2.261,0,0,0,3.078-.807,2.307,2.307,0,0,0-.807-3.078,16.386,16.386,0,0,0-13.061-2.342,2.271,2.271,0,0,0-1.571,2.768,2.3,2.3,0,0,0,2.767,1.571c.241-.058.482-.112.725-.158.108-.021.9-.191.319-.062a6.9,6.9,0,0,1,1.294-.093,13.845,13.845,0,0,1,1.483.041c.107.009.919.066.324.025a5.152,5.152,0,0,1,.64.109q.684.132,1.352.33.355.105.706.23l.377.141C416.108,148.33,416.441,148.474,416.484,148.495Z" fill="#000004"/>
    <path id="Trazado_107" data-name="Trazado 107" d="M413.692,154.035c-2.895,0-2.9,4.5,0,4.5S416.593,154.035,413.692,154.035Z" fill="#000004"/>
    <path id="Trazado_108" data-name="Trazado 108" d="M400.864,171.616c-2.9,0-2.9,4.5,0,4.5S403.764,171.616,400.864,171.616Z" fill="#000004"/>
    <path id="Trazado_109" data-name="Trazado 109" d="M387.646,158.535c2.9,0,2.9-4.5,0-4.5S384.746,158.535,387.646,158.535Z" fill="#000004"/>
    <path id="Trazado_110" data-name="Trazado 110" d="M477.948,259.393c-1.346-2.277-2.364-4.764-3.569-7.117a59.743,59.743,0,0,0-5.822-9.493,32.961,32.961,0,0,0-8.54-7.344,83.85,83.85,0,0,0-10.85-5.871,2.323,2.323,0,0,0-3.079.807,2.264,2.264,0,0,0,.808,3.078,84.642,84.642,0,0,1,10.46,5.624,28.757,28.757,0,0,1,7.9,6.738,59.711,59.711,0,0,1,5.407,9.062c.995,1.956,1.875,4,2.93,5.929h4.66A2.122,2.122,0,0,0,477.948,259.393Z" fill="#000004"/>
    <path id="Trazado_111" data-name="Trazado 111" d="M473.591,260.806c.157.287.3.578.471.859,1.183,2,3.92.934,4.189-.859Z" fill="#000004"/>
    <path id="Trazado_112" data-name="Trazado 112" d="M437.186,176.073c0,.082,0,.121.005.177l.006.022C437.192,176.205,437.185,176.139,437.186,176.073Z" fill="#fff"/>
    <path id="Trazado_113" data-name="Trazado 113" d="M437.215,176.491c0-.028.007-.054.009-.081a.359.359,0,0,0-.008-.069c-.005-.024-.013-.046-.019-.069.005.059.006.118.009.176A.392.392,0,0,0,437.215,176.491Z" fill="#fff"/>
    <path id="Trazado_114" data-name="Trazado 114" d="M435.611,178.36l.015-.005-.083.006c-.032,0-.063,0-.094,0C435.4,178.373,435.485,178.386,435.611,178.36Z" fill="#fff"/>
    <path id="Trazado_115" data-name="Trazado 115" d="M435.825,178.341c-.075,0-.107,0-.159,0l-.04.011A1.939,1.939,0,0,1,435.825,178.341Z" fill="#fff"/>
    <path id="Trazado_116" data-name="Trazado 116" d="M436.1,178.223c.046-.024.093-.047.138-.073.156-.088.295-.2.447-.292-.617.376-.135.1.025-.069.035-.037.07-.075.1-.115.1-.151.186-.3.275-.46.006-.026.015-.057.02-.077.018-.058.056-.156.088-.254v-.016c0-.114.012-.227.014-.341,0-.026,0-.052-.005-.078a1.322,1.322,0,0,1-.015-.2c-.04-.156-.082-.309-.13-.463-.039-.074-.077-.148-.119-.22s-.075-.115-.113-.172c-.111-.113-.222-.224-.335-.335-.053-.036-.108-.071-.163-.1-.074-.044-.152-.082-.229-.122-.163-.051-.326-.1-.493-.138-.06,0-.12-.007-.18-.008s-.2.01-.321.018c-.093.018-.2.04-.243.052-.1.029-.207.067-.311.1l-.034.011c-.1.061-.184.127-.25.175l-.084.071a1.891,1.891,0,0,0-.13.138,1.2,1.2,0,0,1-.169.182c-.029.044-.058.087-.085.132-.044.074-.082.15-.123.225-.036.113-.071.228-.1.344-.008.04-.021.1-.039.18a4.224,4.224,0,0,0,0,.464c.011.049.021.1.033.147a1.655,1.655,0,0,0,.055.169,1.524,1.524,0,0,1,.07.209c.033.061.066.121.1.18s.059.091.088.136a1.436,1.436,0,0,1,.143.15c.07.075.141.147.212.217.025.018.051.036.077.052a2.015,2.015,0,0,0,.178.1,1.488,1.488,0,0,1,.193.1c.058.019.114.04.172.056.077.021.154.037.231.054.117.007.235.011.353.01a1.342,1.342,0,0,1,.217-.015C435.813,178.31,435.956,178.266,436.1,178.223Z" fill="#fff"/>
    <path id="Trazado_117" data-name="Trazado 117" d="M434.792,178.3c-.043-.029-.063-.037-.1-.058l-.016-.005C434.716,178.255,434.756,178.273,434.792,178.3Z" fill="#fff"/>
    <path id="Trazado_118" data-name="Trazado 118" d="M433.82,177.552c.026.023.05.052.076.078l-.006-.009C433.864,177.6,433.853,177.581,433.82,177.552Z" fill="#fff"/>
    <path id="Trazado_119" data-name="Trazado 119" d="M433.69,177.282c.019.054.037.108.053.163-.02-.069-.028-.092-.043-.14l0-.007Z" fill="#fff"/>
    <path id="Trazado_120" data-name="Trazado 120" d="M433.69,177.282c-.021-.061-.04-.124-.06-.186C433.613,177.071,433.636,177.174,433.69,177.282Z" fill="#fff"/>
    <path id="Trazado_121" data-name="Trazado 121" d="M434.554,178.194l.123.04c-.059-.032-.117-.066-.177-.1C434.4,178.1,434.437,178.156,434.554,178.194Z" fill="#fff"/>
    <path id="Trazado_122" data-name="Trazado 122" d="M433.977,177.754c.072.11.135.12.056.017-.045-.049-.091-.1-.137-.141Z" fill="#fff"/>
    <path id="Trazado_123" data-name="Trazado 123" d="M433.578,176.136c.038-.2-.024-.016-.037.142l.009-.045C433.557,176.2,433.57,176.168,433.578,176.136Z" fill="#fff"/>
    <path id="Trazado_124" data-name="Trazado 124" d="M433.541,176.278c-.011.057-.02.116-.033.172.013-.054.021-.092.031-.134a.107.107,0,0,1,0-.018Z" fill="#fff"/>
    <path id="Trazado_125" data-name="Trazado 125" d="M433.946,175.343l-.049.077c.053-.055.107-.11.159-.167C434.09,175.193,434.018,175.228,433.946,175.343Z" fill="#fff"/>
    <path id="Trazado_126" data-name="Trazado 126" d="M434.792,174.756a.45.45,0,0,0-.224.086C434.67,174.8,434.8,174.756,434.792,174.756Z" fill="#fff"/>
    <path id="Trazado_127" data-name="Trazado 127" d="M433.82,175.5c.033-.029.041-.042.067-.066l.01-.015C433.871,175.447,433.847,175.476,433.82,175.5Z" fill="#fff"/>
    <path id="Trazado_128" data-name="Trazado 128" d="M434.677,178.234l.016.005a1.488,1.488,0,0,0-.193-.1C434.56,178.168,434.618,178.2,434.677,178.234Z" fill="#000004"/>
    <path id="Trazado_129" data-name="Trazado 129" d="M435.626,178.355l.04-.011a1.342,1.342,0,0,0-.217.015c.031,0,.062,0,.094,0Z" fill="#000004"/>
    <path id="Trazado_130" data-name="Trazado 130" d="M433.89,177.621l.006.009c.046.045.092.092.137.141A1.436,1.436,0,0,0,433.89,177.621Z" fill="#000004"/>
    <path id="Trazado_131" data-name="Trazado 131" d="M437.2,176.272l-.006-.022a1.322,1.322,0,0,0,.015.2C437.2,176.39,437.2,176.331,437.2,176.272Z" fill="#000004"/>
    <path id="Trazado_132" data-name="Trazado 132" d="M433.69,177.282l.007.016,0,.007a1.524,1.524,0,0,0-.07-.209C433.65,177.158,433.669,177.221,433.69,177.282Z" fill="#000004"/>
    <path id="Trazado_133" data-name="Trazado 133" d="M433.55,176.233l-.009.045,0,.02a.107.107,0,0,0,0,.018c.018-.077.031-.14.039-.18C433.57,176.168,433.557,176.2,433.55,176.233Z" fill="#000004"/>
    <path id="Trazado_134" data-name="Trazado 134" d="M434.056,175.253c-.052.057-.106.112-.159.167l-.01.015A1.2,1.2,0,0,0,434.056,175.253Z" fill="#000004"/>
    <path id="Trazado_135" data-name="Trazado 135" d="M393.037,181.631c-.046,0-.091.011-.137.015s-.1.01-.151.016-.132.016-.2.031c-.037.008-.076.008-.112.018s-.061.037-.1.049a2.4,2.4,0,0,0-.6.305,1.927,1.927,0,0,0-.191.155,2.1,2.1,0,0,0-.762,1.661,2.448,2.448,0,0,0,.078.5c0,.033,0,.064,0,.1a10.633,10.633,0,0,0,7.165,8.61,9.328,9.328,0,0,0,9.577-2.663,11.045,11.045,0,0,0,2.558-6.545,2.273,2.273,0,0,0-2.25-2.25h-14.88Zm8.24,7.345a2.034,2.034,0,0,1,.246-.039C401.5,188.966,401.392,188.975,401.277,188.976Zm3.177-1.764c-.023.028-.047.057-.071.083-.122.13-.24.262-.367.386-.11.107-.226.206-.34.309l-.027.026-.031.019c-.251.164-.5.325-.766.464-.034.018-.1.057-.159.094l-.055.015c-.08.023-.159.058-.238.085a7.029,7.029,0,0,1-.915.239c-.061.012-.125.02-.186.034l-.042.01c-.1,0-.207,0-.237,0-.3.012-.59,0-.886-.019l-.091-.015c-.147-.03-.3-.054-.443-.09-.29-.07-.566-.172-.849-.264l-.015-.008c-.157-.081-.315-.157-.468-.244-.135-.077-.268-.157-.4-.242l-.146-.1c-.067-.054-.222-.173-.263-.209q-.236-.208-.453-.435c-.125-.131-.235-.287-.366-.41-.035-.047-.07-.1-.1-.143-.146-.212-.263-.443-.389-.667H405.1c-.041.087-.082.173-.127.256C404.82,186.676,404.627,186.936,404.454,187.212Z" fill="#000004"/>
  </g>
</svg>
